<svg width="70" height="70" viewBox="0 0 70 70" fill="none" xmlns="http://www.w3.org/2000/svg">
<path d="M65.053 51.4062L68.8275 41.9694L66.7964 41.1567L62.697 51.4062H62.3438V38.2812H60.1562V20.7812H55.7812V16.4062H53.5938V20.7812H51.4062V14.2188H49.2188V20.7812H47.0312V16.4062H44.8438V20.7812H40.4688V33.9062H36.0938V39.5161C33.5158 36.3508 29.9972 34.0452 26.0039 32.9886L25.5073 31.5C27.102 31.0592 28.4123 29.9316 29.0675 28.4375H29.5312C31.9441 28.4375 33.9062 26.4753 33.9062 24.0625V18.5938C35.1127 18.5938 36.0938 17.6127 36.0938 16.4062V14.2188C36.0938 13.0123 35.1127 12.0312 33.9062 12.0312H33.7159C32.6692 5.73125 27.2814 1.09375 20.7812 1.09375C14.2811 1.09375 8.89328 5.73125 7.84656 12.0312H7.65625C6.44984 12.0312 5.46875 13.0123 5.46875 14.2188V16.4062C5.46875 17.6127 6.44984 18.5938 7.65625 18.5938V24.0625C7.65625 26.4753 9.61844 28.4375 12.0312 28.4375H12.495C13.1512 29.9316 14.4605 31.0603 16.0552 31.5L15.5586 32.9886C7.01094 35.2428 1.09375 42.8838 1.09375 51.7803V52.5C1.09375 57.1637 3.76688 61.2073 7.65625 63.2034V68.9062H40.4688V60.1562H43.8605C44.3691 62.6489 46.5773 64.5312 49.2188 64.5312C51.8602 64.5312 54.0684 62.6489 54.577 60.1562H60.0666C64.458 60.1562 68.1702 57.0117 68.892 52.6805L69.1042 51.4062H65.053ZM51.4062 51.4062V40.4688H60.1562V51.4062H51.4062ZM42.6562 22.9688H57.9688V38.2812H51.4062V33.9062H42.6562V22.9688ZM49.2188 36.0938V51.4062H38.2812V36.0938H49.2188ZM36.0938 43.3956V51.4062H35.7405L31.64 41.1556L29.6089 41.9683L33.3845 51.4062H29.3344L29.5466 52.6805C29.8364 54.4195 30.6141 55.9628 31.7188 57.1922V66.7188H26.25V64.5312C28.0591 64.5312 29.5312 63.0591 29.5312 61.25C29.5312 59.4409 28.0591 57.9688 26.25 57.9688V35.3577C30.4205 36.6833 33.9478 39.5445 36.0938 43.3956ZM23.2739 31.7188L23.9487 33.7444L20.7812 38.4967L17.6127 33.7444L18.2886 31.7188H23.2739ZM24.0625 42.8192L22.1353 40.4097L24.0625 37.5189V42.8192ZM17.5 42.8192V37.5189L19.4272 40.4097L17.5 42.8192ZM17.5 46.3203L20.7812 42.2188L24.0625 46.3203V55.9737C23.7191 55.8523 23.3527 55.7812 22.9688 55.7812H21.688C20.8119 55.7812 19.9872 56.1225 19.367 56.7427L18.2448 57.8648L17.5 57.6986V46.3203ZM19.6875 59.5153L20.9136 58.2892C21.1203 58.0825 21.3959 57.9688 21.688 57.9688H22.9688C23.5714 57.9688 24.0625 58.4598 24.0625 59.0625V60.1562H26.25C26.8527 60.1562 27.3438 60.6473 27.3438 61.25C27.3438 61.8527 26.8527 62.3438 26.25 62.3438H19.6875V59.5153ZM24.0625 64.5312V66.7188H17.5V64.5312H24.0625ZM29.5312 26.25V21.875C30.7377 21.875 31.7188 22.8561 31.7188 24.0625C31.7188 25.2689 30.7377 26.25 29.5312 26.25ZM31.7188 20.2956C31.0723 19.9194 30.3319 19.6875 29.5312 19.6875V18.5938H31.7188V20.2956ZM31.4956 12.0312H24.0625V3.78219C27.8195 4.94703 30.7016 8.06313 31.4956 12.0312ZM21.875 3.33594V12.0312H19.6875V3.33594C20.0473 3.30094 20.4116 3.28125 20.7812 3.28125C21.1509 3.28125 21.5152 3.30094 21.875 3.33594ZM17.5 3.78219V12.0312H10.0669C10.8609 8.06313 13.743 4.94703 17.5 3.78219ZM7.65516 14.2188H7.65625H33.9062V16.4062H7.65625L7.65516 14.2188ZM12.0312 18.5938V19.6875C11.2306 19.6875 10.4902 19.9194 9.84375 20.2956V18.5938H12.0312ZM9.84375 24.0625C9.84375 22.8561 10.8248 21.875 12.0312 21.875V26.25C10.8248 26.25 9.84375 25.2689 9.84375 24.0625ZM14.2188 26.25V18.5938H27.3438V26.25C27.3438 28.0591 25.8716 29.5312 24.0625 29.5312H17.5C15.6909 29.5312 14.2188 28.0591 14.2188 26.25ZM3.28125 52.5V51.7803C3.28125 44.1678 8.16375 37.5966 15.3125 35.3423V57.2141L14.1258 56.9505C11.6047 56.3894 9.84375 54.1942 9.84375 51.6108V47.0312H7.65625V51.6108C7.65625 55.2267 10.1216 58.3002 13.6511 59.0844L17.5 59.9397V62.3438H13.125C7.69781 62.3438 3.28125 57.9272 3.28125 52.5ZM9.84375 64.0653C10.8883 64.3617 11.9864 64.5312 13.125 64.5312H15.3125V66.7188H9.84375V64.0653ZM33.9062 66.7188V58.9684C35.2002 59.7122 36.6953 60.1366 38.2812 60.153V66.7188H33.9062ZM49.2188 62.3438C47.4097 62.3438 45.9375 60.8716 45.9375 59.0625C45.9375 58.4598 46.4286 57.9688 47.0312 57.9688H51.4062C52.0089 57.9688 52.5 58.4598 52.5 59.0625C52.5 60.8716 51.0278 62.3438 49.2188 62.3438ZM60.0655 57.9688H54.4852C54.0323 56.6989 52.8292 55.7812 51.4052 55.7812H47.0302C45.6061 55.7812 44.403 56.6989 43.9502 57.9688H38.3698C35.4998 57.9688 33.0148 56.1914 32.0425 53.5938H66.3906C65.4205 56.1914 62.9366 57.9688 60.0655 57.9688Z" fill="#FFDD00"/>
<path d="M53.5938 25.1562H55.7812V27.3438H53.5938V25.1562Z" fill="#FFDD00"/>
<path d="M49.2188 25.1562H51.4062V27.3438H49.2188V25.1562Z" fill="#FFDD00"/>
<path d="M44.8438 25.1562H47.0312V27.3438H44.8438V25.1562Z" fill="#FFDD00"/>
<path d="M53.5938 29.5312H55.7812V31.7188H53.5938V29.5312Z" fill="#FFDD00"/>
<path d="M44.8438 29.5312H47.0312V31.7188H44.8438V29.5312Z" fill="#FFDD00"/>
<path d="M49.2188 29.5312H51.4062V31.7188H49.2188V29.5312Z" fill="#FFDD00"/>
<path d="M53.5938 33.9062H55.7812V36.0938H53.5938V33.9062Z" fill="#FFDD00"/>
<path d="M40.4688 38.2812H42.6562V49.2188H40.4688V38.2812Z" fill="#FFDD00"/>
<path d="M44.8438 38.2812H47.0312V49.2188H44.8438V38.2812Z" fill="#FFDD00"/>
<path d="M53.5938 42.6562H57.9688V44.8438H53.5938V42.6562Z" fill="#FFDD00"/>
<path d="M53.5938 47.0312H57.9688V49.2188H53.5938V47.0312Z" fill="#FFDD00"/>
</svg>
