<svg width="50" height="50" viewBox="0 0 50 50" fill="none" xmlns="http://www.w3.org/2000/svg">
<path d="M23.9857 0.0147591C23.7316 0.0210953 23.4619 0.0306015 23.3882 0.0353546C22.9601 0.0670357 22.8189 0.078125 22.5351 0.100304C22.3626 0.11298 22.1681 0.130405 22.1038 0.139912C22.0395 0.147831 21.8451 0.17318 21.6726 0.195358C21.5 0.217537 21.3024 0.242882 21.2334 0.250805C21.0751 0.269814 20.8853 0.301498 20.6062 0.352192C20.4854 0.372787 20.3019 0.406055 20.1984 0.425064C19.8628 0.483681 19.7797 0.501106 19.4221 0.585068C19.2277 0.629425 19.0442 0.672199 19.0144 0.678535C18.8215 0.719723 18.5047 0.798935 18.3165 0.852798C17.545 1.07458 17.3238 1.1427 16.8032 1.32172C16.5052 1.42311 16.1634 1.54509 16.0426 1.59261C15.155 1.94431 14.9699 2.02351 14.4509 2.2659C14.3771 2.30075 14.283 2.34352 14.2391 2.36095C14.1576 2.3958 13.11 2.92967 12.961 3.01205C12.6646 3.17681 11.9385 3.60454 11.7457 3.72811C10.4911 4.52971 9.56738 5.21566 8.56215 6.09489C8.13088 6.47034 8.07913 6.51945 7.74667 6.84105C7.32324 7.24818 7.17897 7.39393 6.87473 7.71552C6.69909 7.90087 6.55167 8.05612 6.54697 8.06087C6.52188 8.08464 6.35408 8.27316 6.2788 8.36187C5.77383 8.9496 5.59035 9.17139 5.28141 9.57061C5.08224 9.82408 4.82976 10.1615 4.71998 10.3183C4.61021 10.4752 4.45965 10.6875 4.38908 10.7889C4.13817 11.1421 3.63006 11.9469 3.40267 12.3461C3.31798 12.4934 3.18468 12.7295 3.1047 12.8689C2.92122 13.1905 2.46643 14.0935 2.29079 14.4816C2.21709 14.6464 2.15592 14.7826 2.15592 14.7858C2.15592 14.7874 2.12456 14.8571 2.08692 14.9379C1.96774 15.1992 1.90971 15.3339 1.79523 15.6333C1.7325 15.7949 1.63527 16.0436 1.58038 16.1878C1.52393 16.3319 1.4267 16.606 1.3624 16.7977C1.2981 16.9894 1.21342 17.2381 1.17578 17.3522C1.02053 17.8147 0.753927 18.8017 0.611218 19.4433C0.579853 19.5827 0.540647 19.7538 0.524965 19.8235C0.507715 19.8932 0.484191 20.0104 0.471645 20.0849C0.459099 20.1594 0.434008 20.2972 0.416757 20.3938C0.399507 20.4889 0.374415 20.6283 0.361869 20.7027C0.347755 20.7772 0.327368 20.8976 0.313254 20.972C0.281889 21.1463 0.266207 21.262 0.21916 21.6295C0.13918 22.2647 0.118793 22.4438 0.103111 22.6434C0.0733148 23.0172 0.0388137 23.4798 0.0246996 23.681C-0.00823321 24.2054 -0.00823321 25.8244 0.0246996 26.3187C0.0921335 27.3041 0.12193 27.6336 0.179954 28.0613C0.189364 28.1215 0.214456 28.3179 0.236411 28.497C0.274048 28.8027 0.466941 29.9402 0.517124 30.1556C0.570444 30.3821 0.589263 30.4645 0.642582 30.699C0.731972 31.0919 0.77745 31.2883 0.800974 31.3643C0.811951 31.404 0.885658 31.6606 0.962501 31.9347C1.12089 32.4955 1.42199 33.4143 1.58823 33.8436C1.92539 34.7117 1.94265 34.7545 2.08849 35.0714C2.11829 35.1363 2.18886 35.2963 2.24531 35.4278C2.51348 36.0441 3.32269 37.5712 3.65358 38.0892C3.69749 38.159 3.84334 38.3871 3.97507 38.5962C4.19619 38.9431 4.63687 39.5863 4.90033 39.9428C5.28925 40.4719 6.1455 41.5143 6.49835 41.8913C7.21504 42.6565 7.87369 43.3076 8.37396 43.7464C8.51196 43.8684 8.70329 44.0363 8.79738 44.1187C9.00752 44.304 9.88103 44.9979 10.1163 45.1674C10.7012 45.5904 10.8439 45.6918 11.0556 45.8312C11.5575 46.1607 11.9605 46.4158 12.2161 46.5647C12.3635 46.6502 12.5643 46.7675 12.6631 46.8261C12.7619 46.8831 12.8999 46.9623 12.9689 47.0003C13.0379 47.0368 13.19 47.1207 13.306 47.1841C13.7389 47.4201 14.8555 47.9413 15.3839 48.152C15.5486 48.217 15.8121 48.3231 15.972 48.3865C16.695 48.6748 18.0891 49.1121 18.8419 49.2879C18.9407 49.3117 19.0505 49.337 19.085 49.3449C19.6244 49.4748 19.7436 49.5002 20.3396 49.6079C20.9904 49.7251 20.9668 49.722 21.6177 49.8059C22.1211 49.8709 22.2842 49.8883 22.6449 49.9152C22.7578 49.9232 22.9899 49.9406 23.1624 49.9549C23.9277 50.015 25.5884 50.015 26.3302 49.9549C26.4949 49.9422 26.727 49.9232 26.8477 49.9152C27.1284 49.8947 27.4013 49.8693 27.4515 49.8598C27.4734 49.855 27.5471 49.8455 27.6161 49.8376C28.0615 49.7838 28.5304 49.7204 28.7139 49.6855C28.7923 49.6713 28.9288 49.6475 29.0197 49.6301C29.1107 49.6142 29.2455 49.5889 29.3224 49.5762C29.3977 49.562 29.52 49.5398 29.5968 49.5271C29.6721 49.5129 29.7897 49.4891 29.8587 49.4717C29.9277 49.4542 30.0296 49.4305 30.0861 49.4194C30.2351 49.3861 30.6679 49.2847 30.8232 49.2467C30.8969 49.2293 31.14 49.1612 31.3642 49.0978C31.5885 49.0329 31.8112 48.9695 31.8582 48.9568C32.0464 48.9029 33.1426 48.5322 33.3527 48.4515C33.8075 48.2756 34.4238 48.0206 34.7516 47.8716C34.968 47.7734 35.2189 47.6578 35.313 47.6166C35.4055 47.5754 35.5953 47.4803 35.7364 47.4075C35.876 47.333 36.1175 47.2079 36.2728 47.1271C36.428 47.0463 36.7464 46.8688 36.9785 46.7342C37.2121 46.5979 37.4333 46.4696 37.4725 46.4474C37.5117 46.4253 37.6418 46.3445 37.7626 46.2653C37.8833 46.1876 38.117 46.0371 38.2817 45.931C38.9278 45.5112 40.1165 44.6193 40.6779 44.1282C41.2927 43.5911 41.4401 43.4581 41.8478 43.0636C42.094 42.826 42.3371 42.5868 42.3889 42.5313C42.4391 42.4759 42.6131 42.2905 42.7747 42.121C43.4067 41.4525 44.2645 40.4022 44.8008 39.6418C44.9467 39.4326 45.1113 39.2014 45.1646 39.1269C45.2164 39.0524 45.2964 38.9352 45.3419 38.8655C45.7512 38.2239 45.9221 37.9514 45.9503 37.8991C45.9739 37.8532 46.2546 37.3621 46.38 37.1467C46.5133 36.9169 47.0089 35.9458 47.1202 35.6971C47.1516 35.6274 47.2629 35.3771 47.368 35.1426C47.4731 34.9066 47.6111 34.5834 47.6738 34.4218C47.7365 34.2603 47.8353 34.01 47.8918 33.8642C47.9859 33.6234 48.0659 33.3905 48.3136 32.6475C48.403 32.3751 48.6916 31.3612 48.7465 31.1267C48.7637 31.0523 48.7998 30.8954 48.8265 30.7782C48.9739 30.1382 48.9958 30.0431 49.0241 29.8815C49.0491 29.7406 49.0852 29.5314 49.1323 29.2653C49.2185 28.7837 49.2138 28.817 49.3063 28.0851C49.3659 27.6146 49.3722 27.548 49.3989 27.1979C49.413 27.0189 49.4302 26.7876 49.4381 26.6831C49.5039 25.8656 49.5039 24.142 49.4381 23.3246C49.4302 23.22 49.413 22.9887 49.3989 22.8097C49.3863 22.6307 49.3565 22.3424 49.3346 22.1681C49.3126 21.9938 49.2891 21.7974 49.2812 21.7325C49.2483 21.4473 49.2013 21.113 49.1793 20.9958C49.1652 20.9261 49.1448 20.8089 49.1307 20.7344C49.0962 20.5364 49.0319 20.1689 49.0146 20.077C49.0068 20.0326 48.9896 19.9439 48.9754 19.879C48.9598 19.814 48.9425 19.7348 48.9362 19.7047C48.93 19.6746 48.8986 19.5352 48.8672 19.3958C48.723 18.7684 48.7198 18.7558 48.5112 18.0175C48.4689 17.8686 48.4266 17.7197 48.4172 17.6848C48.4062 17.65 48.367 17.5248 48.3278 17.4076C48.1051 16.7296 47.9859 16.3842 47.8777 16.1086C47.8118 15.9391 47.713 15.6856 47.6581 15.5462C47.6032 15.4068 47.4731 15.0994 47.368 14.865C47.2629 14.6289 47.1626 14.4056 47.1453 14.366C47.0575 14.1648 46.5321 13.1287 46.4271 12.9481C46.3863 12.8784 46.3 12.7247 46.2342 12.6075C45.9911 12.1719 45.4595 11.3037 45.2744 11.0392C44.7867 10.3421 44.5797 10.0506 44.4668 9.90646C44.3931 9.80982 44.2174 9.58645 44.0794 9.40744C43.7219 8.94802 43.1354 8.2684 42.6508 7.75671C42.2195 7.29888 41.5107 6.605 41.1813 6.31826C41.0763 6.22638 40.8708 6.04736 40.725 5.92063C40.4772 5.70518 39.7903 5.14913 39.5269 4.95269C39.2273 4.72932 38.5577 4.25564 38.3664 4.13208C38.2503 4.05603 38.0166 3.90554 37.8488 3.79781C37.681 3.6885 37.4333 3.53642 37.3 3.45879C37.1667 3.38275 36.9518 3.2576 36.8217 3.18156C36.6931 3.10552 36.5049 3.00096 36.4061 2.94868C35.9827 2.72531 35.4165 2.43699 35.3083 2.38947C35.244 2.36095 35.1248 2.30709 35.0433 2.26907C34.9633 2.23104 34.8943 2.19936 34.8912 2.19936C34.8896 2.19936 34.8253 2.17085 34.7485 2.13441C34.6732 2.09797 34.5712 2.05203 34.5242 2.02985C34.427 1.98549 33.9549 1.79381 33.5284 1.62588C33.2116 1.50073 32.2095 1.15379 31.9445 1.07617C31.325 0.897156 31.038 0.814777 30.9408 0.789429C30.8812 0.773586 30.2053 0.61517 30.1332 0.599327C30.1034 0.592991 29.9983 0.569225 29.8995 0.545464C29.7411 0.507442 29.6548 0.490017 29.3726 0.440907C29.3302 0.432987 29.2346 0.415558 29.1609 0.402885C28.5853 0.296745 28.4222 0.271397 27.8671 0.203278C27.7291 0.185852 27.5738 0.165257 27.5221 0.157337C27.4311 0.141495 27.0924 0.111393 26.6282 0.0765419C26.5074 0.0670357 26.3239 0.0527802 26.2204 0.0432739C25.9993 0.0258484 24.947 -0.00425339 24.6522 0.000499725C24.5408 0.00208664 24.2397 0.00842285 23.9857 0.0147591ZM24.7384 0.59774C24.7384 0.605663 24.7322 0.61517 24.7259 0.618336C24.7181 0.619919 24.4452 1.15696 24.119 1.81123C23.7928 2.46392 23.4117 3.2275 23.2721 3.50632C23.1326 3.78514 22.7938 4.46159 22.5194 5.0113C22.245 5.55943 21.9109 6.22955 21.7745 6.50044C21.6381 6.76976 21.3354 7.3765 21.1001 7.84701C20.8649 8.31751 20.5089 9.0304 20.3082 9.4312C20.1075 9.832 19.7546 10.537 19.5241 10.9995C19.2935 11.4606 18.9517 12.1449 18.7635 12.5204C18.5753 12.8942 18.2224 13.6008 17.9794 14.0887C17.7363 14.5767 17.4321 15.1818 17.305 15.4353C17.178 15.6872 16.8314 16.3795 16.5366 16.972C16.2418 17.5644 15.8983 18.2488 15.776 18.4928C15.6537 18.7367 15.3494 19.3419 15.1017 19.8393C14.8539 20.3352 14.5073 21.0275 14.3332 21.376C14.1592 21.7245 13.8267 22.3867 13.5962 22.8493C13.3656 23.3103 13.0379 23.9662 12.8669 24.3068C12.696 24.6458 12.3431 25.3523 12.0828 25.8751C11.8225 26.3979 11.4759 27.0886 11.3144 27.4118C11.1529 27.7334 10.8392 28.3607 10.6165 28.8059C10.3938 29.2495 10.0598 29.9196 9.87162 30.295C9.68343 30.6689 9.34469 31.3469 9.11887 31.8C8.89304 32.2531 8.56842 32.901 8.39748 33.2416C8.10736 33.8198 7.94583 34.1446 6.93432 36.1645C6.71947 36.5954 6.39956 37.2338 6.22548 37.5823C6.05141 37.9308 5.76756 38.498 5.59662 38.8417C5.42568 39.1855 5.28298 39.4707 5.27827 39.4754C5.27513 39.4802 5.27043 39.4754 5.26729 39.4675C5.26259 39.458 5.15752 39.3043 5.03049 39.1269C4.50513 38.3839 3.89196 37.3906 3.46226 36.5843C3.05609 35.8223 2.6013 34.8432 2.33313 34.1604C2.25159 33.9513 2.15279 33.6994 2.11358 33.6012C1.85639 32.947 1.42513 31.5275 1.24635 30.7449C1.20087 30.5501 1.13971 30.2823 1.10992 30.1524C1.08012 30.021 1.04562 29.8546 1.03307 29.7802C1.01896 29.7057 0.995434 29.5663 0.978184 29.4712C0.851157 28.7584 0.835475 28.6681 0.808815 28.4336C0.799405 28.3591 0.785291 28.2451 0.77745 28.1801C0.769609 28.1152 0.747654 27.9504 0.730403 27.8158C0.713153 27.6811 0.688061 27.4308 0.673947 27.2613C0.661401 27.0918 0.644151 26.8668 0.634741 26.7623C0.587694 26.1888 0.581421 25.9797 0.581421 24.9959C0.581421 24.0074 0.587694 23.8252 0.634741 23.2533C0.642582 23.1535 0.661401 22.9254 0.673947 22.7463C0.688061 22.5673 0.702175 22.4042 0.705312 22.382C0.713153 22.3471 0.768041 21.9146 0.807247 21.5899C0.832338 21.376 0.854293 21.235 0.877817 21.0988C0.891931 21.0243 0.909182 20.9277 0.917023 20.8849C0.924864 20.8406 0.942114 20.7408 0.956228 20.6631C0.970343 20.5839 0.987593 20.4841 0.995434 20.4413C1.04405 20.1546 1.0613 20.0691 1.09894 19.9091C1.12246 19.8092 1.14598 19.7031 1.15226 19.673C1.19774 19.4623 1.33104 18.8952 1.36554 18.7779C1.38749 18.6987 1.41102 18.6132 1.41886 18.5878C1.56941 18.0033 1.94108 16.85 2.14808 16.3224C2.20454 16.1735 2.29863 15.9359 2.35509 15.7917C2.67815 14.9648 3.24114 13.802 3.76807 12.8768C4.02212 12.4285 4.15855 12.2051 4.55061 11.5857C4.71841 11.3211 5.29552 10.4989 5.48528 10.255C5.55271 10.1679 5.71424 9.96032 5.84283 9.7924C5.973 9.62447 6.17844 9.37259 6.30233 9.23001C6.42465 9.08743 6.59715 8.88624 6.68654 8.78168C6.96882 8.45217 7.64787 7.74403 8.08227 7.32739C8.43198 6.99154 8.80993 6.65094 9.33058 6.19945C9.57836 5.98558 10.3358 5.40101 10.7545 5.09843C11.2109 4.7705 12.042 4.22079 12.3573 4.03703C13.2025 3.54593 13.4895 3.39067 14.1921 3.03423C14.4603 2.89957 15.34 2.50352 15.6286 2.38788C15.787 2.32451 16.0442 2.22312 16.1994 2.15976C16.5883 2.00451 17.6861 1.64172 18.2538 1.48014C18.6396 1.37083 19.1007 1.25518 19.4221 1.18548C19.4519 1.17914 19.5696 1.15221 19.684 1.12528C19.7969 1.09835 19.9318 1.06824 19.982 1.06033C20.0777 1.0429 20.1576 1.02864 20.3866 0.987453C21.0092 0.87339 21.3291 0.825867 21.9156 0.756161C21.9893 0.748241 22.0599 0.738735 22.0725 0.733982C22.1007 0.726063 22.3939 0.699131 22.6684 0.678535C22.7766 0.670616 23.0134 0.651604 23.1937 0.637348C23.3756 0.623089 23.752 0.607246 24.0327 0.60091C24.3135 0.594574 24.5863 0.588238 24.6412 0.586651C24.6945 0.585068 24.7384 0.589821 24.7384 0.59774ZM25.6559 0.607246C25.8378 0.612 26.1263 0.626259 26.2988 0.638931C26.4713 0.653187 26.7081 0.670616 26.8242 0.678535C27.1316 0.700714 27.3448 0.724476 27.7102 0.773586C27.7714 0.781509 27.9125 0.798935 28.0239 0.81319C28.3218 0.851212 28.4975 0.878143 28.7531 0.924084C28.8786 0.947849 29.0762 0.9827 29.1922 1.0033C29.6172 1.08092 29.6392 1.08409 30.1332 1.20132C30.3276 1.24726 30.5566 1.30112 30.6428 1.32172C31.2372 1.45954 32.6266 1.89995 33.2539 2.14708C33.8891 2.39897 34.1917 2.52412 34.4693 2.65086C34.634 2.72531 34.8347 2.8172 34.9163 2.85363C35.0527 2.91383 35.876 3.33047 36.1787 3.49048C36.2916 3.55068 36.9189 3.91029 37.151 4.0497C37.2717 4.12099 37.8253 4.47585 38.1076 4.66278C38.8337 5.14279 39.7887 5.87627 40.5305 6.52421C40.9806 6.91709 40.979 6.91709 41.3774 7.29888C41.8102 7.71552 42.3403 8.2589 42.6429 8.5995C42.8876 8.87515 43.3957 9.47873 43.5823 9.71635C43.7046 9.87319 43.8693 10.0839 43.9477 10.1837C44.0982 10.3738 44.6707 11.1786 44.8259 11.4162C44.9843 11.657 45.3952 12.3097 45.4704 12.4412C45.563 12.5996 45.8954 13.1826 45.9723 13.3204C46.1071 13.5628 46.5776 14.5101 46.7093 14.8095C46.8787 15.1897 46.9022 15.242 46.9634 15.3798C46.9901 15.4369 47.0842 15.6713 47.1751 15.9026C47.2645 16.1339 47.3649 16.3858 47.3947 16.465C47.5248 16.7961 47.8369 17.7593 47.9953 18.3264C48.1333 18.8175 48.2776 19.4005 48.403 19.974C48.4814 20.3289 48.6477 21.319 48.6932 21.6849C48.7214 21.9226 48.7402 22.0715 48.7637 22.2426C48.7826 22.3788 48.8171 22.7654 48.8421 23.1186C48.8516 23.258 48.8672 23.4529 48.8751 23.5527C48.9221 24.1151 48.9206 25.8878 48.8735 26.485C48.8641 26.5943 48.85 26.7749 48.8421 26.889C48.8092 27.3199 48.7935 27.5116 48.7778 27.6336C48.77 27.7033 48.7559 27.8142 48.748 27.8791C48.6916 28.3512 48.6351 28.7774 48.6147 28.8851C48.6006 28.9548 48.5834 29.0514 48.5755 29.099C48.4626 29.739 48.4219 29.9608 48.3779 30.1445C48.356 30.2443 48.3309 30.352 48.3246 30.3821C48.2321 30.821 48.1223 31.2439 47.8761 32.1089C47.8149 32.3275 47.4621 33.3652 47.3633 33.6218C47.1735 34.1145 47.012 34.5216 46.9712 34.6119C46.9493 34.6595 46.8489 34.8844 46.7486 35.111C46.5666 35.5181 46.0899 36.4829 45.9331 36.7585C45.8876 36.8362 45.7825 37.0215 45.6978 37.1704C45.6132 37.3177 45.53 37.4651 45.5144 37.4952C45.4203 37.6663 44.7945 38.6516 44.6942 38.7879C44.6691 38.8227 44.5483 38.9922 44.4291 39.1633C44.3084 39.3344 44.2096 39.4738 44.208 39.4707C44.2065 39.4691 44.0167 39.0889 43.7846 38.6279C43.5541 38.1653 43.2122 37.4809 43.024 37.107C42.8358 36.7316 42.4877 36.033 42.2477 35.5545C42.0078 35.0745 41.6863 34.4329 41.5342 34.1288C41.3805 33.823 41.0669 33.1957 40.8363 32.7347C40.6058 32.2721 40.2812 31.6242 40.1149 31.2931C39.9487 30.962 39.6178 30.2982 39.3779 29.8198C38.6188 28.3005 38.1515 27.3658 37.841 26.7464C37.6748 26.4153 37.347 25.7595 37.1118 25.289C36.6868 24.4398 36.279 23.624 35.6345 22.3344C35.4479 21.9637 35.1186 21.3047 34.9006 20.8691C34.6826 20.4334 34.3517 19.7696 34.1635 19.3958C33.9753 19.0203 33.6413 18.3502 33.4186 17.9066C33.1959 17.4615 32.8713 16.8135 32.6972 16.465C32.5231 16.1165 32.1797 15.4321 31.9366 14.9442C31.6935 14.4563 31.3548 13.7782 31.1839 13.4392C30.7557 12.5853 30.2194 11.5112 29.694 10.4609C29.451 9.973 29.0981 9.26645 28.9099 8.89257C28.7217 8.51712 28.3767 7.82641 28.1415 7.35591C27.9063 6.8854 27.5675 6.20737 27.3888 5.85093C27.21 5.4929 26.8853 4.84496 26.6674 4.40931C26.2659 3.60612 25.9272 2.92967 25.1713 1.41835L24.7526 0.583485L25.0395 0.591404C25.1979 0.596157 25.4755 0.602493 25.6559 0.607246ZM24.8639 5.05408C25.2277 5.70518 25.4583 6.11707 25.8519 6.8252C25.9664 7.02956 26.1357 7.33215 26.2283 7.49849C26.3208 7.66324 26.4792 7.94839 26.5811 8.13216C26.683 8.31434 26.8069 8.53613 26.8556 8.62326C26.9042 8.71039 26.9685 8.82446 26.9967 8.87673C27.0422 8.96228 27.1912 9.22684 27.3809 9.56586C27.5268 9.82408 28.0756 10.8079 28.2121 11.055C28.2921 11.1992 28.4159 11.4194 28.4865 11.5461C28.5571 11.6728 28.6951 11.9184 28.7923 12.0926C28.8895 12.2669 28.9836 12.438 29.004 12.4729C29.0228 12.5077 29.1201 12.682 29.2204 12.861C29.4635 13.2998 29.578 13.5042 29.807 13.9145C29.9152 14.1062 30.0861 14.4119 30.188 14.5957C30.29 14.7779 30.4311 15.0313 30.5017 15.1581C30.5723 15.2848 30.7275 15.562 30.8467 15.7759C31.2043 16.4175 31.6261 17.1747 31.659 17.2333C31.6763 17.2635 31.7657 17.4235 31.8582 17.5898C32.0166 17.8765 32.1938 18.1934 32.5608 18.8492C32.6502 19.0108 32.818 19.3102 32.9309 19.5146C33.0454 19.7189 33.2963 20.1689 33.4892 20.5126C33.6805 20.8564 33.9173 21.281 34.0145 21.4552C34.1118 21.6295 34.2074 21.8006 34.2262 21.8354C34.2466 21.8703 34.3376 22.0335 34.4301 22.1998C34.5211 22.3645 34.681 22.6497 34.783 22.8335C35.2064 23.5907 35.2942 23.7491 35.4416 24.0137C35.5263 24.1658 35.6392 24.3686 35.6925 24.4652C35.7474 24.5602 35.9089 24.8501 36.0532 25.1068C36.1975 25.3634 36.3292 25.5979 36.3465 25.6248L36.3778 25.6771H24.7275C18.3212 25.6771 13.0865 25.6708 13.0975 25.6644C13.1069 25.6581 13.2402 25.4315 13.3939 25.1622C13.546 24.8913 13.7326 24.5634 13.8079 24.4335C13.8832 24.302 14.12 23.8822 14.3332 23.4988C14.7363 22.7749 15.0421 22.2267 15.2695 21.8196C15.3432 21.6881 15.5784 21.2683 15.7917 20.8849C16.3704 19.8473 16.5633 19.5003 16.9051 18.8888C17.0761 18.5831 17.3254 18.1348 17.4619 17.8908C17.5983 17.6468 17.8837 17.1335 18.0986 16.7502C18.3118 16.3668 18.5439 15.9502 18.6145 15.8234C18.6851 15.6967 18.8999 15.3117 19.0928 14.968C19.2841 14.6242 19.5225 14.1965 19.6213 14.0174C19.7201 13.8384 19.8456 13.6135 19.9005 13.5184C19.9977 13.3457 20.0651 13.2238 20.6297 12.2115C20.7881 11.9279 20.9747 11.5936 21.0453 11.4669C21.1158 11.3402 21.257 11.0867 21.3589 10.9045C21.4608 10.7207 21.602 10.4688 21.6726 10.3421C21.7447 10.2154 21.8513 10.0237 21.9125 9.91438C21.9721 9.80507 22.1117 9.55635 22.2214 9.35991C22.3312 9.16347 22.4865 8.88624 22.5664 8.74208C22.6464 8.59792 22.7876 8.34444 22.8801 8.17969C22.9726 8.01335 23.1451 7.70443 23.2643 7.49056C23.5623 6.95511 24.0766 6.03311 24.2052 5.8034C24.2633 5.69884 24.3872 5.47705 24.4797 5.3123C24.5722 5.14596 24.6647 4.9812 24.6867 4.94318C24.7071 4.90675 24.7322 4.87665 24.7431 4.87665C24.7541 4.87665 24.809 4.95744 24.8639 5.05408ZM36.7699 26.39C36.8405 26.5246 36.9565 26.7417 37.0302 26.8732C37.1024 27.0031 37.2247 27.2217 37.3 27.3563C37.4207 27.5718 37.5917 27.8791 38.3193 29.1861C38.5451 29.5901 38.5216 29.5489 38.8321 30.1049C38.9842 30.3742 39.1567 30.6847 39.2179 30.794C39.2791 30.9033 39.3857 31.095 39.4563 31.2218C39.5284 31.3485 39.668 31.6004 39.7699 31.7842C39.8719 31.9663 40.013 32.2198 40.0836 32.3465C40.1557 32.4733 40.2279 32.6016 40.2435 32.6317C40.2608 32.6618 40.2984 32.7299 40.3267 32.7822C40.3549 32.8345 40.3909 32.8978 40.4051 32.9248C40.4897 33.0753 40.7579 33.5569 41.0637 34.105C41.2566 34.4488 41.4244 34.7514 41.4401 34.7783C41.4542 34.8036 41.4856 34.8607 41.5107 34.905C41.5342 34.9478 41.611 35.0872 41.6832 35.2139C41.7537 35.3407 41.829 35.4753 41.851 35.5149C41.8729 35.5545 41.956 35.7035 42.036 35.8476C42.1176 35.9918 42.2587 36.2437 42.3497 36.41C42.4422 36.5748 42.7088 37.0532 42.9409 37.4714C43.1746 37.8896 43.529 38.5233 43.7266 38.8813C43.9257 39.2378 44.0982 39.5435 44.1108 39.5578C44.1375 39.5863 44.1814 39.5245 43.6403 40.2216C43.3282 40.6255 42.7088 41.3448 42.3199 41.7567C42.1348 41.9515 41.9717 42.1258 41.9592 42.1416C41.9059 42.205 41.0135 43.0589 40.8285 43.2236C39.7887 44.1424 38.8431 44.8712 37.9116 45.4732C37.6999 45.611 37.4787 45.7552 37.4176 45.7963C37.2968 45.8787 36.4813 46.354 36.2963 46.4506C36.232 46.4839 36.1175 46.5473 36.0438 46.59C35.9685 46.6328 35.9011 46.6677 35.8917 46.6677C35.8729 46.6677 35.9654 46.4522 36.1536 46.0593C36.2226 45.912 36.2806 45.79 36.2806 45.7868C36.2806 45.7853 36.3543 45.6237 36.4421 45.4288C36.6821 44.906 36.9785 44.1836 37.1573 43.6846C37.3015 43.2822 37.5477 42.4521 37.5822 42.2557C37.5901 42.2113 37.6152 42.0767 37.6371 41.9547C37.7344 41.4224 37.7344 41.4097 37.7563 40.7032C37.7924 39.5816 37.7767 38.9764 37.7061 38.5645C37.6654 38.3364 37.6387 38.1859 37.6058 38.0021C37.554 37.7138 37.3204 36.9074 37.1526 36.4401C36.8907 35.7035 36.6601 35.1632 36.036 33.8246L35.9748 33.6931H26.5701H17.1639V34.3426V34.9922H25.8597H34.5571L34.7735 35.4389C35.0433 35.9965 35.3067 36.5843 35.415 36.8694C35.4416 36.9391 35.5012 37.096 35.5483 37.2179C35.6376 37.4508 35.6753 37.5665 35.7709 37.8912C35.8023 38.0005 35.8415 38.132 35.8572 38.1843C35.8839 38.2683 35.9403 38.5439 36.0203 38.9606C36.0705 39.2267 36.0956 39.7225 36.0862 40.2453C36.0736 40.9725 36.047 41.5903 36.0219 41.725C36.0093 41.7899 35.9952 41.8834 35.9905 41.9309C35.9842 41.9784 35.9732 42.0323 35.967 42.0497C35.9591 42.0672 35.9387 42.1559 35.9215 42.2478C35.8933 42.3967 35.7678 42.8529 35.6831 43.1111C35.6659 43.1634 35.6423 43.2395 35.6298 43.2822C35.6188 43.3234 35.5765 43.4343 35.5373 43.5278C35.4981 43.6212 35.4416 43.7607 35.4118 43.8399C35.382 43.9175 35.3287 44.0458 35.2958 44.125C35.0903 44.6019 35.0637 44.6462 34.8645 44.8427L34.7312 44.9726L26.0448 44.9694C19.6433 44.9662 17.3505 44.9599 17.3348 44.9472C17.3223 44.9377 17.2784 44.9235 17.2345 44.9187C17.1168 44.9013 16.8691 44.8316 16.7797 44.7904C16.7373 44.7698 16.6589 44.7349 16.6072 44.7159C16.4347 44.6478 16.2763 44.5322 16.052 44.3135C15.8607 44.1266 15.8293 44.0886 15.7431 43.9333C15.6898 43.8383 15.6349 43.7211 15.6208 43.6704C15.5972 43.588 15.5957 42.9781 15.5957 36.0235V28.4653L24.7965 28.4684L33.9988 28.4732L34.1478 28.5397C34.4034 28.6522 34.576 28.771 34.7814 28.9786C34.9806 29.1782 35.1358 29.411 35.1358 29.5108C35.1358 29.5425 35.1499 29.5425 35.8101 29.5425H36.4845V28.3702V27.1979H25.452H14.4195V36.9407V46.6835H25.1227C32.2471 46.6835 35.8258 46.6882 35.8258 46.6993C35.8258 46.7073 35.8164 46.7152 35.807 46.7152C35.7851 46.7152 35.7803 46.7183 35.5828 46.8261C35.4087 46.9211 34.9257 47.1588 34.9084 47.1588C34.9021 47.1588 34.852 47.1825 34.4771 47.3552C33.7558 47.691 32.4134 48.1885 31.6073 48.4198C31.4128 48.4752 31.2293 48.5275 31.1996 48.537C30.9047 48.6241 30.7777 48.6574 30.5409 48.7128C30.3903 48.7493 30.2225 48.7873 30.1708 48.7984C30.0485 48.8253 29.8838 48.8649 29.7725 48.8934C29.6721 48.9204 28.6935 49.101 28.4395 49.1406C28.2748 49.1659 27.3621 49.2832 27.2084 49.2974C27.0077 49.318 26.2879 49.3719 25.946 49.394C25.5649 49.4194 23.8775 49.4194 23.5152 49.394C23.3647 49.3845 23.1075 49.3655 22.9428 49.3529C22.7797 49.3402 22.5492 49.3212 22.4331 49.3117C22.3171 49.3037 22.176 49.2895 22.1195 49.2816C22.063 49.2736 21.8733 49.2483 21.6961 49.2261C21.3448 49.1818 20.981 49.1295 20.8571 49.1073C20.8147 49.0994 20.7159 49.082 20.6375 49.0677C20.5607 49.0534 20.4619 49.036 20.418 49.0281C20.3756 49.0202 20.2768 49.0028 20.1984 48.9885C20.1216 48.9742 20.0228 48.9568 19.9789 48.9489C19.8471 48.9267 18.7447 48.6669 18.5675 48.6178C18.1174 48.4911 17.5293 48.3168 17.3521 48.2566C17.236 48.217 16.9882 48.133 16.8032 48.0697C16.1304 47.84 15.2224 47.4597 14.2313 46.9956C14.167 46.9655 14.0666 46.9195 14.0102 46.8926C13.9522 46.8673 13.902 46.8387 13.8957 46.8292C13.8894 46.8197 13.8549 46.7976 13.8189 46.7801C13.7828 46.7627 13.7357 46.7342 13.7138 46.7168L13.6746 46.6835H13.9851H14.294V36.8536V27.0237H25.3893H36.4845V26.4407V25.8593L36.5645 26.0019C36.6084 26.0795 36.7009 26.2553 36.7699 26.39ZM12.9861 46.3302C12.983 46.3334 12.8795 46.2764 12.7556 46.2035C12.6317 46.1306 12.4592 46.0308 12.3729 45.9817C12.2867 45.931 12.086 45.8058 11.926 45.7029C11.766 45.5983 11.5449 45.4542 11.432 45.3829C11.1497 45.2007 10.3546 44.6272 10.052 44.3864C9.91396 44.2771 9.70382 44.1108 9.58463 44.0157C9.22551 43.7321 8.54176 43.1254 8.08697 42.6882C7.67139 42.2874 6.93903 41.5254 6.70222 41.2481C6.63793 41.1721 6.46229 40.9661 6.31017 40.7887C6.15962 40.6113 5.88204 40.2675 5.69385 40.0251C5.38648 39.6275 5.35511 39.5816 5.3755 39.5578C5.39589 39.534 5.59505 39.1792 6.24901 38.0021C6.35878 37.8057 6.52815 37.4999 6.62852 37.3209C6.72888 37.1419 6.97823 36.6936 7.18524 36.3229C7.39225 35.9522 7.62748 35.5324 7.70746 35.3882C7.9129 35.0223 8.27359 34.3759 8.54646 33.8832C8.73622 33.541 9.25374 32.6159 9.34312 32.4574C9.36037 32.4273 9.45447 32.2562 9.55484 32.0772C9.65363 31.8982 9.93435 31.396 10.1774 30.9604C10.4205 30.5247 10.6526 30.1081 10.6949 30.0336C10.7357 29.9592 10.7828 29.8736 10.8 29.8435C10.8188 29.8134 10.9286 29.6138 11.0478 29.4C11.2328 29.0673 11.4571 28.6633 11.57 28.4653C11.5873 28.4352 11.6829 28.2641 11.7817 28.0851C11.8821 27.9061 12.0044 27.6859 12.0562 27.594C12.1063 27.5021 12.1832 27.3674 12.224 27.293C12.2647 27.2185 12.3918 26.9904 12.5062 26.786C12.6207 26.5817 12.776 26.2981 12.8497 26.1555L12.9846 25.8989L12.9893 36.1106C12.9908 41.7281 12.9893 46.327 12.9861 46.3302Z" fill="#FFDD00"/>
</svg>
