<svg width="50" height="50" viewBox="0 0 50 50" fill="none" xmlns="http://www.w3.org/2000/svg">
<path d="M47.6562 30.6452H46.875V29.6903C47.3304 29.5241 47.7249 29.2168 48.0046 28.8103C48.2843 28.4037 48.4355 27.918 48.4375 27.4194C48.4375 26.1355 47.5 24.1936 46.0938 24.1936C44.6875 24.1936 43.75 26.1355 43.75 27.4194C43.752 27.918 43.9032 28.4037 44.1829 28.8103C44.4626 29.2168 44.8571 29.5241 45.3125 29.6903V30.6452H41.4062V29.6903C41.8616 29.5241 42.2562 29.2168 42.5359 28.8103C42.8156 28.4037 42.9667 27.918 42.9688 27.4194C42.9688 26.1355 42.0312 24.1936 40.625 24.1936C39.2188 24.1936 38.2812 26.1355 38.2812 27.4194C38.2833 27.918 38.4344 28.4037 38.7141 28.8103C38.9938 29.2168 39.3884 29.5241 39.8438 29.6903V30.6452H36.7188V12.0968C36.7188 11.8829 36.6364 11.6778 36.4899 11.5265C36.3434 11.3753 36.1447 11.2903 35.9375 11.2903H16.4062V8.06453H33.5938V8.87098C33.5938 9.08486 33.6761 9.28999 33.8226 9.44123C33.9691 9.59247 34.1678 9.67743 34.375 9.67743C34.5822 9.67743 34.7809 9.59247 34.9274 9.44123C35.0739 9.28999 35.1562 9.08486 35.1562 8.87098V7.25808C35.1562 7.04419 35.0739 6.83907 34.9274 6.68783C34.7809 6.53659 34.5822 6.45162 34.375 6.45162H28.9062V4.03227C28.9062 3.81839 28.8239 3.61326 28.6774 3.46202C28.5309 3.31078 28.3322 3.22582 28.125 3.22582H25.7812V2.41937C25.7812 2.20548 25.6989 2.00036 25.5524 1.84912C25.4059 1.69788 25.2072 1.61292 25 1.61292C24.7928 1.61292 24.5941 1.69788 24.4476 1.84912C24.3011 2.00036 24.2188 2.20548 24.2188 2.41937V3.22582H21.875C21.6678 3.22582 21.4691 3.31078 21.3226 3.46202C21.1761 3.61326 21.0938 3.81839 21.0938 4.03227V6.45162H15.625C15.4178 6.45162 15.2191 6.53659 15.0726 6.68783C14.9261 6.83907 14.8438 7.04419 14.8438 7.25808V11.2903H14.0625C13.8553 11.2903 13.6566 11.3753 13.5101 11.5265C13.3636 11.6778 13.2812 11.8829 13.2812 12.0968V30.6452H10.1562V29.6903C10.6116 29.5241 11.0062 29.2168 11.2859 28.8103C11.5656 28.4037 11.7167 27.918 11.7188 27.4194C11.7188 26.1355 10.7812 24.1936 9.375 24.1936C7.96875 24.1936 7.03125 26.1355 7.03125 27.4194C7.03325 27.918 7.18444 28.4037 7.46413 28.8103C7.74382 29.2168 8.13835 29.5241 8.59375 29.6903V30.6452H4.6875V29.6903C5.1429 29.5241 5.53743 29.2168 5.81712 28.8103C6.09681 28.4037 6.248 27.918 6.25 27.4194C6.25 26.1355 5.3125 24.1936 3.90625 24.1936C2.5 24.1936 1.5625 26.1355 1.5625 27.4194C1.5645 27.918 1.71569 28.4037 1.99538 28.8103C2.27507 29.2168 2.6696 29.5241 3.125 29.6903V30.6452H2.34375C2.13655 30.6452 1.93784 30.7301 1.79132 30.8814C1.64481 31.0326 1.5625 31.2377 1.5625 31.4516V49.1936C1.5625 49.4074 1.64481 49.6126 1.79132 49.7638C1.93784 49.915 2.13655 50 2.34375 50C2.55095 50 2.74966 49.915 2.89618 49.7638C3.04269 49.6126 3.125 49.4074 3.125 49.1936V35.4839H10.9375C11.1447 35.4839 11.3434 35.3989 11.4899 35.2477C11.6364 35.0964 11.7188 34.8913 11.7188 34.6774C11.7188 34.4635 11.6364 34.2584 11.4899 34.1072C11.3434 33.9559 11.1447 33.871 10.9375 33.871H3.125V32.2581H13.2812V37.2887C11.8297 37.9911 10.9375 40.5145 10.9375 41.9355C10.9401 42.6486 11.1715 43.3407 11.5955 43.9036C12.0196 44.4665 12.6124 44.8685 13.2812 45.0468V48.3871H10.9375V41.129C10.9375 40.9152 10.8552 40.71 10.7087 40.5588C10.5622 40.4076 10.3635 40.3226 10.1562 40.3226H5.46875C5.26155 40.3226 5.06284 40.4076 4.91632 40.5588C4.76981 40.71 4.6875 40.9152 4.6875 41.129V49.1936C4.6875 49.4074 4.76981 49.6126 4.91632 49.7638C5.06284 49.915 5.26155 50 5.46875 50H16.0063C16.2135 50 16.4122 49.915 16.5587 49.7638C16.7052 49.6126 16.7875 49.4074 16.7875 49.1936C16.7875 48.9797 16.7052 48.7746 16.5587 48.6233C16.4122 48.4721 16.2135 48.3871 16.0063 48.3871H14.8438V45.0468C15.5126 44.8685 16.1054 44.4665 16.5295 43.9036C16.9535 43.3407 17.1849 42.6486 17.1875 41.9355C17.1875 40.5145 16.2953 37.9903 14.8438 37.2887V37.0968H32.8125C33.0197 37.0968 33.2184 37.0118 33.3649 36.8606C33.5114 36.7093 33.5938 36.5042 33.5938 36.2903C33.5938 36.0765 33.5114 35.8713 33.3649 35.7201C33.2184 35.5688 33.0197 35.4839 32.8125 35.4839H14.8438V32.2581H35.1562V37.2887C33.7047 37.9911 32.8125 40.5145 32.8125 41.9355C32.8151 42.6486 33.0465 43.3407 33.4705 43.9036C33.8946 44.4665 34.4874 44.8685 35.1562 45.0468V48.3871H31.25V39.5161C31.25 39.3023 31.1677 39.0971 31.0212 38.9459C30.8747 38.7947 30.676 38.7097 30.4688 38.7097H19.5312C19.324 38.7097 19.1253 38.7947 18.9788 38.9459C18.8323 39.0971 18.75 39.3023 18.75 39.5161V49.1936C18.75 49.4074 18.8323 49.6126 18.9788 49.7638C19.1253 49.915 19.324 50 19.5312 50H44.5312C44.7384 50 44.9372 49.915 45.0837 49.7638C45.2302 49.6126 45.3125 49.4074 45.3125 49.1936V41.129C45.3125 40.9152 45.2302 40.71 45.0837 40.5588C44.9372 40.4076 44.7384 40.3226 44.5312 40.3226H39.8438C39.6366 40.3226 39.4378 40.4076 39.2913 40.5588C39.1448 40.71 39.0625 40.9152 39.0625 41.129V48.3871H36.7188V45.0468C37.3876 44.8685 37.9804 44.4665 38.4045 43.9036C38.8285 43.3407 39.0599 42.6486 39.0625 41.9355C39.0625 40.5145 38.1703 37.9903 36.7188 37.2887V35.4839H46.875V49.1936C46.875 49.4074 46.9573 49.6126 47.1038 49.7638C47.2503 49.915 47.4491 50 47.6562 50C47.8634 50 48.0622 49.915 48.2087 49.7638C48.3552 49.6126 48.4375 49.4074 48.4375 49.1936V31.4516C48.4375 31.2377 48.3552 31.0326 48.2087 30.8814C48.0622 30.7301 47.8634 30.6452 47.6562 30.6452ZM46.0938 25.8065C46.3461 25.8411 46.875 26.7581 46.875 27.4194C46.875 27.6333 46.7927 27.8384 46.6462 27.9896C46.4997 28.1409 46.3009 28.2258 46.0938 28.2258C45.8866 28.2258 45.6878 28.1409 45.5413 27.9896C45.3948 27.8384 45.3125 27.6333 45.3125 27.4194C45.3125 26.7581 45.8438 25.8411 46.0938 25.8065ZM40.625 25.8065C40.8773 25.8411 41.4062 26.7581 41.4062 27.4194C41.4062 27.6333 41.3239 27.8384 41.1774 27.9896C41.0309 28.1409 40.8322 28.2258 40.625 28.2258C40.4178 28.2258 40.2191 28.1409 40.0726 27.9896C39.9261 27.8384 39.8438 27.6333 39.8438 27.4194C39.8438 26.7581 40.375 25.8411 40.625 25.8065ZM27.3438 6.45162H25.7812V4.83872H27.3438V6.45162ZM22.6562 4.83872H24.2188V6.45162H22.6562V4.83872ZM9.375 25.8065C9.62734 25.8411 10.1562 26.7581 10.1562 27.4194C10.1562 27.6333 10.0739 27.8384 9.92743 27.9896C9.78091 28.1409 9.5822 28.2258 9.375 28.2258C9.1678 28.2258 8.96909 28.1409 8.82257 27.9896C8.67606 27.8384 8.59375 27.6333 8.59375 27.4194C8.59375 26.7581 9.125 25.8411 9.375 25.8065ZM3.90625 25.8065C4.15859 25.8411 4.6875 26.7581 4.6875 27.4194C4.6875 27.6333 4.60519 27.8384 4.45868 27.9896C4.31216 28.1409 4.11345 28.2258 3.90625 28.2258C3.69905 28.2258 3.50034 28.1409 3.35382 27.9896C3.20731 27.8384 3.125 27.6333 3.125 27.4194C3.125 26.7581 3.65625 25.8411 3.90625 25.8065ZM6.25 41.9355H9.375V48.3871H6.25V41.9355ZM20.3125 40.3226H24.2188V43.5484H23.4375C23.2303 43.5484 23.0316 43.6334 22.8851 43.7846C22.7386 43.9358 22.6562 44.141 22.6562 44.3549C22.6562 44.5687 22.7386 44.7739 22.8851 44.9251C23.0316 45.0763 23.2303 45.1613 23.4375 45.1613H24.2188V48.3871H20.3125V40.3226ZM25.7812 48.3871V45.1613H26.5625C26.7697 45.1613 26.9684 45.0763 27.1149 44.9251C27.2614 44.7739 27.3438 44.5687 27.3438 44.3549C27.3438 44.141 27.2614 43.9358 27.1149 43.7846C26.9684 43.6334 26.7697 43.5484 26.5625 43.5484H25.7812V40.3226H29.6875V48.3871H25.7812ZM40.625 41.9355H43.75V48.3871H40.625V41.9355ZM35.1562 12.9032V20.9678H14.8438V17.7419H32.8125C33.0197 17.7419 33.2184 17.657 33.3649 17.5057C33.5114 17.3545 33.5938 17.1494 33.5938 16.9355C33.5938 16.7216 33.5114 16.5165 33.3649 16.3652C33.2184 16.214 33.0197 16.129 32.8125 16.129H14.8438V12.9032H35.1562ZM14.0625 43.5484C13.6481 43.5484 13.2507 43.3785 12.9576 43.076C12.6646 42.7735 12.5 42.3633 12.5 41.9355C12.5 40.7258 13.4781 38.7097 14.0625 38.7097C14.6469 38.7097 15.625 40.7258 15.625 41.9355C15.625 42.3633 15.4604 42.7735 15.1674 43.076C14.8743 43.3785 14.4769 43.5484 14.0625 43.5484ZM14.8438 27.4194H18.6164C18.8236 27.4194 19.0223 27.3344 19.1688 27.1832C19.3153 27.0319 19.3977 26.8268 19.3977 26.6129C19.3977 26.399 19.3153 26.1939 19.1688 26.0427C19.0223 25.8914 18.8236 25.8065 18.6164 25.8065H14.8438V22.5807H35.1562V25.8065H21.5133C21.3061 25.8065 21.1074 25.8914 20.9609 26.0427C20.8143 26.1939 20.732 26.399 20.732 26.6129C20.732 26.8268 20.8143 27.0319 20.9609 27.1832C21.1074 27.3344 21.3061 27.4194 21.5133 27.4194H35.1562V30.6452H14.8438V27.4194ZM35.9375 43.5484C35.5231 43.5484 35.1257 43.3785 34.8326 43.076C34.5396 42.7735 34.375 42.3633 34.375 41.9355C34.375 40.7258 35.3531 38.7097 35.9375 38.7097C36.5219 38.7097 37.5 40.7258 37.5 41.9355C37.5 42.3633 37.3354 42.7735 37.0424 43.076C36.7493 43.3785 36.3519 43.5484 35.9375 43.5484ZM36.7188 33.871V32.2581H46.875V33.871H36.7188Z" fill="#FFDD00"/>
</svg>
