<svg width="51" height="45" viewBox="0 0 51 45" fill="none" xmlns="http://www.w3.org/2000/svg">
<path d="M43.9872 44.9675H6.98975C3.65469 44.9675 0.930664 42.2435 0.930664 38.9084V16.161C0.930664 12.8259 3.65404 10.1019 6.98975 10.1019H16.3924V8.98958C16.3924 -3.11237 34.5846 -2.85068 34.5846 8.98958V10.1019H43.9872C47.3229 10.1019 50.0462 12.8259 50.0462 16.161V38.9084C50.0462 42.2435 47.3222 44.9675 43.9872 44.9675ZM32.0261 8.98958C32.0261 0.292829 18.9514 0.484387 18.9514 8.98958V10.1019H32.0261V8.98958ZM47.4872 30.5792H3.48976V34.4117H47.4872V30.5792ZM44.9385 20.3169C42.1268 20.3169 39.8313 18.0214 39.8313 15.2097V12.661H11.1456V15.2097C11.1456 18.0214 8.85014 20.3169 6.03846 20.3169H3.48976V28.0201H47.4872V20.3169H44.9385ZM3.48976 38.9084C3.48976 40.8305 5.06768 42.4084 6.98975 42.4084H43.9872C45.9099 42.4084 47.4872 40.8312 47.4872 38.9084V36.9701H3.48976V38.9084ZM6.03846 17.7578C7.43716 17.7578 8.58651 16.6084 8.58651 15.2097V12.661H6.98975C5.06703 12.661 3.48976 14.2383 3.48976 16.161V17.7578H6.03846ZM42.3904 15.2097C42.3904 16.6084 43.5398 17.7578 44.9385 17.7578H47.4872V16.161C47.4872 14.2383 45.9099 12.661 43.9872 12.661H42.3904V15.2097Z" fill="#FFDD00"/>
</svg>
