<?xml version="1.0" standalone="no"?>
<!DOCTYPE svg PUBLIC "-//W3C//DTD SVG 20010904//EN"
 "http://www.w3.org/TR/2001/REC-SVG-20010904/DTD/svg10.dtd">
<svg version="1.0" xmlns="http://www.w3.org/2000/svg"
 width="568.000000pt" height="568.000000pt" viewBox="0 0 568.000000 568.000000"
 preserveAspectRatio="xMidYMid meet">
<metadata>
Created by potrace 1.14, written by Peter Selinger 2001-2017
</metadata>
<g transform="translate(0.000000,568.000000) scale(0.100000,-0.100000)"
fill="#000000" stroke="none">
<path d="M2678 5665 c-2 -1 -41 -6 -88 -10 -47 -4 -101 -9 -120 -11 -49 -5
-192 -31 -210 -38 -8 -3 -26 -7 -40 -10 -166 -29 -434 -127 -649 -237 -182
-93 -445 -271 -562 -379 -304 -282 -501 -536 -660 -850 -47 -93 -109 -227
-109 -235 0 -2 -5 -16 -12 -32 -6 -15 -12 -32 -14 -38 -1 -5 -19 -59 -38 -119
-20 -60 -38 -118 -40 -130 -2 -11 -13 -57 -24 -101 -11 -44 -26 -114 -32 -155
-7 -41 -14 -84 -16 -94 -19 -102 -26 -548 -11 -675 16 -138 30 -222 47 -301 6
-25 12 -56 15 -69 2 -13 16 -65 31 -115 14 -50 27 -95 29 -101 3 -12 6 -20 63
-170 152 -397 427 -790 758 -1085 74 -67 192 -160 202 -160 6 0 12 -4 14 -8 3
-10 154 -112 228 -156 144 -85 491 -236 601 -261 13 -3 58 -14 99 -25 71 -20
222 -52 300 -64 93 -14 223 -21 410 -21 205 0 319 8 440 30 166 30 164 30 240
50 255 65 552 192 767 326 78 50 265 184 314 225 177 154 297 278 430 444 53
66 159 219 159 230 0 4 3 10 8 12 4 2 18 23 31 48 14 25 27 47 30 50 13 10
110 208 146 293 56 137 134 372 149 451 2 6 8 36 14 66 13 60 19 96 28 150 3
19 7 45 9 57 14 85 20 208 20 398 0 219 -7 312 -31 455 -4 19 -8 44 -9 55 -28
200 -158 579 -272 792 -66 124 -196 336 -223 363 -3 3 -25 32 -50 65 -25 33
-49 65 -55 71 -5 6 -41 46 -80 89 -59 66 -136 143 -250 250 -12 11 -37 32 -56
46 -19 15 -45 37 -59 49 -14 12 -37 29 -52 38 -16 9 -28 20 -28 24 0 4 -5 8
-11 8 -6 0 -28 14 -49 30 -21 17 -42 30 -48 30 -5 0 -15 7 -22 15 -7 8 -24 21
-39 28 -39 20 -75 41 -81 48 -3 3 -47 27 -98 52 -51 26 -99 50 -105 54 -7 4
-14 8 -17 8 -3 1 -23 9 -45 19 -226 100 -544 189 -760 211 -27 3 -70 8 -95 11
-43 6 -417 14 -422 9z m304 -70 c73 -3 142 -7 153 -9 12 -2 48 -8 80 -12 33
-4 62 -8 65 -9 3 -1 25 -5 50 -9 158 -28 384 -94 540 -159 73 -30 284 -134
325 -159 288 -181 399 -268 590 -462 157 -159 277 -314 392 -506 60 -100 173
-319 173 -335 0 -3 9 -24 20 -48 69 -149 156 -483 184 -707 27 -215 25 -527
-5 -720 -6 -36 -12 -77 -14 -93 -6 -36 -12 -67 -19 -97 -3 -14 -8 -36 -10 -50
-2 -14 -14 -59 -26 -100 -12 -41 -23 -84 -25 -95 -13 -59 -105 -289 -170 -420
-70 -143 -225 -396 -242 -394 -4 0 -500 985 -1102 2190 -601 1204 -1097 2189
-1101 2189 -4 0 -243 -471 -531 -1047 -288 -577 -527 -1051 -532 -1054 -5 -3
-8 -9 -7 -13 1 -4 -254 -518 -566 -1142 l-568 -1135 -80 124 c-96 146 -178
300 -239 452 -43 104 -102 273 -112 319 -2 12 -10 46 -18 76 -53 209 -80 425
-80 650 0 116 9 296 18 360 21 139 30 187 51 280 82 355 230 685 437 980 54
76 79 109 167 215 54 65 270 274 350 338 142 114 346 244 515 328 89 43 168
79 176 79 8 0 19 4 24 8 18 15 293 105 359 118 12 2 53 10 91 18 129 28 269
45 400 52 71 3 132 7 134 9 2 3 7 2 12 -1 5 -2 68 -7 141 -9z m-77 -592 c33
-59 79 -141 103 -183 23 -41 49 -88 57 -105 8 -16 20 -37 25 -45 5 -8 36 -62
68 -120 71 -127 249 -448 284 -510 14 -25 58 -103 98 -175 40 -71 87 -155 103
-185 17 -30 101 -181 187 -335 86 -154 185 -332 220 -395 35 -63 72 -130 82
-148 10 -18 18 -34 18 -36 0 -2 -591 -3 -1313 -3 l-1314 1 50 85 c27 47 62
110 78 139 69 124 89 160 121 217 19 33 37 67 41 75 4 8 13 24 20 35 7 11 54
97 106 190 52 94 131 235 176 315 45 80 98 174 117 210 19 36 44 81 55 100 11
19 31 55 45 80 14 25 56 99 93 165 37 66 83 149 103 185 19 36 38 70 42 75 4
6 24 42 45 80 51 95 126 229 161 290 16 28 36 62 43 78 8 15 17 27 20 27 4 0
33 -48 66 -107z m1310 -2348 c34 -61 110 -199 200 -360 15 -27 39 -70 53 -95
13 -25 32 -58 42 -75 10 -16 31 -55 48 -85 16 -30 71 -128 121 -218 50 -90 91
-168 91 -173 0 -5 4 -9 9 -9 5 0 11 -8 14 -17 6 -17 22 -47 129 -238 119 -210
112 -193 92 -223 -10 -15 -22 -32 -28 -38 -6 -6 -29 -33 -51 -59 -110 -132
-253 -275 -360 -360 -27 -22 -59 -48 -70 -58 -54 -49 -391 -265 -400 -255 -1
1 10 30 27 63 44 90 115 273 143 366 37 124 51 341 31 489 -8 58 -47 201 -70
260 -55 137 -123 280 -136 282 -8 2 -487 4 -1065 3 l-1050 0 -3 -72 -3 -73 28
-1 c15 0 459 -1 985 -1 l957 0 41 -86 c98 -203 134 -337 132 -497 -1 -149 -4
-180 -27 -270 -42 -160 -101 -275 -142 -275 -10 0 -452 0 -983 0 -1063 0
-1031 -2 -1098 62 -72 66 -66 -11 -67 932 -1 468 0 856 2 861 3 8 327 11 1046
10 l1042 0 36 -22 c20 -13 45 -35 55 -49 35 -48 40 -50 110 -50 l69 1 3 133 3
132 -1248 -2 -1248 -3 0 -1100 0 -1100 1202 0 c662 0 1203 -3 1203 -6 0 -8
-246 -119 -263 -119 -7 0 -17 -4 -22 -8 -24 -21 -338 -111 -439 -126 -21 -4
-41 -8 -45 -10 -3 -2 -34 -7 -68 -11 -35 -4 -75 -9 -90 -11 -169 -22 -460 -22
-643 1 -271 33 -523 105 -793 225 -64 29 -117 56 -117 59 0 4 12 7 27 7 l28
-1 2 1075 c1 591 2 1092 2 1113 l1 37 1255 0 1255 0 0 62 c0 34 2 59 4 57 2
-2 21 -35 41 -74z m-2709 -2222 c-13 -13 -291 177 -420 287 -146 124 -341 330
-414 437 l-23 34 129 232 c72 128 142 255 157 282 16 28 57 102 93 165 36 63
75 133 87 155 12 22 45 83 75 135 29 52 67 120 83 150 17 30 38 69 48 85 9 17
34 62 54 100 21 39 40 72 44 75 3 3 20 32 36 65 16 33 34 65 40 71 7 8 11
-349 13 -1129 1 -627 0 -1142 -2 -1144z"/>
</g>
</svg>
