<svg width="100" height="100" viewBox="0 0 100 100" fill="none" xmlns="http://www.w3.org/2000/svg">
<circle cx="50" cy="50" r="49.5" stroke="#FFDD00"/>
<mask id="path-2-inside-1_246_3888" fill="white">
<path d="M38.6998 55.1836H47.7968V58.551H47.3311C46.9985 58.551 46.7243 58.8109 46.7068 59.1431L46.0812 71.1086C46.0812 73.2544 47.8264 75 49.9717 75C52.1176 75 53.8623 73.2543 53.8618 71.0763L53.2367 59.1432C53.2192 58.8114 52.945 58.5511 52.6123 58.5511H52.1463V55.1837H61.2689C62.1884 55.1837 63.0359 54.7229 63.5351 53.9512C64.0343 53.1795 64.1084 52.2183 63.7313 51.3794L52.6241 26.6393C52.1724 25.6322 51.2054 25.0036 50.1015 25H50.091C48.9915 25 48.025 25.6199 47.5668 26.6213L36.2464 51.3615C35.8619 52.2007 35.9308 53.1664 36.4295 53.9428C36.9274 54.7197 37.7771 55.184 38.7001 55.184L38.6998 55.1836ZM49.9722 73.7496C48.5161 73.7496 47.3316 72.5646 47.3302 71.1416L47.9245 59.8H52.0195L52.6124 71.1082C52.6128 72.5643 51.4274 73.7492 49.9722 73.7492L49.9722 73.7496ZM49.0471 58.5497V48.4121C49.0471 47.9029 49.4621 47.4879 49.9722 47.4879C50.4823 47.4879 50.8965 47.9029 50.8965 48.4121V58.5497H49.0471ZM37.3818 51.8807L48.7033 27.1394C48.9601 26.5792 49.5007 26.25 50.0962 26.2483C50.7127 26.2509 51.2306 26.5875 51.483 27.149L62.5906 51.8891C62.7955 52.346 62.7576 52.8496 62.4851 53.2703C62.2126 53.691 61.7697 53.9321 61.2683 53.9321L52.1466 53.9316V48.4114C52.1466 47.2121 51.1709 46.2373 49.9725 46.2373C48.7732 46.2373 47.7975 47.213 47.7975 48.4114V53.9316H38.6997C38.1965 53.9316 37.7523 53.6884 37.4802 53.2659C37.209 52.8422 37.1729 52.3378 37.3821 51.88L37.3818 51.8807Z"/>
</mask>
<path d="M38.6998 55.1836H47.7968V58.551H47.3311C46.9985 58.551 46.7243 58.8109 46.7068 59.1431L46.0812 71.1086C46.0812 73.2544 47.8264 75 49.9717 75C52.1176 75 53.8623 73.2543 53.8618 71.0763L53.2367 59.1432C53.2192 58.8114 52.945 58.5511 52.6123 58.5511H52.1463V55.1837H61.2689C62.1884 55.1837 63.0359 54.7229 63.5351 53.9512C64.0343 53.1795 64.1084 52.2183 63.7313 51.3794L52.6241 26.6393C52.1724 25.6322 51.2054 25.0036 50.1015 25H50.091C48.9915 25 48.025 25.6199 47.5668 26.6213L36.2464 51.3615C35.8619 52.2007 35.9308 53.1664 36.4295 53.9428C36.9274 54.7197 37.7771 55.184 38.7001 55.184L38.6998 55.1836ZM49.9722 73.7496C48.5161 73.7496 47.3316 72.5646 47.3302 71.1416L47.9245 59.8H52.0195L52.6124 71.1082C52.6128 72.5643 51.4274 73.7492 49.9722 73.7492L49.9722 73.7496ZM49.0471 58.5497V48.4121C49.0471 47.9029 49.4621 47.4879 49.9722 47.4879C50.4823 47.4879 50.8965 47.9029 50.8965 48.4121V58.5497H49.0471ZM37.3818 51.8807L48.7033 27.1394C48.9601 26.5792 49.5007 26.25 50.0962 26.2483C50.7127 26.2509 51.2306 26.5875 51.483 27.149L62.5906 51.8891C62.7955 52.346 62.7576 52.8496 62.4851 53.2703C62.2126 53.691 61.7697 53.9321 61.2683 53.9321L52.1466 53.9316V48.4114C52.1466 47.2121 51.1709 46.2373 49.9725 46.2373C48.7732 46.2373 47.7975 47.213 47.7975 48.4114V53.9316H38.6997C38.1965 53.9316 37.7523 53.6884 37.4802 53.2659C37.209 52.8422 37.1729 52.3378 37.3821 51.88L37.3818 51.8807Z" fill="#FFDD00"/>
<path d="M38.6998 55.1836V53.1836H35.273L36.9584 56.1673L38.6998 55.1836ZM47.7968 55.1836H49.7968V53.1836H47.7968V55.1836ZM47.7968 58.551V60.551H49.7968V58.551H47.7968ZM46.7068 59.1431L44.7096 59.0382L44.7095 59.0386L46.7068 59.1431ZM46.0812 71.1086L44.0839 71.0041L44.0812 71.0563V71.1086H46.0812ZM53.8618 71.0763L55.8618 71.0759L55.8618 71.0237L55.8591 70.9717L53.8618 71.0763ZM53.2367 59.1432L55.2339 59.0385L55.2339 59.0382L53.2367 59.1432ZM52.1463 58.5511H50.1463V60.5511H52.1463V58.5511ZM52.1463 55.1837V53.1837H50.1463V55.1837H52.1463ZM63.5351 53.9512L65.2143 55.0376L65.2144 55.0375L63.5351 53.9512ZM63.7313 51.3794L61.9067 52.1986L61.9071 52.1995L63.7313 51.3794ZM52.6241 26.6393L50.7992 27.4577L50.7995 27.4584L52.6241 26.6393ZM50.1015 25L50.108 23H50.1015V25ZM47.5668 26.6213L49.3855 27.4535L49.3855 27.4534L47.5668 26.6213ZM36.2464 51.3615L38.0646 52.1945L38.0651 52.1936L36.2464 51.3615ZM36.4295 53.9428L38.1134 52.8637L38.1123 52.862L36.4295 53.9428ZM38.7001 55.184V57.184H42.1269L40.4414 54.2004L38.7001 55.184ZM49.9722 73.7496V75.7496H52.1844L51.9621 73.5486L49.9722 73.7496ZM47.3302 71.1416L45.333 71.037L45.3302 71.0902L45.3302 71.1435L47.3302 71.1416ZM47.9245 59.8V57.8H46.0265L45.9272 59.6954L47.9245 59.8ZM52.0195 59.8L54.0167 59.6953L53.9173 57.8H52.0195V59.8ZM52.6124 71.1082L54.6124 71.1076L54.6124 71.0555L54.6096 71.0034L52.6124 71.1082ZM49.9722 73.7492V71.7492H47.76L47.9823 73.9502L49.9722 73.7492ZM49.0471 58.5497H47.0471V60.5497H49.0471V58.5497ZM50.8965 58.5497V60.5497H52.8965V58.5497H50.8965ZM37.3818 51.8807L35.5614 51.0524L39.2005 52.7129L37.3818 51.8807ZM48.7033 27.1394L46.8852 26.306L46.8847 26.3072L48.7033 27.1394ZM50.0962 26.2483L50.1047 24.2483L50.0975 24.2483L50.0904 24.2483L50.0962 26.2483ZM51.483 27.149L53.3076 26.3298L53.3072 26.3289L51.483 27.149ZM62.5906 51.8891L64.4155 51.0707L64.4151 51.07L62.5906 51.8891ZM62.4851 53.2703L60.8064 52.1831L60.8064 52.1831L62.4851 53.2703ZM61.2683 53.9321L61.2682 55.9321H61.2683V53.9321ZM52.1466 53.9316H50.1466V55.9316L52.1465 55.9316L52.1466 53.9316ZM47.7975 53.9316V55.9316H49.7975V53.9316H47.7975ZM37.4802 53.2659L35.7956 54.3439L35.7988 54.3488L37.4802 53.2659ZM37.3821 51.88L39.2026 52.7083L35.5632 51.0485L37.3821 51.88ZM38.6998 57.1836H47.7968V53.1836H38.6998V57.1836ZM45.7968 55.1836V58.551H49.7968V55.1836H45.7968ZM47.7968 56.551H47.3311V60.551H47.7968V56.551ZM47.3311 56.551C45.9362 56.551 44.7829 57.6421 44.7096 59.0382L48.7041 59.2479C48.6657 59.9796 48.0608 60.551 47.3311 60.551V56.551ZM44.7095 59.0386L44.0839 71.0041L48.0785 71.213L48.7041 59.2475L44.7095 59.0386ZM44.0812 71.1086C44.0812 74.3586 46.7214 77 49.9717 77V73C48.9314 73 48.0812 72.1503 48.0812 71.1086H44.0812ZM49.9717 77C53.2335 77 55.8625 74.3475 55.8618 71.0759L51.8618 71.0767C51.8621 72.1612 51.0018 73 49.9717 73V77ZM55.8591 70.9717L55.2339 59.0385L51.2394 59.2478L51.8646 71.1809L55.8591 70.9717ZM55.2339 59.0382C55.1606 57.6436 54.0082 56.5511 52.6123 56.5511V60.5511C51.8817 60.5511 51.2778 59.9792 51.2394 59.2482L55.2339 59.0382ZM52.6123 56.5511H52.1463V60.5511H52.6123V56.5511ZM54.1463 58.5511V55.1837H50.1463V58.5511H54.1463ZM52.1463 57.1837H61.2689V53.1837H52.1463V57.1837ZM61.2689 57.1837C62.8662 57.1837 64.3462 56.3794 65.2143 55.0376L61.8559 52.8649C61.7255 53.0663 61.5105 53.1837 61.2689 53.1837V57.1837ZM65.2144 55.0375C66.0813 53.6974 66.2114 52.0185 65.5554 50.5594L61.9071 52.1995C62.0054 52.4181 61.9873 52.6617 61.8558 52.8649L65.2144 55.0375ZM65.5558 50.5603L54.4486 25.8202L50.7995 27.4584L61.9067 52.1986L65.5558 50.5603ZM54.4489 25.8209C53.6759 24.0973 51.9978 23.0061 50.108 23L50.095 27C50.413 27.001 50.6689 27.1671 50.7992 27.4577L54.4489 25.8209ZM50.1015 23H50.091V27H50.1015V23ZM50.091 23C48.2093 23 46.5319 24.0761 45.7481 25.7892L49.3855 27.4534C49.518 27.1638 49.7738 27 50.091 27V23ZM45.7481 25.7892L34.4278 50.5293L38.0651 52.1936L49.3855 27.4535L45.7481 25.7892ZM34.4282 50.5284C33.7595 51.9877 33.8802 53.6747 34.7467 55.0237L38.1123 52.862C37.9813 52.6581 37.9642 52.4137 38.0646 52.1945L34.4282 50.5284ZM34.7456 55.022C35.6116 56.3732 37.0962 57.184 38.7001 57.184V53.184C38.4579 53.184 38.2432 53.0662 38.1134 52.8637L34.7456 55.022ZM40.4414 54.2004L40.4412 54.1999L36.9584 56.1673L36.9587 56.1677L40.4414 54.2004ZM49.9722 71.7496C49.605 71.7496 49.3305 71.4441 49.3302 71.1398L45.3302 71.1435C45.3326 73.6852 47.4271 75.7496 49.9722 75.7496V71.7496ZM49.3275 71.2463L49.9217 59.9047L45.9272 59.6954L45.333 71.037L49.3275 71.2463ZM47.9245 61.8H52.0195V57.8H47.9245V61.8ZM50.0222 59.9048L50.6151 71.2129L54.6096 71.0034L54.0167 59.6953L50.0222 59.9048ZM50.6124 71.1088C50.6125 71.4598 50.323 71.7492 49.9722 71.7492V75.7492C52.5319 75.7492 54.6131 73.6688 54.6124 71.1076L50.6124 71.1088ZM47.9823 73.9502L47.9823 73.9506L51.9621 73.5486L51.9621 73.5482L47.9823 73.9502ZM51.0471 58.5497V48.4121H47.0471V58.5497H51.0471ZM51.0471 48.4121C51.0471 49.0087 50.5654 49.4879 49.9722 49.4879V45.4879C48.3588 45.4879 47.0471 46.7971 47.0471 48.4121H51.0471ZM49.9722 49.4879C49.3765 49.4879 48.8965 49.0062 48.8965 48.4121H52.8965C52.8965 46.7996 51.5881 45.4879 49.9722 45.4879V49.4879ZM48.8965 48.4121V58.5497H52.8965V48.4121H48.8965ZM50.8965 56.5497H49.0471V60.5497H50.8965V56.5497ZM39.2005 52.7129L50.522 27.9716L46.8847 26.3072L35.5632 51.0485L39.2005 52.7129ZM50.5214 27.9728C50.4873 28.0473 50.4249 28.1223 50.3402 28.1757C50.2579 28.2277 50.1728 28.2481 50.102 28.2483L50.0904 24.2483C48.7436 24.2522 47.4787 25.0113 46.8852 26.306L50.5214 27.9728ZM50.0877 28.2483C50.0281 28.248 49.9336 28.2293 49.8366 28.1663C49.7397 28.1033 49.6837 28.0243 49.6589 27.9691L53.3072 26.3289C52.7329 25.0516 51.5047 24.2542 50.1047 24.2483L50.0877 28.2483ZM49.6585 27.9682L60.7661 52.7083L64.4151 51.07L53.3076 26.3298L49.6585 27.9682ZM60.7657 52.7075C60.7354 52.64 60.7146 52.5473 60.7226 52.4415C60.7307 52.3356 60.7655 52.2463 60.8064 52.1831L64.1638 54.3575C64.806 53.3659 64.8972 52.1448 64.4155 51.0707L60.7657 52.7075ZM60.8064 52.1831C60.8465 52.1212 60.9131 52.0531 61.0068 52.0021C61.1005 51.9511 61.1942 51.9321 61.2683 51.9321V55.9321C62.4484 55.9321 63.523 55.3469 64.1638 54.3575L60.8064 52.1831ZM61.2684 51.9321L52.1467 51.9316L52.1465 55.9316L61.2682 55.9321L61.2684 51.9321ZM54.1466 53.9316V48.4114H50.1466V53.9316H54.1466ZM54.1466 48.4114C54.1466 46.1069 52.2749 44.2373 49.9725 44.2373V48.2373C50.0669 48.2373 50.1466 48.3172 50.1466 48.4114H54.1466ZM49.9725 44.2373C47.6691 44.2373 45.7975 46.1079 45.7975 48.4114H49.7975C49.7975 48.3181 49.8772 48.2373 49.9725 48.2373V44.2373ZM45.7975 48.4114V53.9316H49.7975V48.4114H45.7975ZM47.7975 51.9316H38.6997V55.9316H47.7975V51.9316ZM38.6997 51.9316C38.7747 51.9316 38.8687 51.951 38.9622 52.0021C39.0556 52.0531 39.1219 52.1212 39.1617 52.183L35.7988 54.3488C36.4378 55.3411 37.5144 55.9316 38.6997 55.9316V51.9316ZM39.1648 52.1879C39.2039 52.2489 39.2384 52.3374 39.246 52.444C39.2536 52.5508 39.2319 52.6442 39.2011 52.7115L35.5632 51.0485C35.0706 52.1261 35.1593 53.3495 35.7956 54.3439L39.1648 52.1879ZM35.5617 51.0517L35.5614 51.0524L39.2022 52.709L39.2026 52.7083L35.5617 51.0517Z" fill="#FFDD00" mask="url(#path-2-inside-1_246_3888)"/>
</svg>
