<svg width="72" height="69" viewBox="0 0 72 69" fill="none" xmlns="http://www.w3.org/2000/svg">
<path d="M11.3393 68.9803V68.9857C11.369 68.9857 11.3982 68.9841 11.4278 68.9836C11.4636 68.985 11.4999 68.9857 11.5367 68.9857H55.3558H58.9808H60.0346C63.58 68.9857 66.4645 66.1006 66.4645 62.5544V61.6589H59.8763V31.7962C60.0387 31.7674 60.2002 31.7359 60.3616 31.7015C60.387 31.696 60.4124 31.6915 60.4381 31.686L60.4378 31.685C60.7316 31.6206 61.024 31.5502 61.3125 31.4675L60.8196 29.7457C60.5599 29.82 60.2969 29.8833 60.0325 29.9408C58.7942 30.2082 57.5585 30.2808 56.3566 30.18C56.3312 30.1778 56.3058 30.1762 56.2805 30.1738C56.0927 30.1569 55.9061 30.136 55.7202 30.1106C55.7113 30.1094 55.7027 30.1085 55.6939 30.1074C51.6748 29.5514 48.1166 27.0488 46.256 23.3957C46.2339 23.352 46.2122 23.3075 46.1906 23.2635C46.1276 23.1362 46.0667 23.0078 46.0078 22.8778C45.979 22.8138 45.9509 22.7496 45.9233 22.6851C45.8722 22.5675 45.8236 22.4488 45.7761 22.3293C45.7543 22.2741 45.7318 22.2191 45.7106 22.1636C45.4946 21.5935 45.3164 21.0011 45.1827 20.3878C45.0454 19.7582 44.9585 19.1291 44.9191 18.5048C44.9191 18.5015 44.9188 18.4981 44.9185 18.4945C44.854 17.459 44.9209 16.4368 45.1057 15.4466C45.1091 15.4282 45.113 15.4099 45.1164 15.3917C45.1503 15.2157 45.1876 15.0406 45.2287 14.8668C45.2342 14.8432 45.24 14.8196 45.2458 14.7959C45.2887 14.6193 45.3351 14.4441 45.3852 14.27C45.3887 14.2584 45.3919 14.2469 45.3954 14.2354C46.2393 11.3514 48.1076 8.83108 50.6657 7.19317C50.6825 7.18228 50.6996 7.17108 50.7167 7.16019C51.3596 6.75287 52.0466 6.40347 52.7705 6.11556C52.8634 6.07855 52.957 6.04302 53.0509 6.0081C53.1509 5.97108 53.2518 5.93526 53.3528 5.90063C53.4275 5.87511 53.5018 5.84959 53.5767 5.82556C53.6131 5.81392 53.6505 5.80392 53.6869 5.79258L55.4779 5.3769C55.9973 5.29556 56.5175 5.24735 57.036 5.23138C57.1075 5.22929 57.1782 5.22616 57.2497 5.22526C57.3322 5.22422 57.4145 5.22616 57.4966 5.22661C57.9624 5.23078 58.4291 5.2584 58.8897 5.31422L58.89 5.31258C59.5818 5.39541 60.2651 5.5369 60.934 5.73556L60.9331 5.73795C61.5693 5.92616 62.193 6.16825 62.7915 6.45467C63.2539 6.6772 63.7069 6.92601 64.1452 7.2075C64.6585 7.53705 65.1422 7.90034 65.5952 8.29258C65.6421 8.33332 65.6879 8.37541 65.7343 8.4169C65.8261 8.49884 65.9169 8.58168 66.006 8.66601C66.0721 8.72869 66.1372 8.79243 66.2016 8.85646C66.7342 9.38317 67.2173 9.95302 67.6434 10.563L67.6408 10.5648C68.0433 11.1423 68.4002 11.76 68.7012 12.4009L68.7015 12.4006C68.7902 12.5894 68.8737 12.7806 68.9528 12.9744C69.0134 13.1218 69.0712 13.2705 69.1263 13.4202C69.1443 13.4702 69.1615 13.5206 69.1791 13.5709C69.2202 13.6869 69.2607 13.803 69.2984 13.9199C69.417 14.2936 69.5202 14.6744 69.6048 15.0621L71.3548 14.6805C71.3472 14.6463 71.3376 14.613 71.33 14.5788L71.3343 14.5779C71.2425 14.1745 71.1321 13.7732 71.0049 13.3765C70.9612 13.2391 70.9131 13.1038 70.8655 12.9682C70.8463 12.9133 70.8279 12.8582 70.8078 12.8036C70.7451 12.6315 70.6784 12.4615 70.6093 12.2924C70.6061 12.2845 70.6031 12.2765 70.5999 12.2685L70.5996 12.2687C69.8979 10.5602 68.8764 9.01646 67.5833 7.70646L67.5854 7.70452C67.5512 7.66974 67.5151 7.63675 67.4805 7.60228C67.3973 7.51989 67.3143 7.43795 67.2291 7.3575C67.1393 7.27258 67.0475 7.18959 66.9554 7.10675C66.8906 7.04869 66.8272 6.99004 66.7612 6.93302C66.6058 6.79855 66.4481 6.66735 66.2872 6.53959C66.2805 6.53437 66.274 6.5287 66.2673 6.52347C66.096 6.38765 65.9216 6.25511 65.7443 6.12765L65.7428 6.12974C65.537 5.98198 65.3275 5.83825 65.1128 5.70034C62.5816 4.07556 59.6715 3.30466 56.7266 3.4484C56.7116 3.44914 56.6966 3.44899 56.6816 3.44974V3.45108C56.2804 3.47198 55.8788 3.50959 55.4775 3.56452V0.865112H0.731201V64.0233H5.27926C5.93538 66.7891 8.39732 68.8917 11.3393 68.9803ZM60.0346 67.1947H58.9808H55.3558H15.7867C16.804 66.2187 17.5024 64.9124 17.707 63.4499H64.5866C64.1685 65.5815 62.2863 67.1947 60.0346 67.1947ZM47.9655 6.98422C47.9536 6.99467 47.9413 7.00437 47.9294 7.01496L47.9303 7.01601C47.3379 7.54123 46.7867 8.11676 46.2836 8.74123L46.2806 8.73899C46.2593 8.76556 46.2393 8.79347 46.2179 8.82019C46.191 8.85407 46.1651 8.88899 46.1384 8.92317C46.0249 9.0684 45.9142 9.21571 45.8063 9.36556C45.7772 9.40586 45.7488 9.44646 45.7203 9.4869C45.6179 9.63228 45.5182 9.77944 45.4215 9.9287C45.4046 9.95452 45.3863 9.97929 45.3696 10.0053C45.3442 10.0445 45.3203 10.0844 45.2955 10.1238C45.2631 10.175 45.2308 10.226 45.1993 10.2775C45.1124 10.4194 45.0287 10.5626 44.9473 10.7066C44.9397 10.7202 44.9313 10.7333 44.9237 10.7469L44.9246 10.7474C44.5457 11.4223 44.2239 12.1202 43.9618 12.8357H6.89732V6.66526H48.3415C48.2145 6.76944 48.0891 6.87556 47.9655 6.98422ZM2.52284 2.65616H53.687V3.92466C53.68 3.92646 53.6733 3.92869 53.6666 3.93063C53.6409 3.9375 53.6158 3.94571 53.5902 3.95257C53.4173 4.00063 53.2448 4.05108 53.0733 4.10556C52.9534 4.14332 52.8354 4.18437 52.717 4.22511C52.6467 4.24959 52.5763 4.27347 52.5063 4.29899C52.3488 4.35601 52.1931 4.41601 52.0384 4.47825C52.0267 4.48287 52.0148 4.4869 52.0031 4.49168L52.0034 4.49243C51.7108 4.61093 51.4219 4.7372 51.1391 4.87422H5.10628V34.6682H6.89732V14.6271H43.4381C43.1358 15.9845 43.0352 17.3833 43.1427 18.7868C43.1476 18.8535 43.1528 18.9199 43.1587 18.9865C43.17 19.1108 43.1825 19.2351 43.1972 19.3594C43.2094 19.4659 43.2237 19.572 43.2382 19.6779C43.2428 19.7114 43.2478 19.7448 43.2528 19.7781C43.2663 19.8706 43.2779 19.9636 43.2931 20.0557L43.2958 20.0553C43.3355 20.2933 43.3812 20.5312 43.4328 20.7688C43.5524 21.3168 43.7048 21.849 43.8827 22.3672L43.88 22.3681C43.8934 22.4072 43.9085 22.4463 43.9222 22.4854C43.947 22.5554 43.9721 22.6251 43.9978 22.6945C44.0342 22.792 44.0718 22.8885 44.1103 22.9853C44.157 23.1038 44.2054 23.2214 44.2552 23.3381C44.2934 23.4279 44.3322 23.5175 44.3724 23.6066C44.4079 23.6856 44.444 23.7644 44.4812 23.8426C44.5442 23.9753 44.6084 24.1072 44.6748 24.2375C44.701 24.2887 44.7284 24.3391 44.7552 24.3899C44.7894 24.455 44.8228 24.5203 44.8581 24.5847L44.8605 24.5833C45.2461 25.2874 45.6875 25.9514 46.1781 26.5714L46.1722 26.5762C46.6716 27.2099 47.2293 27.805 47.8297 28.3451L47.837 28.3369C48.4297 28.8693 49.0649 29.3508 49.736 29.7771L49.7302 29.7862C50.4112 30.2181 51.134 30.5951 51.8788 30.9066L51.8818 30.8996C52.6125 31.2066 53.3706 31.4535 54.1487 31.6365L54.1475 31.6412C54.2061 31.655 54.2655 31.6657 54.3245 31.6787C54.3688 31.6885 54.4134 31.6975 54.4581 31.7069C54.6061 31.7381 54.7545 31.7677 54.9037 31.7941C54.9597 31.8041 55.0157 31.8129 55.0719 31.8223C55.2133 31.8457 55.3548 31.8677 55.4967 31.8869C55.5564 31.895 55.6163 31.902 55.676 31.9091C55.8188 31.9266 55.9616 31.9426 56.1048 31.9557C56.1596 31.9608 56.2143 31.9648 56.2696 31.9691C56.3619 31.9766 56.4546 31.9863 56.547 31.9918L56.5473 31.9872C56.8275 32.0039 57.1085 32.0154 57.3915 32.0154C57.6221 32.0154 57.8536 32.0091 58.0855 31.9977V61.6587H15.9781V62.5542C15.9781 65.0796 13.9506 67.1388 11.4384 67.192C8.93284 67.1412 6.89702 65.0644 6.89702 62.555V44.3563H5.10598V62.2324H2.52284V2.65616Z" fill="#FFDD00"/>
<path d="M6.89749 37.7367H5.10645V41.027H6.89749V37.7367Z" fill="#FFDD00"/>
<path d="M36.7871 8.67261H29.9214V10.4637H36.7871V8.67261Z" fill="#FFDD00"/>
<path d="M21.9431 38.3173V42.5691V45.9201V55.5558V58.9052H32.6842H43.5616H54.4822V55.5558V52.1982V45.9201V42.5691V38.3173H43.5616H32.6842H21.9431ZM23.7342 40.1083H32.6842V50.4071H23.7342V40.1083ZM32.6842 53.7647H23.7342V52.1982H32.6842V53.7647ZM34.4752 52.1982H41.7706V53.7647H34.4752V52.1982ZM23.734 57.1141V55.5558H32.684V57.1141H23.734ZM34.4752 57.1141V55.5558H41.7706V57.1141H34.4752ZM52.6912 57.1141H43.5616V55.5558H52.6912V57.1141ZM52.6912 53.7647H43.5616V52.1982H52.6912V53.7647ZM52.6912 40.1083V42.5691V45.9201V50.4071H43.5616V40.1083H52.6912ZM41.7706 40.1083V50.4071H34.4752V40.1083H41.7706Z" fill="#FFDD00"/>
<path d="M19.6652 40.48H10.4885V58.9052H19.6652V40.48ZM17.8742 42.271V44.7061H12.2796V42.271H17.8742ZM12.2796 48.797V46.4971H17.8742V48.797H12.2796ZM17.8742 50.588V52.9689H12.2796V50.588H17.8742ZM12.2796 57.1142V54.7601H17.8742V57.1142H12.2796Z" fill="#FFDD00"/>
<path d="M19.8416 32.556L21.9151 34.6294L28.4961 28.0484L30.6828 30.2351L37.5585 23.3593V26.2003H39.3496V20.2579L33.3545 20.2572L33.3543 22.0482L36.3363 22.0487L30.6828 27.7021L28.4961 25.5156L21.9151 32.0965L19.8416 30.023L13.1682 36.6965L14.4348 37.963L19.8416 32.556Z" fill="#FFDD00"/>
<path d="M68.8361 17.7249C68.8361 11.4154 63.7028 6.2821 57.3934 6.2821C51.084 6.2821 45.9507 11.4154 45.9507 17.7249C45.9507 24.0345 51.084 29.1678 57.3934 29.1678C60.6959 29.1678 63.8373 27.7406 66.0119 25.2523C67.8332 23.1685 68.8361 20.4952 68.8361 17.7249ZM64.6632 24.0734C62.8284 26.1727 60.1786 27.3766 57.3932 27.3766C52.0711 27.3766 47.7416 23.0469 47.7416 17.7248C47.7416 12.4027 52.0711 8.073 57.3932 8.073C62.7153 8.073 67.0449 12.4027 67.0449 17.7248C67.045 20.0617 66.1993 22.3163 64.6632 24.0734Z" fill="#FFDD00"/>
<path d="M69.031 26.0182L67.5715 24.9801C67.1619 25.5561 66.7007 26.1 66.2004 26.5968L67.463 27.8674C68.0349 27.2989 68.5625 26.6767 69.031 26.0182Z" fill="#FFDD00"/>
<path d="M70.9291 22.3024C70.9958 22.1052 71.0591 21.904 71.1171 21.7045L69.3976 21.2043C69.3465 21.3791 69.2912 21.5554 69.2328 21.7281C69.0649 22.2236 68.864 22.7138 68.6355 23.1846L70.247 23.9663C70.5079 23.4285 70.7376 22.8687 70.9291 22.3024Z" fill="#FFDD00"/>
<path d="M62.7727 29.0063L63.542 30.6236C64.273 30.2757 64.9773 29.8645 65.6352 29.4009L64.6036 27.9368C64.0285 28.3421 63.4123 28.702 62.7727 29.0063Z" fill="#FFDD00"/>
<path d="M69.8954 17.7199C69.8954 18.1984 69.8674 18.6827 69.812 19.1591L71.5908 19.3663C71.6544 18.8214 71.6865 18.2675 71.6865 17.7199C71.6865 17.4618 71.6795 17.2002 71.6651 16.9423L69.8768 17.0403C69.8893 17.2657 69.8954 17.4942 69.8954 17.7199Z" fill="#FFDD00"/>
<path d="M58.256 15.183V9.41296H56.465V15.2049C55.7217 15.478 55.155 16.0583 54.8832 16.7668H50.4221V18.5579H54.8365C55.027 19.147 55.4121 19.648 55.9402 19.987C56.3788 20.2686 56.8779 20.414 57.3872 20.414C57.5793 20.414 57.7729 20.3933 57.9653 20.3515C59.4135 20.0357 60.3347 18.6006 60.019 17.1521C59.8112 16.1994 59.1176 15.4773 58.256 15.183ZM57.5838 18.6015C57.3494 18.6527 57.1094 18.6094 56.9078 18.4798C56.7063 18.3504 56.567 18.1501 56.516 17.916C56.4108 17.4327 56.7181 16.9537 57.2014 16.8483C57.6853 16.7428 58.1639 17.0504 58.2691 17.5337C58.3747 18.017 58.067 18.4961 57.5838 18.6015Z" fill="#FFDD00"/>
</svg>
