<svg width="100" height="100" viewBox="0 0 100 100" fill="none" xmlns="http://www.w3.org/2000/svg">
<circle cx="50" cy="50" r="49.5" stroke="#FFDD00"/>
<path d="M73.2987 50L67.5487 43.379L65.9358 35.6532C65.8866 35.4237 65.7722 35.2133 65.6062 35.0473C65.4402 34.8814 65.2298 34.7669 65.0003 34.7177L57.2745 33.1048L50.6132 27.3145C50.3899 27.1194 50.1034 27.0118 49.8068 27.0118C49.5102 27.0118 49.2237 27.1194 49.0003 27.3145L42.3794 33.0645L34.6536 34.6774C34.4249 34.7284 34.2155 34.8435 34.0498 35.0091C33.8842 35.1748 33.7691 35.3842 33.7181 35.6129L32.1052 43.3387L26.3148 50C26.1197 50.2233 26.0122 50.5098 26.0122 50.8064C26.0122 51.103 26.1197 51.3895 26.3148 51.6129L32.0648 58.2338L33.6777 65.9596C33.7226 66.2019 33.8399 66.4249 34.0141 66.5991C34.1883 66.7733 34.4113 66.8906 34.6536 66.9354L42.3794 68.5483L49.0003 74.2983C49.2229 74.4951 49.5097 74.6037 49.8068 74.6037C50.1038 74.6037 50.3907 74.4951 50.6132 74.2983L57.2342 68.5483L64.96 66.9354C65.2014 66.8885 65.4232 66.7706 65.5971 66.5967C65.771 66.4229 65.8889 66.201 65.9358 65.9596L67.5487 58.2338L73.2987 51.6129C73.4938 51.3895 73.6014 51.103 73.6014 50.8064C73.6014 50.5098 73.4938 50.2233 73.2987 50ZM65.4842 56.879C65.3485 57.0319 65.2566 57.2186 65.2181 57.4193L63.6858 64.6774L56.4277 66.2096C56.227 66.2482 56.0403 66.3401 55.8874 66.4758L49.8068 71.7742L43.7261 66.4758C43.5732 66.3401 43.3866 66.2482 43.1858 66.2096L35.9277 64.6774L34.3955 57.4193C34.357 57.2186 34.265 57.0319 34.1294 56.879L28.839 50.8064L34.1374 44.7258C34.2731 44.5729 34.365 44.3862 34.4036 44.1854L35.9358 36.9274L43.1939 35.3951C43.3946 35.3566 43.5813 35.2647 43.7342 35.129L49.8068 29.8387L55.8874 35.1371C56.0403 35.2727 56.227 35.3647 56.4277 35.4032L63.6858 36.9354L65.2181 44.1935C65.2566 44.3943 65.3485 44.5809 65.4842 44.7338L70.7745 50.8064L65.4842 56.879Z" fill="#FFDD00"/>
<path d="M61.7086 56.2593C62.1416 55.9479 62.4871 55.5555 62.7444 55.0834C63.0167 54.5933 63.15 54.0205 63.15 53.3702C63.15 52.5441 62.9102 51.8684 62.4179 51.3598C62.0191 50.9478 61.5044 50.6691 60.8807 50.5187C61.4458 50.2886 61.892 49.961 62.2117 49.5316L62.2126 49.5303C62.5988 49 62.7966 48.4393 62.7966 47.8508C62.7966 47.2913 62.6867 46.8112 62.4578 46.4184C62.2444 46.0222 61.9525 45.7103 61.5824 45.4863C61.2294 45.2549 60.8257 45.0942 60.3734 45.0026C59.9363 44.9008 59.4881 44.85 59.029 44.85C58.2916 44.85 57.6244 44.917 57.0284 45.0523C56.4455 45.1739 56.0227 45.2987 55.7774 45.4316L55.6663 45.4919L55.7068 45.6116L56.077 46.7055L56.1309 46.8648L56.283 46.7932C56.5247 46.6793 56.8529 46.5828 57.2722 46.5067L57.2722 46.5068L57.2759 46.506C57.6891 46.4203 58.1943 46.3765 58.7935 46.3765C59.1086 46.3765 59.3998 46.4086 59.6676 46.4719L59.6675 46.4721L59.6742 46.4733C59.9468 46.525 60.1781 46.6221 60.3711 46.7623L60.371 46.7625L60.3784 46.7672C60.5796 46.8961 60.7355 47.0691 60.8471 47.2889C60.9568 47.5051 61.0159 47.7839 61.0159 48.1326C61.0159 48.3759 60.9647 48.5955 60.8639 48.794C60.7607 48.9974 60.6214 49.1755 60.445 49.3288C60.2679 49.4827 60.058 49.6125 59.8138 49.7174C59.5673 49.8122 59.304 49.881 59.0234 49.9235L59.0233 49.9229L59.01 49.9262C58.9326 49.9452 58.8257 49.9608 58.6867 49.9715C58.5497 49.9717 58.4023 49.9774 58.2445 49.9885L58.2437 49.9886C58.1016 49.9993 57.9596 50.0047 57.8175 50.0047H57.8167H57.8158H57.815H57.8141H57.8133H57.8124H57.8116H57.8107H57.8099H57.809H57.8082H57.8073H57.8065H57.8056H57.8048H57.8039H57.8031H57.8022H57.8014H57.8005H57.7997H57.7989H57.798H57.7972H57.7963H57.7955H57.7947H57.7938H57.793H57.7921H57.7913H57.7905H57.7896H57.7888H57.7879H57.7871H57.7863H57.7854H57.7846H57.7838H57.7829H57.7821H57.7813H57.7804H57.7796H57.7788H57.7779H57.7771H57.7763H57.7755H57.7746H57.7738H57.773H57.7721H57.7713H57.7705H57.7697H57.7688H57.768H57.7672H57.7664H57.7655H57.7647H57.7639H57.7631H57.7623H57.7614H57.7606H57.7598H57.759H57.7582H57.7573H57.7565H57.7557H57.7549H57.7541H57.7533H57.7525H57.7516H57.7508H57.75H57.7492H57.7484H57.7476H57.7468H57.746H57.7451H57.7443H57.7435H57.7427H57.7419H57.7411H57.7403H57.7395H57.7387H57.7379H57.7371H57.7363H57.7355H57.7347H57.7339H57.7331H57.7323H57.7314H57.7306H57.7298H57.729H57.7282H57.7275H57.7267H57.7259H57.7251H57.7243H57.7235H57.7227H57.7219H57.7211H57.7203H57.7195H57.7187H57.7179H57.7171H57.7163H57.7155H57.7147H57.714H57.7132H57.7124H57.7116H57.7108H57.71H57.7092H57.7084H57.7076H57.7069H57.7061H57.7053H57.7045H57.7037H57.7029H57.7022H57.7014H57.7006H57.6998H57.699H57.6983H57.6975H57.6967H57.6959H57.6951H57.6944H57.6936H57.6928H57.692H57.6913H57.6905H57.6897H57.6889H57.6882H57.6874H57.6866H57.6859H57.6851H57.6843H57.6835H57.6828H57.682H57.6812H57.6805H57.6797H57.6789H57.6782H57.6774H57.6766H57.6759H57.6751H57.6743H57.6736H57.6728H57.6721H57.6713H57.6705H57.6698H57.669H57.6682H57.6675H57.6667H57.666H57.6652H57.6645H57.6637H57.6629H57.6622H57.6614H57.6607H57.6599H57.6592H57.6584H57.6577H57.6569H57.6562H57.6554H57.6547H57.6539H57.6532H57.6524H57.6517H57.6509H57.6502H57.6494H57.6487H57.6479H57.6472H57.6464H57.6457H57.645H57.6442H57.6435H57.6427H57.642H57.6412H57.6405H57.6398H57.639H57.6383H57.6375H57.6368H57.6361H57.6353H57.6346H57.6339H57.6331H57.6324H57.6317H57.6309H57.6302H57.6295H57.6287H57.628H57.6273H57.6265H57.6258H57.6251H57.6243H57.6236H57.6229H57.6221H57.6214H57.6207H57.62H57.6192H57.6185H57.6178H57.6171H57.6163H57.6156H57.6149H57.6142H57.6135H57.6127H57.612H57.6113H57.6106H57.6099H57.6091H57.6084H57.6077H57.607H57.6063H57.6055H57.6048H57.6041H57.6034H57.6027H57.602H57.6013H57.6006H57.5998H57.5991H57.5984H57.5977H57.597H57.5963H57.5956H57.5949H57.5942H57.5935H57.5927H57.592H57.5913H57.5906H57.5899H57.5892H57.5885H57.5878H57.5871H57.5864H57.5857H57.585H57.5843H57.5836H57.5829H57.5822H57.5815H57.5808H57.5801H57.5794H57.5787H57.578H57.5773H57.5766H57.5759H57.5752H57.5746H57.5739H57.5732H57.5725H57.5718H57.5711H57.5704H57.5697H57.569H57.5683H57.5676H57.567H57.5663H57.5656H57.5649H57.5642H57.5635H57.5628H57.5622H57.5615H57.5608H57.5601H57.5594H57.5587H57.5581H57.5574H57.5567H57.556H57.5553H57.5547H57.554H57.5533H57.5526H57.552H57.5513H57.5506H57.5499H57.5493H57.5486H57.5479H57.5472H57.5466H57.5459H57.5452H57.5445H57.5439H57.5432H57.5425H57.5419H57.5412H57.5405H57.5399H57.5392H57.5385H57.5379H57.5372H57.5365H57.5359H57.5352H57.5345H57.5339H57.5332H57.5326H57.5319H57.5312H57.5306H57.5299H57.5293H57.5286H57.5279H57.5273H57.5266H57.526H57.5253H57.5247H57.524H57.5233H57.5227H57.522H57.5214H57.5207H57.5201H57.5194H57.5188H57.5181H57.5175H57.5168H57.5162H57.5155H57.5149H57.5142H57.5136H57.5129H57.5123H57.5117H57.511H57.5104H57.5097H57.5091H57.5084H57.5078H57.5072H57.5065H57.5059H57.5052H57.5046H57.504H57.5033H57.5027H57.502H57.5014H57.5008H57.5001H57.4995H57.4989H57.4982H57.4976H57.497H57.4963H57.4957H57.4951H57.4944H57.4938H57.4932H57.4925H57.4919H57.4913H57.4907H57.49H57.4894H57.4888H57.4881H57.4875H57.4869H57.4863H57.4856H57.485H57.4844H57.4838H57.4832H57.4825H57.4819H57.4813H57.4807H57.4801H57.4794H57.4788H57.4782H57.4776H57.477H57.4763H57.4757H57.4751H57.4745H57.4739H57.4733H57.4727H57.472H57.4714H57.4708H57.4702H57.4696H57.469H57.4684H57.4678H57.4672H57.4666H57.4659H57.4653H57.4647H57.4641H57.4635H57.4629H57.4623H57.4617H57.4611H57.4605H57.4599H57.4593H57.4587H57.4581H57.4575H57.4569H57.4563H57.4557H57.4551H57.4545H57.4539H57.4533H57.4527H57.4521H57.4515H57.4509H57.4503H57.4497H57.4491H57.4485H57.448H57.4474H57.1781H57.0281V50.1547V51.3149V51.4649L61.6203 56.1381M61.7086 56.2593C61.7083 56.2595 61.7081 56.2597 61.7078 56.2599L61.6203 56.1381M61.7086 56.2593C61.7089 56.2591 61.7091 56.259 61.7094 56.2588L61.6203 56.1381M61.7086 56.2593C61.2882 56.5697 60.7998 56.7982 60.2455 56.946L60.2434 56.9466L60.2434 56.9466C59.7041 57.0822 59.1534 57.15 58.5915 57.15C57.8469 57.15 57.2261 57.1057 56.7318 57.0152M61.6203 56.1381C61.2164 56.4365 60.7453 56.6575 60.2069 56.8011C59.6796 56.9337 59.1412 57 58.5915 57C57.8512 57 57.2398 56.9558 56.7575 56.8674M56.7318 57.0152C56.7322 57.0153 56.7327 57.0153 56.7332 57.0154L56.7575 56.8674M56.7318 57.0152C56.7313 57.0151 56.7309 57.015 56.7304 57.0149L56.7575 56.8674M56.7318 57.0152L56.7575 56.8674M56.219 46.6575L56.1707 46.5145C56.1655 46.5169 56.1603 46.5193 56.1551 46.5218L56.219 46.6575ZM56.219 46.6575L56.3611 46.6094L56.3572 46.5977C56.3087 46.617 56.2627 46.6369 56.219 46.6575ZM55.933 55.326C55.9764 55.3464 56.0227 55.3664 56.0719 55.3859L56.0773 55.367L55.933 55.326ZM55.933 55.326L55.8691 55.4617C55.8765 55.4651 55.8839 55.4686 55.8915 55.4721L55.933 55.326ZM45.1165 56.4401L45.2007 56.3765L45.1693 56.2757L44.8327 55.1984L44.7759 55.0164L44.6124 55.1144C44.3698 55.2599 44.0642 55.3823 43.6926 55.4792L43.6916 55.4794C43.3373 55.5746 42.9136 55.6235 42.418 55.6235C41.8755 55.6235 41.3737 55.5274 40.911 55.3367C40.4616 55.1469 40.0649 54.8622 39.7202 54.4805C39.388 54.1002 39.1223 53.6214 38.9257 53.0403C38.7302 52.4626 38.6307 51.7833 38.6307 51C38.6307 50.1271 38.7361 49.3991 38.9419 48.8121C39.1498 48.2194 39.4207 47.7472 39.751 47.3901C40.0954 47.0299 40.48 46.7729 40.9052 46.6158C41.3379 46.456 41.7746 46.3765 42.2161 46.3765C43.2054 46.3765 43.948 46.503 44.4573 46.7434L44.6181 46.8193L44.6658 46.6479L45.0023 45.438L45.0383 45.3086L44.9137 45.2586C44.598 45.1319 44.2224 45.0356 43.789 44.9681C43.3508 44.8887 42.7919 44.85 42.1152 44.85C41.469 44.85 40.8346 44.9637 40.2129 45.1906C39.5855 45.4195 39.0178 45.7853 38.51 46.2854C38.0101 46.7779 37.607 47.4155 37.2981 48.1932L37.2981 48.1932L37.2976 48.1943C36.9974 48.9679 36.85 49.9046 36.85 51C36.85 52.0511 36.9862 52.9693 37.2624 53.7516L37.2626 53.7523C37.5375 54.5195 37.9119 55.1572 38.3886 55.6611C38.8634 56.1631 39.4203 56.5403 40.0579 56.7915L40.0578 56.7915L40.06 56.7923C40.6951 57.0312 41.3749 57.15 42.0983 57.15C42.6901 57.15 43.2494 57.0996 43.7757 56.9981C44.3088 56.8954 44.7577 56.7111 45.1165 56.4401ZM54.2854 56.4401L54.3697 56.3765L54.3382 56.2757L54.0017 55.1984L53.9449 55.0164L53.7814 55.1144C53.5387 55.2599 53.2332 55.3823 52.8616 55.4792L52.8605 55.4794C52.5063 55.5746 52.0825 55.6235 51.587 55.6235C51.0445 55.6235 50.5426 55.5274 50.0799 55.3367C49.6306 55.1469 49.2338 54.8622 48.8892 54.4805C48.557 54.1002 48.2913 53.6214 48.0946 53.0403C47.8991 52.4626 47.7997 51.7833 47.7997 51C47.7997 50.1271 47.905 49.3991 48.1109 48.8121C48.3188 48.2194 48.5896 47.7472 48.9199 47.3901C49.2643 47.0299 49.649 46.7729 50.0741 46.6158C50.5069 46.456 50.9436 46.3765 51.3851 46.3765C52.3743 46.3765 53.117 46.503 53.6262 46.7434L53.7871 46.8193L53.8348 46.6479L54.1713 45.438L54.2073 45.3086L54.0826 45.2586C53.7669 45.1319 53.3913 45.0356 52.958 44.9681C52.5197 44.8887 51.9608 44.85 51.2841 44.85C50.6379 44.85 50.0036 44.9637 49.3818 45.1906C48.7544 45.4195 48.1867 45.7853 47.679 46.2854C47.179 46.7779 46.776 47.4155 46.467 48.1932L46.4666 48.1943C46.1664 48.9679 46.019 49.9046 46.019 51C46.019 52.0511 46.1551 52.9693 46.4313 53.7516L46.4316 53.7523C46.7065 54.5195 47.0809 55.1572 47.5575 55.6611C48.0324 56.1631 48.5892 56.5403 49.2268 56.7915L49.2268 56.7915L49.229 56.7923C49.864 57.0312 50.5439 57.15 51.2673 57.15C51.8591 57.15 52.4183 57.0996 52.9446 56.9981C53.4777 56.8954 53.9267 56.7111 54.2854 56.4401ZM57.038 55.4936C57.0379 55.4935 57.0377 55.4935 57.0375 55.4935L57.0099 55.6409L57.0382 55.4936C57.0381 55.4936 57.0381 55.4936 57.038 55.4936ZM59.6954 55.4964C59.6947 55.4966 59.6939 55.4968 59.6932 55.497L59.7357 55.6409L59.6976 55.4958C59.6969 55.496 59.6961 55.4962 59.6954 55.4964ZM60.5388 55.089C60.5386 55.0891 60.5385 55.0892 60.5384 55.0893L60.6275 55.2099L60.5392 55.0887C60.5391 55.0888 60.5389 55.0889 60.5388 55.089Z" fill="#FFDD00" stroke="#FFDD00" stroke-width="0.3"/>
</svg>
