<svg width="50" height="50" viewBox="0 0 50 50" fill="none" xmlns="http://www.w3.org/2000/svg">
<mask id="path-1-inside-1_246_3890" fill="white">
<path d="M13.6998 30.1836H22.7968V33.551H22.3311C21.9985 33.551 21.7243 33.8109 21.7068 34.1431L21.0812 46.1086C21.0812 48.2544 22.8264 50 24.9717 50C27.1176 50 28.8623 48.2543 28.8618 46.0763L28.2367 34.1432C28.2192 33.8114 27.945 33.5511 27.6123 33.5511H27.1463V30.1837H36.2689C37.1884 30.1837 38.0359 29.7229 38.5351 28.9512C39.0343 28.1795 39.1084 27.2183 38.7313 26.3794L27.6241 1.6393C27.1724 0.632215 26.2054 0.00357145 25.1015 0H25.091C23.9915 0 23.025 0.619949 22.5668 1.62133L11.2464 26.3615C10.8619 27.2007 10.9308 28.1664 11.4295 28.9428C11.9274 29.7197 12.7771 30.184 13.7001 30.184L13.6998 30.1836ZM24.9722 48.7496C23.5161 48.7496 22.3316 47.5646 22.3302 46.1416L22.9245 34.8H27.0195L27.6124 46.1082C27.6128 47.5643 26.4274 48.7492 24.9722 48.7492L24.9722 48.7496ZM24.0471 33.5497V23.4121C24.0471 22.9029 24.4621 22.4879 24.9722 22.4879C25.4823 22.4879 25.8965 22.9029 25.8965 23.4121V33.5497H24.0471ZM12.3818 26.8807L23.7033 2.13941C23.9601 1.5792 24.5007 1.25003 25.0962 1.24829C25.7127 1.25091 26.2306 1.58748 26.483 2.149L37.5906 26.8891C37.7955 27.346 37.7576 27.8496 37.4851 28.2703C37.2126 28.691 36.7697 28.9321 36.2683 28.9321L27.1466 28.9316V23.4114C27.1466 22.2121 26.1709 21.2373 24.9725 21.2373C23.7732 21.2373 22.7975 22.213 22.7975 23.4114V28.9316H13.6997C13.1965 28.9316 12.7523 28.6884 12.4802 28.2659C12.209 27.8422 12.1729 27.3378 12.3821 26.88L12.3818 26.8807Z"/>
</mask>
<path d="M13.6998 30.1836H22.7968V33.551H22.3311C21.9985 33.551 21.7243 33.8109 21.7068 34.1431L21.0812 46.1086C21.0812 48.2544 22.8264 50 24.9717 50C27.1176 50 28.8623 48.2543 28.8618 46.0763L28.2367 34.1432C28.2192 33.8114 27.945 33.5511 27.6123 33.5511H27.1463V30.1837H36.2689C37.1884 30.1837 38.0359 29.7229 38.5351 28.9512C39.0343 28.1795 39.1084 27.2183 38.7313 26.3794L27.6241 1.6393C27.1724 0.632215 26.2054 0.00357145 25.1015 0H25.091C23.9915 0 23.025 0.619949 22.5668 1.62133L11.2464 26.3615C10.8619 27.2007 10.9308 28.1664 11.4295 28.9428C11.9274 29.7197 12.7771 30.184 13.7001 30.184L13.6998 30.1836ZM24.9722 48.7496C23.5161 48.7496 22.3316 47.5646 22.3302 46.1416L22.9245 34.8H27.0195L27.6124 46.1082C27.6128 47.5643 26.4274 48.7492 24.9722 48.7492L24.9722 48.7496ZM24.0471 33.5497V23.4121C24.0471 22.9029 24.4621 22.4879 24.9722 22.4879C25.4823 22.4879 25.8965 22.9029 25.8965 23.4121V33.5497H24.0471ZM12.3818 26.8807L23.7033 2.13941C23.9601 1.5792 24.5007 1.25003 25.0962 1.24829C25.7127 1.25091 26.2306 1.58748 26.483 2.149L37.5906 26.8891C37.7955 27.346 37.7576 27.8496 37.4851 28.2703C37.2126 28.691 36.7697 28.9321 36.2683 28.9321L27.1466 28.9316V23.4114C27.1466 22.2121 26.1709 21.2373 24.9725 21.2373C23.7732 21.2373 22.7975 22.213 22.7975 23.4114V28.9316H13.6997C13.1965 28.9316 12.7523 28.6884 12.4802 28.2659C12.209 27.8422 12.1729 27.3378 12.3821 26.88L12.3818 26.8807Z" fill="#FFDD00"/>
<path d="M13.6998 30.1836V28.1836H10.273L11.9584 31.1673L13.6998 30.1836ZM22.7968 30.1836H24.7968V28.1836H22.7968V30.1836ZM22.7968 33.551V35.551H24.7968V33.551H22.7968ZM21.7068 34.1431L19.7096 34.0382L19.7095 34.0386L21.7068 34.1431ZM21.0812 46.1086L19.0839 46.0041L19.0812 46.0563V46.1086H21.0812ZM28.8618 46.0763L30.8618 46.0759L30.8618 46.0237L30.8591 45.9717L28.8618 46.0763ZM28.2367 34.1432L30.2339 34.0385L30.2339 34.0382L28.2367 34.1432ZM27.1463 33.5511H25.1463V35.5511H27.1463V33.5511ZM27.1463 30.1837V28.1837H25.1463V30.1837H27.1463ZM38.5351 28.9512L40.2143 30.0376L40.2144 30.0375L38.5351 28.9512ZM38.7313 26.3794L36.9067 27.1986L36.9071 27.1995L38.7313 26.3794ZM27.6241 1.6393L25.7992 2.45773L25.7995 2.45844L27.6241 1.6393ZM25.1015 0L25.108 -2H25.1015V0ZM22.5668 1.62133L24.3855 2.45349L24.3855 2.45341L22.5668 1.62133ZM11.2464 26.3615L13.0646 27.1945L13.0651 27.1936L11.2464 26.3615ZM11.4295 28.9428L13.1134 27.8637L13.1123 27.862L11.4295 28.9428ZM13.7001 30.184V32.184H17.1269L15.4414 29.2004L13.7001 30.184ZM24.9722 48.7496V50.7496H27.1844L26.9621 48.5486L24.9722 48.7496ZM22.3302 46.1416L20.333 46.037L20.3302 46.0902L20.3302 46.1435L22.3302 46.1416ZM22.9245 34.8V32.8H21.0265L20.9272 34.6954L22.9245 34.8ZM27.0195 34.8L29.0167 34.6953L28.9173 32.8H27.0195V34.8ZM27.6124 46.1082L29.6124 46.1076L29.6124 46.0555L29.6096 46.0034L27.6124 46.1082ZM24.9722 48.7492V46.7492H22.76L22.9823 48.9502L24.9722 48.7492ZM24.0471 33.5497H22.0471V35.5497H24.0471V33.5497ZM25.8965 33.5497V35.5497H27.8965V33.5497H25.8965ZM12.3818 26.8807L10.5614 26.0524L14.2005 27.7129L12.3818 26.8807ZM23.7033 2.13941L21.8852 1.30604L21.8847 1.30721L23.7033 2.13941ZM25.0962 1.24829L25.1047 -0.751691L25.0975 -0.751722L25.0904 -0.751701L25.0962 1.24829ZM26.483 2.149L28.3076 1.32983L28.3072 1.32889L26.483 2.149ZM37.5906 26.8891L39.4155 26.0707L39.4151 26.07L37.5906 26.8891ZM37.4851 28.2703L35.8064 27.1831L35.8064 27.1831L37.4851 28.2703ZM36.2683 28.9321L36.2682 30.9321H36.2683V28.9321ZM27.1466 28.9316H25.1466V30.9316L27.1465 30.9316L27.1466 28.9316ZM22.7975 28.9316V30.9316H24.7975V28.9316H22.7975ZM12.4802 28.2659L10.7956 29.3439L10.7988 29.3488L12.4802 28.2659ZM12.3821 26.88L14.2026 27.7083L10.5632 26.0485L12.3821 26.88ZM13.6998 32.1836H22.7968V28.1836H13.6998V32.1836ZM20.7968 30.1836V33.551H24.7968V30.1836H20.7968ZM22.7968 31.551H22.3311V35.551H22.7968V31.551ZM22.3311 31.551C20.9362 31.551 19.7829 32.6421 19.7096 34.0382L23.7041 34.2479C23.6657 34.9796 23.0608 35.551 22.3311 35.551V31.551ZM19.7095 34.0386L19.0839 46.0041L23.0785 46.213L23.7041 34.2475L19.7095 34.0386ZM19.0812 46.1086C19.0812 49.3586 21.7214 52 24.9717 52V48C23.9314 48 23.0812 47.1503 23.0812 46.1086H19.0812ZM24.9717 52C28.2335 52 30.8625 49.3475 30.8618 46.0759L26.8618 46.0767C26.8621 47.1612 26.0018 48 24.9717 48V52ZM30.8591 45.9717L30.2339 34.0385L26.2394 34.2478L26.8646 46.1809L30.8591 45.9717ZM30.2339 34.0382C30.1606 32.6436 29.0082 31.5511 27.6123 31.5511V35.5511C26.8817 35.5511 26.2778 34.9792 26.2394 34.2482L30.2339 34.0382ZM27.6123 31.5511H27.1463V35.5511H27.6123V31.5511ZM29.1463 33.5511V30.1837H25.1463V33.5511H29.1463ZM27.1463 32.1837H36.2689V28.1837H27.1463V32.1837ZM36.2689 32.1837C37.8662 32.1837 39.3462 31.3794 40.2143 30.0376L36.8559 27.8649C36.7255 28.0663 36.5105 28.1837 36.2689 28.1837V32.1837ZM40.2144 30.0375C41.0813 28.6974 41.2114 27.0185 40.5554 25.5594L36.9071 27.1995C37.0054 27.4181 36.9873 27.6617 36.8558 27.8649L40.2144 30.0375ZM40.5558 25.5603L29.4486 0.820154L25.7995 2.45844L36.9067 27.1986L40.5558 25.5603ZM29.4489 0.820862C28.6759 -0.902718 26.9978 -1.99388 25.108 -1.99999L25.095 1.99999C25.413 2.00102 25.6689 2.16715 25.7992 2.45773L29.4489 0.820862ZM25.1015 -2H25.091V2H25.1015V-2ZM25.091 -2C23.2093 -2 21.5319 -0.92395 20.7481 0.789243L24.3855 2.45341C24.518 2.16385 24.7738 2 25.091 2V-2ZM20.7481 0.789164L9.42775 25.5293L13.0651 27.1936L24.3855 2.45349L20.7481 0.789164ZM9.42817 25.5284C8.75951 26.9877 8.8802 28.6747 9.74675 30.0237L13.1123 27.862C12.9813 27.6581 12.9642 27.4137 13.0646 27.1945L9.42817 25.5284ZM9.74562 30.022C10.6116 31.3732 12.0962 32.184 13.7001 32.184V28.184C13.4579 28.184 13.2432 28.0662 13.1134 27.8637L9.74562 30.022ZM15.4414 29.2004L15.4412 29.1999L11.9584 31.1673L11.9587 31.1677L15.4414 29.2004ZM24.9722 46.7496C24.605 46.7496 24.3305 46.4441 24.3302 46.1398L20.3302 46.1435C20.3326 48.6852 22.4271 50.7496 24.9722 50.7496V46.7496ZM24.3275 46.2463L24.9217 34.9047L20.9272 34.6954L20.333 46.037L24.3275 46.2463ZM22.9245 36.8H27.0195V32.8H22.9245V36.8ZM25.0222 34.9048L25.6151 46.2129L29.6096 46.0034L29.0167 34.6953L25.0222 34.9048ZM25.6124 46.1088C25.6125 46.4598 25.323 46.7492 24.9722 46.7492V50.7492C27.5319 50.7492 29.6131 48.6688 29.6124 46.1076L25.6124 46.1088ZM22.9823 48.9502L22.9823 48.9506L26.9621 48.5486L26.9621 48.5482L22.9823 48.9502ZM26.0471 33.5497V23.4121H22.0471V33.5497H26.0471ZM26.0471 23.4121C26.0471 24.0087 25.5654 24.4879 24.9722 24.4879V20.4879C23.3588 20.4879 22.0471 21.7971 22.0471 23.4121H26.0471ZM24.9722 24.4879C24.3765 24.4879 23.8965 24.0062 23.8965 23.4121H27.8965C27.8965 21.7996 26.5881 20.4879 24.9722 20.4879V24.4879ZM23.8965 23.4121V33.5497H27.8965V23.4121H23.8965ZM25.8965 31.5497H24.0471V35.5497H25.8965V31.5497ZM14.2005 27.7129L25.522 2.97161L21.8847 1.30721L10.5632 26.0485L14.2005 27.7129ZM25.5214 2.97278C25.4873 3.0473 25.4249 3.12228 25.3402 3.17574C25.2579 3.22767 25.1728 3.24808 25.102 3.24828L25.0904 -0.751701C23.7436 -0.747763 22.4787 0.0112772 21.8852 1.30604L25.5214 2.97278ZM25.0877 3.24827C25.0281 3.24802 24.9336 3.22927 24.8366 3.16627C24.7397 3.10327 24.6837 3.02427 24.6589 2.96911L28.3072 1.32889C27.7329 0.0515905 26.5047 -0.745751 25.1047 -0.751691L25.0877 3.24827ZM24.6585 2.96817L35.7661 27.7083L39.4151 26.07L28.3076 1.32983L24.6585 2.96817ZM35.7657 27.7075C35.7354 27.64 35.7146 27.5473 35.7226 27.4415C35.7307 27.3356 35.7655 27.2463 35.8064 27.1831L39.1638 29.3575C39.806 28.3659 39.8972 27.1448 39.4155 26.0707L35.7657 27.7075ZM35.8064 27.1831C35.8465 27.1212 35.9131 27.0531 36.0068 27.0021C36.1005 26.9511 36.1942 26.9321 36.2683 26.9321V30.9321C37.4484 30.9321 38.523 30.3469 39.1638 29.3575L35.8064 27.1831ZM36.2684 26.9321L27.1467 26.9316L27.1465 30.9316L36.2682 30.9321L36.2684 26.9321ZM29.1466 28.9316V23.4114H25.1466V28.9316H29.1466ZM29.1466 23.4114C29.1466 21.1069 27.2749 19.2373 24.9725 19.2373V23.2373C25.0669 23.2373 25.1466 23.3172 25.1466 23.4114H29.1466ZM24.9725 19.2373C22.6691 19.2373 20.7975 21.1079 20.7975 23.4114H24.7975C24.7975 23.3181 24.8772 23.2373 24.9725 23.2373V19.2373ZM20.7975 23.4114V28.9316H24.7975V23.4114H20.7975ZM22.7975 26.9316H13.6997V30.9316H22.7975V26.9316ZM13.6997 26.9316C13.7747 26.9316 13.8687 26.951 13.9622 27.0021C14.0556 27.0531 14.1219 27.1212 14.1617 27.183L10.7988 29.3488C11.4378 30.3411 12.5144 30.9316 13.6997 30.9316V26.9316ZM14.1648 27.1879C14.2039 27.2489 14.2384 27.3374 14.246 27.444C14.2536 27.5508 14.2319 27.6442 14.2011 27.7115L10.5632 26.0485C10.0706 27.1261 10.1593 28.3495 10.7956 29.3439L14.1648 27.1879ZM10.5617 26.0517L10.5614 26.0524L14.2022 27.709L14.2026 27.7083L10.5617 26.0517Z" fill="#FFDD00" mask="url(#path-1-inside-1_246_3890)"/>
</svg>
