<svg width="52" height="50" viewBox="0 0 52 50" fill="none" xmlns="http://www.w3.org/2000/svg">
<path d="M49.2987 25L43.5487 18.379L41.9358 10.6532C41.8866 10.4237 41.7722 10.2133 41.6062 10.0473C41.4402 9.88136 41.2298 9.7669 41.0003 9.71771L33.2745 8.1048L26.6132 2.31448C26.3899 2.11936 26.1034 2.01184 25.8068 2.01184C25.5102 2.01184 25.2237 2.11936 25.0003 2.31448L18.3794 8.06448L10.6536 9.67738C10.4249 9.72841 10.2155 9.84349 10.0498 10.0091C9.88418 10.1748 9.7691 10.3842 9.71807 10.6129L8.10517 18.3387L2.31485 25C2.11973 25.2233 2.01221 25.5098 2.01221 25.8064C2.01221 26.103 2.11973 26.3895 2.31485 26.6129L8.06485 33.2338L9.67775 40.9596C9.72259 41.2019 9.83986 41.4249 10.0141 41.5991C10.1883 41.7733 10.4113 41.8906 10.6536 41.9354L18.3794 43.5483L25.0003 49.2983C25.2229 49.4951 25.5097 49.6037 25.8068 49.6037C26.1038 49.6037 26.3907 49.4951 26.6132 49.2983L33.2342 43.5483L40.96 41.9354C41.2014 41.8885 41.4232 41.7706 41.5971 41.5967C41.7709 41.4228 41.8889 41.201 41.9358 40.9596L43.5487 33.2338L49.2987 26.6129C49.4938 26.3895 49.6014 26.103 49.6014 25.8064C49.6014 25.5098 49.4938 25.2233 49.2987 25V25ZM41.4842 31.879C41.3485 32.0319 41.2566 32.2186 41.2181 32.4193L39.6858 39.6774L32.4277 41.2096C32.227 41.2482 32.0403 41.3401 31.8874 41.4758L25.8068 46.7742L19.7261 41.4758C19.5732 41.3401 19.3866 41.2482 19.1858 41.2096L11.9277 39.6774L10.3955 32.4193C10.357 32.2186 10.265 32.0319 10.1294 31.879L4.83904 25.8064L10.1374 19.7258C10.2731 19.5729 10.365 19.3862 10.4036 19.1854L11.9358 11.9274L19.1939 10.3951C19.3946 10.3566 19.5813 10.2647 19.7342 10.129L25.8068 4.83867L31.8874 10.1371C32.0403 10.2727 32.227 10.3647 32.4277 10.4032L39.6858 11.9354L41.2181 19.1935C41.2566 19.3943 41.3485 19.5809 41.4842 19.7338L46.7745 25.8064L41.4842 31.879Z" fill="#FFDD00"/>
<path d="M37.7086 31.2593C38.1416 30.9479 38.4871 30.5555 38.7444 30.0834C39.0167 29.5933 39.15 29.0205 39.15 28.3702C39.15 27.5441 38.9102 26.8684 38.4179 26.3598C38.0191 25.9478 37.5044 25.6691 36.8807 25.5187C37.4458 25.2886 37.892 24.961 38.2117 24.5316L38.2126 24.5303C38.5988 24 38.7966 23.4393 38.7966 22.8508C38.7966 22.2913 38.6867 21.8112 38.4578 21.4184C38.2444 21.0222 37.9525 20.7103 37.5824 20.4863C37.2294 20.2549 36.8257 20.0942 36.3734 20.0026C35.9363 19.9008 35.4881 19.85 35.029 19.85C34.2916 19.85 33.6244 19.917 33.0284 20.0523C32.4455 20.1739 32.0227 20.2987 31.7774 20.4316L31.6663 20.4919L31.7068 20.6116L32.077 21.7055L32.1309 21.8648L32.283 21.7932C32.5247 21.6793 32.8529 21.5828 33.2722 21.5067L33.2722 21.5068L33.2759 21.506C33.6891 21.4203 34.1943 21.3765 34.7935 21.3765C35.1086 21.3765 35.3998 21.4086 35.6676 21.4719L35.6675 21.4721L35.6742 21.4733C35.9468 21.525 36.1781 21.6221 36.3711 21.7623L36.371 21.7625L36.3784 21.7672C36.5796 21.8961 36.7355 22.0691 36.8471 22.2889C36.9568 22.5051 37.0159 22.7839 37.0159 23.1326C37.0159 23.3759 36.9647 23.5955 36.8639 23.794C36.7607 23.9974 36.6214 24.1755 36.445 24.3288C36.2679 24.4827 36.058 24.6125 35.8138 24.7174C35.5673 24.8122 35.304 24.881 35.0234 24.9235L35.0233 24.9229L35.01 24.9262C34.9326 24.9452 34.8257 24.9608 34.6867 24.9715C34.5497 24.9717 34.4023 24.9774 34.2445 24.9885L34.2437 24.9886C34.1016 24.9993 33.9596 25.0047 33.8175 25.0047H33.8167H33.8158H33.815H33.8141H33.8133H33.8124H33.8116H33.8107H33.8099H33.809H33.8082H33.8073H33.8065H33.8056H33.8048H33.8039H33.8031H33.8022H33.8014H33.8005H33.7997H33.7989H33.798H33.7972H33.7963H33.7955H33.7947H33.7938H33.793H33.7921H33.7913H33.7905H33.7896H33.7888H33.7879H33.7871H33.7863H33.7854H33.7846H33.7838H33.7829H33.7821H33.7813H33.7804H33.7796H33.7788H33.7779H33.7771H33.7763H33.7755H33.7746H33.7738H33.773H33.7721H33.7713H33.7705H33.7697H33.7688H33.768H33.7672H33.7664H33.7655H33.7647H33.7639H33.7631H33.7623H33.7614H33.7606H33.7598H33.759H33.7582H33.7573H33.7565H33.7557H33.7549H33.7541H33.7533H33.7525H33.7516H33.7508H33.75H33.7492H33.7484H33.7476H33.7468H33.746H33.7451H33.7443H33.7435H33.7427H33.7419H33.7411H33.7403H33.7395H33.7387H33.7379H33.7371H33.7363H33.7355H33.7347H33.7339H33.7331H33.7323H33.7314H33.7306H33.7298H33.729H33.7282H33.7275H33.7267H33.7259H33.7251H33.7243H33.7235H33.7227H33.7219H33.7211H33.7203H33.7195H33.7187H33.7179H33.7171H33.7163H33.7155H33.7147H33.714H33.7132H33.7124H33.7116H33.7108H33.71H33.7092H33.7084H33.7076H33.7069H33.7061H33.7053H33.7045H33.7037H33.7029H33.7022H33.7014H33.7006H33.6998H33.699H33.6983H33.6975H33.6967H33.6959H33.6951H33.6944H33.6936H33.6928H33.692H33.6913H33.6905H33.6897H33.6889H33.6882H33.6874H33.6866H33.6859H33.6851H33.6843H33.6835H33.6828H33.682H33.6812H33.6805H33.6797H33.6789H33.6782H33.6774H33.6766H33.6759H33.6751H33.6743H33.6736H33.6728H33.6721H33.6713H33.6705H33.6698H33.669H33.6682H33.6675H33.6667H33.666H33.6652H33.6645H33.6637H33.6629H33.6622H33.6614H33.6607H33.6599H33.6592H33.6584H33.6577H33.6569H33.6562H33.6554H33.6547H33.6539H33.6532H33.6524H33.6517H33.6509H33.6502H33.6494H33.6487H33.6479H33.6472H33.6464H33.6457H33.645H33.6442H33.6435H33.6427H33.642H33.6412H33.6405H33.6398H33.639H33.6383H33.6375H33.6368H33.6361H33.6353H33.6346H33.6339H33.6331H33.6324H33.6317H33.6309H33.6302H33.6295H33.6287H33.628H33.6273H33.6265H33.6258H33.6251H33.6243H33.6236H33.6229H33.6221H33.6214H33.6207H33.62H33.6192H33.6185H33.6178H33.6171H33.6163H33.6156H33.6149H33.6142H33.6135H33.6127H33.612H33.6113H33.6106H33.6099H33.6091H33.6084H33.6077H33.607H33.6063H33.6055H33.6048H33.6041H33.6034H33.6027H33.602H33.6013H33.6006H33.5998H33.5991H33.5984H33.5977H33.597H33.5963H33.5956H33.5949H33.5942H33.5935H33.5927H33.592H33.5913H33.5906H33.5899H33.5892H33.5885H33.5878H33.5871H33.5864H33.5857H33.585H33.5843H33.5836H33.5829H33.5822H33.5815H33.5808H33.5801H33.5794H33.5787H33.578H33.5773H33.5766H33.5759H33.5752H33.5746H33.5739H33.5732H33.5725H33.5718H33.5711H33.5704H33.5697H33.569H33.5683H33.5676H33.567H33.5663H33.5656H33.5649H33.5642H33.5635H33.5628H33.5622H33.5615H33.5608H33.5601H33.5594H33.5587H33.5581H33.5574H33.5567H33.556H33.5553H33.5547H33.554H33.5533H33.5526H33.552H33.5513H33.5506H33.5499H33.5493H33.5486H33.5479H33.5472H33.5466H33.5459H33.5452H33.5445H33.5439H33.5432H33.5425H33.5419H33.5412H33.5405H33.5399H33.5392H33.5385H33.5379H33.5372H33.5365H33.5359H33.5352H33.5345H33.5339H33.5332H33.5326H33.5319H33.5312H33.5306H33.5299H33.5293H33.5286H33.5279H33.5273H33.5266H33.526H33.5253H33.5247H33.524H33.5233H33.5227H33.522H33.5214H33.5207H33.5201H33.5194H33.5188H33.5181H33.5175H33.5168H33.5162H33.5155H33.5149H33.5142H33.5136H33.5129H33.5123H33.5117H33.511H33.5104H33.5097H33.5091H33.5084H33.5078H33.5072H33.5065H33.5059H33.5052H33.5046H33.504H33.5033H33.5027H33.502H33.5014H33.5008H33.5001H33.4995H33.4989H33.4982H33.4976H33.497H33.4963H33.4957H33.4951H33.4944H33.4938H33.4932H33.4925H33.4919H33.4913H33.4907H33.49H33.4894H33.4888H33.4881H33.4875H33.4869H33.4863H33.4856H33.485H33.4844H33.4838H33.4832H33.4825H33.4819H33.4813H33.4807H33.4801H33.4794H33.4788H33.4782H33.4776H33.477H33.4763H33.4757H33.4751H33.4745H33.4739H33.4733H33.4727H33.472H33.4714H33.4708H33.4702H33.4696H33.469H33.4684H33.4678H33.4672H33.4666H33.4659H33.4653H33.4647H33.4641H33.4635H33.4629H33.4623H33.4617H33.4611H33.4605H33.4599H33.4593H33.4587H33.4581H33.4575H33.4569H33.4563H33.4557H33.4551H33.4545H33.4539H33.4533H33.4527H33.4521H33.4515H33.4509H33.4503H33.4497H33.4491H33.4485H33.448H33.4474H33.1781H33.0281V25.1547V26.3149V26.4649L37.6203 31.1381M37.7086 31.2593C37.7083 31.2595 37.7081 31.2597 37.7078 31.2599L37.6203 31.1381M37.7086 31.2593C37.7089 31.2591 37.7091 31.259 37.7094 31.2588L37.6203 31.1381M37.7086 31.2593C37.2882 31.5697 36.7998 31.7982 36.2455 31.946L36.2434 31.9466L36.2434 31.9466C35.7041 32.0822 35.1534 32.15 34.5915 32.15C33.8469 32.15 33.2261 32.1057 32.7318 32.0152M37.6203 31.1381C37.2164 31.4365 36.7453 31.6575 36.2069 31.8011C35.6796 31.9337 35.1412 32 34.5915 32C33.8512 32 33.2398 31.9558 32.7575 31.8674M32.7318 32.0152C32.7322 32.0153 32.7327 32.0153 32.7332 32.0154L32.7575 31.8674M32.7318 32.0152C32.7313 32.0151 32.7309 32.015 32.7304 32.0149L32.7575 31.8674M32.7318 32.0152L32.7575 31.8674M32.219 21.6575L32.1707 21.5145C32.1655 21.5169 32.1603 21.5193 32.1551 21.5218L32.219 21.6575ZM32.219 21.6575L32.3611 21.6094L32.3572 21.5977C32.3087 21.617 32.2627 21.6369 32.219 21.6575ZM31.933 30.326C31.9764 30.3464 32.0227 30.3664 32.0719 30.3859L32.0773 30.367L31.933 30.326ZM31.933 30.326L31.8691 30.4617C31.8765 30.4651 31.8839 30.4686 31.8915 30.4721L31.933 30.326ZM21.1165 31.4401L21.2007 31.3765L21.1693 31.2757L20.8327 30.1984L20.7759 30.0164L20.6124 30.1144C20.3698 30.2599 20.0642 30.3823 19.6926 30.4792L19.6916 30.4794C19.3373 30.5746 18.9136 30.6235 18.418 30.6235C17.8755 30.6235 17.3737 30.5274 16.911 30.3367C16.4616 30.1469 16.0649 29.8622 15.7202 29.4805C15.388 29.1002 15.1223 28.6214 14.9257 28.0403C14.7302 27.4626 14.6307 26.7833 14.6307 26C14.6307 25.1271 14.7361 24.3991 14.9419 23.8121C15.1498 23.2194 15.4207 22.7472 15.751 22.3901C16.0954 22.0299 16.48 21.7729 16.9052 21.6158C17.3379 21.456 17.7746 21.3765 18.2161 21.3765C19.2054 21.3765 19.948 21.503 20.4573 21.7434L20.6181 21.8193L20.6658 21.6479L21.0023 20.438L21.0383 20.3086L20.9137 20.2586C20.598 20.1319 20.2224 20.0356 19.789 19.9681C19.3508 19.8887 18.7919 19.85 18.1152 19.85C17.469 19.85 16.8346 19.9637 16.2129 20.1906C15.5855 20.4195 15.0178 20.7853 14.51 21.2854C14.0101 21.7779 13.607 22.4155 13.2981 23.1932L13.2981 23.1932L13.2976 23.1943C12.9974 23.9679 12.85 24.9046 12.85 26C12.85 27.0511 12.9862 27.9693 13.2624 28.7516L13.2626 28.7523C13.5375 29.5195 13.9119 30.1572 14.3886 30.6611C14.8634 31.1631 15.4203 31.5403 16.0579 31.7915L16.0578 31.7915L16.06 31.7923C16.6951 32.0312 17.3749 32.15 18.0983 32.15C18.6901 32.15 19.2494 32.0996 19.7757 31.9981C20.3088 31.8954 20.7577 31.7111 21.1165 31.4401ZM30.2854 31.4401L30.3697 31.3765L30.3382 31.2757L30.0017 30.1984L29.9449 30.0164L29.7814 30.1144C29.5387 30.2599 29.2332 30.3823 28.8616 30.4792L28.8605 30.4794C28.5063 30.5746 28.0825 30.6235 27.587 30.6235C27.0445 30.6235 26.5426 30.5274 26.0799 30.3367C25.6306 30.1469 25.2338 29.8622 24.8892 29.4805C24.557 29.1002 24.2913 28.6214 24.0946 28.0403C23.8991 27.4626 23.7997 26.7833 23.7997 26C23.7997 25.1271 23.905 24.3991 24.1109 23.8121C24.3188 23.2194 24.5896 22.7472 24.9199 22.3901C25.2643 22.0299 25.649 21.7729 26.0741 21.6158C26.5069 21.456 26.9436 21.3765 27.3851 21.3765C28.3743 21.3765 29.117 21.503 29.6262 21.7434L29.7871 21.8193L29.8348 21.6479L30.1713 20.438L30.2073 20.3086L30.0826 20.2586C29.7669 20.1319 29.3913 20.0356 28.958 19.9681C28.5197 19.8887 27.9608 19.85 27.2841 19.85C26.6379 19.85 26.0036 19.9637 25.3818 20.1906C24.7544 20.4195 24.1867 20.7853 23.679 21.2854C23.179 21.7779 22.776 22.4155 22.467 23.1932L22.4666 23.1943C22.1664 23.9679 22.019 24.9046 22.019 26C22.019 27.0511 22.1551 27.9693 22.4313 28.7516L22.4316 28.7523C22.7065 29.5195 23.0809 30.1572 23.5575 30.6611C24.0324 31.1631 24.5892 31.5403 25.2268 31.7915L25.2268 31.7915L25.229 31.7923C25.864 32.0312 26.5439 32.15 27.2673 32.15C27.8591 32.15 28.4183 32.0996 28.9446 31.9981C29.4777 31.8954 29.9267 31.7111 30.2854 31.4401ZM33.038 30.4936C33.0379 30.4935 33.0377 30.4935 33.0375 30.4935L33.0099 30.6409L33.0382 30.4936C33.0381 30.4936 33.0381 30.4936 33.038 30.4936ZM35.6954 30.4964C35.6947 30.4966 35.6939 30.4968 35.6932 30.497L35.7357 30.6409L35.6976 30.4958C35.6969 30.496 35.6961 30.4962 35.6954 30.4964ZM36.5388 30.089C36.5386 30.0891 36.5385 30.0892 36.5384 30.0893L36.6275 30.2099L36.5392 30.0887C36.5391 30.0888 36.5389 30.0889 36.5388 30.089Z" fill="#FFDD00" stroke="#FFDD00" stroke-width="0.3"/>
</svg>
