<svg width="69" height="70" viewBox="0 0 69 70" fill="none" xmlns="http://www.w3.org/2000/svg">
<g clip-path="url(#clip0_246_3666)">
<path d="M67.7159 15.048H47.2937V1.07486C47.2937 0.481271 46.8124 0 46.2188 0H22.572C21.9784 0 21.4971 0.481271 21.4971 1.07486V15.048H1.07486C0.481271 15.048 0 15.5293 0 16.1228V22.572V26.8714V33.3205V37.62C0 37.8026 0.0465789 37.9822 0.135275 38.1419L5.37428 47.5722V55.7956L3.24189 67.5237C3.18494 67.8373 3.26997 68.1599 3.47426 68.4046C3.67842 68.6493 3.98072 68.7908 4.29942 68.7908H6.44914C6.80852 68.7908 7.14415 68.6112 7.34345 68.3121L12.8983 59.9799L18.4531 68.3121C18.6524 68.6112 18.988 68.7908 19.3474 68.7908H21.4971C21.8158 68.7908 22.1181 68.6493 22.3223 68.4046C22.5266 68.1599 22.6116 67.8373 22.5547 67.5237L20.4223 55.7956V47.5217L23.6468 40.2665L26.8714 47.5217V55.7956L24.739 67.5237C24.6821 67.8373 24.7671 68.1599 24.9714 68.4046C25.1755 68.6493 25.4778 68.7908 25.7965 68.7908H27.9463C28.3056 68.7908 28.6413 68.6112 28.8406 68.3121L34.3954 59.9799L39.9502 68.3121C40.1495 68.6112 40.4851 68.7908 40.8445 68.7908H42.9942C43.3129 68.7908 43.6152 68.6493 43.8194 68.4046C44.0237 68.1599 44.1087 67.8373 44.0518 67.5237L41.9194 55.7956V47.5217L45.144 40.2665L48.3685 47.5217V55.7956L46.2361 67.5237C46.1792 67.8373 46.2642 68.1599 46.4685 68.4046C46.6727 68.6493 46.975 68.7908 47.2937 68.7908H49.4434C49.8028 68.7908 50.1384 68.6112 50.3377 68.3121L55.8925 59.9799L61.4473 68.3121C61.6466 68.6112 61.9823 68.7908 62.3417 68.7908H64.4914C64.8101 68.7908 65.1124 68.6493 65.3165 68.4046C65.5208 68.1599 65.6058 67.8373 65.5489 67.5237L63.4165 55.7956V47.5722L68.6555 38.1419C68.7442 37.9822 68.7908 37.8026 68.7908 37.62V33.3205V27.9463V23.6468V16.1228C68.7908 15.5293 68.3095 15.048 67.7159 15.048ZM55.2184 39.5172C55.1629 39.2395 55.2838 39.0404 55.3609 38.9465C55.4379 38.8524 55.6094 38.6948 55.8925 38.6948C56.1757 38.6948 56.3471 38.8524 56.4242 38.9465C56.5012 39.0404 56.6222 39.2395 56.5667 39.5171L56.0862 41.9194H55.6989L55.2184 39.5172ZM56.8721 50.3356L55.8925 51.8051L54.9129 50.3356L55.8925 46.9067L56.8721 50.3356ZM58.0866 37.5835C57.5456 36.9236 56.7459 36.5451 55.8925 36.5451C55.0391 36.5451 54.2394 36.9236 53.6985 37.5835C53.1574 38.2435 52.9431 39.1018 53.1104 39.9388L53.2977 40.8757L47.5375 34.3954H65.1209L58.4489 41.0675L58.6746 39.9387C58.8419 39.1018 58.6277 38.2435 58.0866 37.5835ZM33.7212 39.5172C33.6657 39.2395 33.7867 39.0404 33.8637 38.9465C33.9408 38.8524 34.1122 38.6948 34.3954 38.6948C34.6785 38.6948 34.85 38.8524 34.927 38.9465C35.0041 39.0404 35.125 39.2395 35.0695 39.5171L34.5891 41.9194H34.2017L33.7212 39.5172ZM35.375 50.3356L34.3954 51.8051L33.4158 50.3356L34.3954 46.9067L35.375 50.3356ZM36.5895 37.5835C36.0485 36.9236 35.2488 36.5451 34.3954 36.5451C33.542 36.5451 32.7423 36.9236 32.2013 37.5835C31.6602 38.2435 31.446 39.1018 31.6133 39.9388L31.8006 40.8757L26.0404 34.3954H31.1708H37.62H42.7504L36.9901 40.8757L37.1775 39.9387C37.3448 39.1018 37.1306 38.2435 36.5895 37.5835ZM12.2241 39.5172C12.1686 39.2395 12.2896 39.0404 12.3666 38.9465C12.4436 38.8524 12.6151 38.6948 12.8983 38.6948C13.1814 38.6948 13.3529 38.8524 13.4299 38.9465C13.5069 39.0404 13.6279 39.2395 13.5724 39.5171L13.0919 41.9194H12.7046L12.2241 39.5172ZM13.8779 50.3356L12.8983 51.8051L11.9187 50.3356L12.8983 46.9067L13.8779 50.3356ZM15.0923 37.5835C14.5514 36.9236 13.7516 36.5451 12.8983 36.5451C12.0449 36.5451 11.2452 36.9236 10.7042 37.5835C10.1631 38.2435 9.94885 39.1018 10.1161 39.9388L10.3419 41.0675L3.66986 34.3954H21.2533L15.493 40.8757L15.6804 39.9387C15.8477 39.1018 15.6334 38.2435 15.0923 37.5835ZM21.4971 25.7965H19.3474V23.6468H21.4971V25.7965ZM36.5451 32.2457H32.2457V23.6468H36.5451V32.2457ZM47.2937 24.7217H49.4434V26.8714H47.2937V24.7217ZM66.6411 26.8714H64.4914V24.7217H66.6411V26.8714ZM66.6411 17.1977V22.572H63.4165C62.8229 22.572 62.3417 23.0532 62.3417 23.6468V27.9463C62.3417 28.5398 62.8229 29.0211 63.4165 29.0211H66.6411V32.2457H47.2937V29.0211H50.5182C51.1118 29.0211 51.5931 28.5398 51.5931 27.9463V23.6468C51.5931 23.0532 51.1118 22.572 50.5182 22.572H47.2937V17.1977H66.6411ZM23.6468 2.14971H45.144V16.1228V23.6468V27.9463V32.2457H38.6948V22.572C38.6948 21.9784 38.2135 21.4971 37.62 21.4971H31.1708C30.5772 21.4971 30.096 21.9784 30.096 22.572V32.2457H23.6468V26.8714V22.572V16.1228V2.14971ZM21.4971 17.1977V21.4971H18.2726C17.679 21.4971 17.1977 21.9784 17.1977 22.572V26.8714C17.1977 27.465 17.679 27.9463 18.2726 27.9463H21.4971V32.2457H2.14971V27.9463H5.37428C5.96787 27.9463 6.44914 27.465 6.44914 26.8714V22.572C6.44914 21.9784 5.96787 21.4971 5.37428 21.4971H2.14971V17.1977H21.4971ZM2.14971 23.6468H4.29942V25.7965H2.14971V23.6468ZM2.14971 37.3414V35.9154L9.98847 43.7543C10.1901 43.9559 10.4634 44.0691 10.7486 44.0691H11.4733L9.71503 50.2229C9.62844 50.5261 9.67935 50.852 9.85425 51.1144L10.8899 52.6679H7.52399V47.2937C7.52399 47.111 7.47741 46.9314 7.38872 46.7717L2.14971 37.3414ZM19.9226 66.6411L13.7926 57.446C13.5933 57.147 13.2577 56.9674 12.8983 56.9674C12.5389 56.9674 12.2033 57.147 12.004 57.446L5.87392 66.6411H5.58736L7.50667 56.0847C7.51822 56.0214 7.52399 55.9569 7.52399 55.8925V54.8177H18.2726V55.8925C18.2726 55.9569 18.2783 56.0214 18.2899 56.0847L20.2092 66.6411H19.9226ZM18.3652 46.8571C18.3042 46.9945 18.2726 47.1433 18.2726 47.2937V52.6679H14.9066L15.9423 51.1144C16.1172 50.852 16.1681 50.5261 16.0815 50.2229L14.3233 44.0691H15.048C15.355 44.0691 15.6473 43.9378 15.8514 43.7083L22.572 36.1477V37.3919L18.3652 46.8571ZM24.7217 37.3919V36.1477L31.4423 43.7083C31.6463 43.9378 31.9387 44.0691 32.2457 44.0691H32.9704L31.2122 50.2229C31.1256 50.5261 31.1765 50.852 31.3514 51.1144L32.387 52.6679H29.0211V47.2937C29.0211 47.1433 28.9895 46.9945 28.9285 46.8571L24.7217 37.3919ZM41.4197 66.6411L35.2897 57.446C35.0904 57.147 34.7548 56.9674 34.3954 56.9674C34.036 56.9674 33.7004 57.147 33.5011 57.446L27.371 66.6411H27.0845L29.0038 56.0847C29.0153 56.0214 29.0211 55.9569 29.0211 55.8925V54.8177H39.7697V55.8925C39.7697 55.9569 39.7754 56.0214 39.787 56.0847L41.7063 66.6411H41.4197ZM39.8623 46.8571C39.8013 46.9945 39.7697 47.1433 39.7697 47.2937V52.6679H36.4038L37.4394 51.1144C37.6143 50.852 37.6652 50.5261 37.5786 50.2229L35.8204 44.0691H36.5451C36.8521 44.0691 37.1445 43.9378 37.3485 43.7083L44.0691 36.1477V37.3919L39.8623 46.8571ZM46.2188 37.3919V36.1477L52.9394 43.7083C53.1434 43.9378 53.4358 44.0691 53.7428 44.0691H54.4675L52.7093 50.2229C52.6227 50.5261 52.6736 50.852 52.8485 51.1144L53.8841 52.6679H50.5182V47.2937C50.5182 47.1433 50.4866 46.9945 50.4256 46.8571L46.2188 37.3919ZM62.9169 66.6411L56.7868 57.446C56.5875 57.147 56.2519 56.9674 55.8925 56.9674C55.5331 56.9674 55.1975 57.147 54.9982 57.446L48.8682 66.6411H48.5816L50.5009 56.0847C50.5125 56.0214 50.5182 55.9569 50.5182 55.8925V54.8177H61.2668V55.8925C61.2668 55.9569 61.2726 56.0214 61.2841 56.0847L63.2034 66.6411H62.9169ZM66.6411 37.3414L61.4021 46.7717C61.3134 46.9314 61.2668 47.111 61.2668 47.2937V52.6679H57.9009L58.9365 51.1144C59.1114 50.852 59.1623 50.5261 59.0758 50.2229L57.3175 44.0691H58.0422C58.3273 44.0691 58.6006 43.9559 58.8023 43.7543L66.6411 35.9154V37.3414ZM27.9463 10.7486H32.2457C32.8393 10.7486 33.3205 10.2673 33.3205 9.6737V5.37428C33.3205 4.78069 32.8393 4.29942 32.2457 4.29942H27.9463C27.3527 4.29942 26.8714 4.78069 26.8714 5.37428V9.6737C26.8714 10.2673 27.3527 10.7486 27.9463 10.7486ZM29.0211 6.44914H31.1708V8.59885H29.0211V6.44914ZM36.5451 10.7486H40.8445C41.4381 10.7486 41.9194 10.2673 41.9194 9.6737V5.37428C41.9194 4.78069 41.4381 4.29942 40.8445 4.29942H36.5451C35.9515 4.29942 35.4702 4.78069 35.4702 5.37428V9.6737C35.4702 10.2673 35.9515 10.7486 36.5451 10.7486ZM37.62 6.44914H39.7697V8.59885H37.62V6.44914ZM9.6737 27.9463H13.9731C14.5667 27.9463 15.048 27.465 15.048 26.8714V22.572C15.048 21.9784 14.5667 21.4971 13.9731 21.4971H9.6737C9.08012 21.4971 8.59885 21.9784 8.59885 22.572V26.8714C8.59885 27.465 9.08012 27.9463 9.6737 27.9463ZM10.7486 23.6468H12.8983V25.7965H10.7486V23.6468ZM54.8177 29.0211H59.1171C59.7107 29.0211 60.1919 28.5398 60.1919 27.9463V23.6468C60.1919 23.0532 59.7107 22.572 59.1171 22.572H54.8177C54.2241 22.572 53.7428 23.0532 53.7428 23.6468V27.9463C53.7428 28.5398 54.2241 29.0211 54.8177 29.0211ZM55.8925 24.7217H58.0422V26.8714H55.8925V24.7217ZM27.9463 19.3474H32.2457C32.8393 19.3474 33.3205 18.8661 33.3205 18.2726V13.9731C33.3205 13.3795 32.8393 12.8983 32.2457 12.8983H27.9463C27.3527 12.8983 26.8714 13.3795 26.8714 13.9731V18.2726C26.8714 18.8661 27.3527 19.3474 27.9463 19.3474ZM29.0211 15.048H31.1708V17.1977H29.0211V15.048ZM36.5451 19.3474H40.8445C41.4381 19.3474 41.9194 18.8661 41.9194 18.2726V13.9731C41.9194 13.3795 41.4381 12.8983 40.8445 12.8983H36.5451C35.9515 12.8983 35.4702 13.3795 35.4702 13.9731V18.2726C35.4702 18.8661 35.9515 19.3474 36.5451 19.3474ZM37.62 15.048H39.7697V17.1977H37.62V15.048Z" fill="#FFDD00"/>
</g>
<defs>
<clipPath id="clip0_246_3666">
<rect width="68.7908" height="70" fill="white"/>
</clipPath>
</defs>
</svg>
