<svg width="48" height="49" viewBox="0 0 48 49" fill="none" xmlns="http://www.w3.org/2000/svg">
<path d="M46.6562 29.6452H45.875V28.6903C46.3304 28.5241 46.7249 28.2168 47.0046 27.8103C47.2843 27.4037 47.4355 26.918 47.4375 26.4194C47.4375 25.1355 46.5 23.1936 45.0938 23.1936C43.6875 23.1936 42.75 25.1355 42.75 26.4194C42.752 26.918 42.9032 27.4037 43.1829 27.8103C43.4626 28.2168 43.8571 28.5241 44.3125 28.6903V29.6452H40.4062V28.6903C40.8616 28.5241 41.2562 28.2168 41.5359 27.8103C41.8156 27.4037 41.9667 26.918 41.9688 26.4194C41.9688 25.1355 41.0312 23.1936 39.625 23.1936C38.2188 23.1936 37.2812 25.1355 37.2812 26.4194C37.2833 26.918 37.4344 27.4037 37.7141 27.8103C37.9938 28.2168 38.3884 28.5241 38.8438 28.6903V29.6452H35.7188V11.0968C35.7188 10.8829 35.6364 10.6778 35.4899 10.5265C35.3434 10.3753 35.1447 10.2903 34.9375 10.2903H15.4062V7.06453H32.5938V7.87098C32.5938 8.08486 32.6761 8.28999 32.8226 8.44123C32.9691 8.59247 33.1678 8.67743 33.375 8.67743C33.5822 8.67743 33.7809 8.59247 33.9274 8.44123C34.0739 8.28999 34.1562 8.08486 34.1562 7.87098V6.25808C34.1562 6.04419 34.0739 5.83907 33.9274 5.68783C33.7809 5.53659 33.5822 5.45162 33.375 5.45162H27.9062V3.03227C27.9062 2.81839 27.8239 2.61326 27.6774 2.46202C27.5309 2.31078 27.3322 2.22582 27.125 2.22582H24.7812V1.41937C24.7812 1.20548 24.6989 1.00036 24.5524 0.849119C24.4059 0.69788 24.2072 0.612915 24 0.612915C23.7928 0.612915 23.5941 0.69788 23.4476 0.849119C23.3011 1.00036 23.2188 1.20548 23.2188 1.41937V2.22582H20.875C20.6678 2.22582 20.4691 2.31078 20.3226 2.46202C20.1761 2.61326 20.0938 2.81839 20.0938 3.03227V5.45162H14.625C14.4178 5.45162 14.2191 5.53659 14.0726 5.68783C13.9261 5.83907 13.8438 6.04419 13.8438 6.25808V10.2903H13.0625C12.8553 10.2903 12.6566 10.3753 12.5101 10.5265C12.3636 10.6778 12.2812 10.8829 12.2812 11.0968V29.6452H9.15625V28.6903C9.61165 28.5241 10.0062 28.2168 10.2859 27.8103C10.5656 27.4037 10.7167 26.918 10.7188 26.4194C10.7188 25.1355 9.78125 23.1936 8.375 23.1936C6.96875 23.1936 6.03125 25.1355 6.03125 26.4194C6.03325 26.918 6.18444 27.4037 6.46413 27.8103C6.74382 28.2168 7.13835 28.5241 7.59375 28.6903V29.6452H3.6875V28.6903C4.1429 28.5241 4.53743 28.2168 4.81712 27.8103C5.09681 27.4037 5.248 26.918 5.25 26.4194C5.25 25.1355 4.3125 23.1936 2.90625 23.1936C1.5 23.1936 0.5625 25.1355 0.5625 26.4194C0.564502 26.918 0.715691 27.4037 0.995381 27.8103C1.27507 28.2168 1.6696 28.5241 2.125 28.6903V29.6452H1.34375C1.13655 29.6452 0.937836 29.7301 0.791323 29.8814C0.64481 30.0326 0.5625 30.2377 0.5625 30.4516V48.1936C0.5625 48.4074 0.64481 48.6126 0.791323 48.7638C0.937836 48.915 1.13655 49 1.34375 49C1.55095 49 1.74966 48.915 1.89618 48.7638C2.04269 48.6126 2.125 48.4074 2.125 48.1936V34.4839H9.9375C10.1447 34.4839 10.3434 34.3989 10.4899 34.2477C10.6364 34.0964 10.7188 33.8913 10.7188 33.6774C10.7188 33.4635 10.6364 33.2584 10.4899 33.1072C10.3434 32.9559 10.1447 32.871 9.9375 32.871H2.125V31.2581H12.2812V36.2887C10.8297 36.9911 9.9375 39.5145 9.9375 40.9355C9.94009 41.6486 10.1715 42.3407 10.5955 42.9036C11.0196 43.4665 11.6124 43.8685 12.2812 44.0468V47.3871H9.9375V40.129C9.9375 39.9152 9.85519 39.71 9.70868 39.5588C9.56216 39.4076 9.36345 39.3226 9.15625 39.3226H4.46875C4.26155 39.3226 4.06284 39.4076 3.91632 39.5588C3.76981 39.71 3.6875 39.9152 3.6875 40.129V48.1936C3.6875 48.4074 3.76981 48.6126 3.91632 48.7638C4.06284 48.915 4.26155 49 4.46875 49H15.0063C15.2135 49 15.4122 48.915 15.5587 48.7638C15.7052 48.6126 15.7875 48.4074 15.7875 48.1936C15.7875 47.9797 15.7052 47.7746 15.5587 47.6233C15.4122 47.4721 15.2135 47.3871 15.0063 47.3871H13.8438V44.0468C14.5126 43.8685 15.1054 43.4665 15.5295 42.9036C15.9535 42.3407 16.1849 41.6486 16.1875 40.9355C16.1875 39.5145 15.2953 36.9903 13.8438 36.2887V36.0968H31.8125C32.0197 36.0968 32.2184 36.0118 32.3649 35.8606C32.5114 35.7093 32.5938 35.5042 32.5938 35.2903C32.5938 35.0765 32.5114 34.8713 32.3649 34.7201C32.2184 34.5688 32.0197 34.4839 31.8125 34.4839H13.8438V31.2581H34.1562V36.2887C32.7047 36.9911 31.8125 39.5145 31.8125 40.9355C31.8151 41.6486 32.0465 42.3407 32.4705 42.9036C32.8946 43.4665 33.4874 43.8685 34.1562 44.0468V47.3871H30.25V38.5161C30.25 38.3023 30.1677 38.0971 30.0212 37.9459C29.8747 37.7947 29.676 37.7097 29.4688 37.7097H18.5312C18.324 37.7097 18.1253 37.7947 17.9788 37.9459C17.8323 38.0971 17.75 38.3023 17.75 38.5161V48.1936C17.75 48.4074 17.8323 48.6126 17.9788 48.7638C18.1253 48.915 18.324 49 18.5312 49H43.5312C43.7384 49 43.9372 48.915 44.0837 48.7638C44.2302 48.6126 44.3125 48.4074 44.3125 48.1936V40.129C44.3125 39.9152 44.2302 39.71 44.0837 39.5588C43.9372 39.4076 43.7384 39.3226 43.5312 39.3226H38.8438C38.6366 39.3226 38.4378 39.4076 38.2913 39.5588C38.1448 39.71 38.0625 39.9152 38.0625 40.129V47.3871H35.7188V44.0468C36.3876 43.8685 36.9804 43.4665 37.4045 42.9036C37.8285 42.3407 38.0599 41.6486 38.0625 40.9355C38.0625 39.5145 37.1703 36.9903 35.7188 36.2887V34.4839H45.875V48.1936C45.875 48.4074 45.9573 48.6126 46.1038 48.7638C46.2503 48.915 46.4491 49 46.6562 49C46.8634 49 47.0622 48.915 47.2087 48.7638C47.3552 48.6126 47.4375 48.4074 47.4375 48.1936V30.4516C47.4375 30.2377 47.3552 30.0326 47.2087 29.8814C47.0622 29.7301 46.8634 29.6452 46.6562 29.6452ZM45.0938 24.8065C45.3461 24.8411 45.875 25.7581 45.875 26.4194C45.875 26.6333 45.7927 26.8384 45.6462 26.9896C45.4997 27.1409 45.3009 27.2258 45.0938 27.2258C44.8866 27.2258 44.6878 27.1409 44.5413 26.9896C44.3948 26.8384 44.3125 26.6333 44.3125 26.4194C44.3125 25.7581 44.8438 24.8411 45.0938 24.8065ZM39.625 24.8065C39.8773 24.8411 40.4062 25.7581 40.4062 26.4194C40.4062 26.6333 40.3239 26.8384 40.1774 26.9896C40.0309 27.1409 39.8322 27.2258 39.625 27.2258C39.4178 27.2258 39.2191 27.1409 39.0726 26.9896C38.9261 26.8384 38.8438 26.6333 38.8438 26.4194C38.8438 25.7581 39.375 24.8411 39.625 24.8065ZM26.3438 5.45162H24.7812V3.83872H26.3438V5.45162ZM21.6562 3.83872H23.2188V5.45162H21.6562V3.83872ZM8.375 24.8065C8.62734 24.8411 9.15625 25.7581 9.15625 26.4194C9.15625 26.6333 9.07394 26.8384 8.92743 26.9896C8.78091 27.1409 8.5822 27.2258 8.375 27.2258C8.1678 27.2258 7.96909 27.1409 7.82257 26.9896C7.67606 26.8384 7.59375 26.6333 7.59375 26.4194C7.59375 25.7581 8.125 24.8411 8.375 24.8065ZM2.90625 24.8065C3.15859 24.8411 3.6875 25.7581 3.6875 26.4194C3.6875 26.6333 3.60519 26.8384 3.45868 26.9896C3.31216 27.1409 3.11345 27.2258 2.90625 27.2258C2.69905 27.2258 2.50034 27.1409 2.35382 26.9896C2.20731 26.8384 2.125 26.6333 2.125 26.4194C2.125 25.7581 2.65625 24.8411 2.90625 24.8065ZM5.25 40.9355H8.375V47.3871H5.25V40.9355ZM19.3125 39.3226H23.2188V42.5484H22.4375C22.2303 42.5484 22.0316 42.6334 21.8851 42.7846C21.7386 42.9358 21.6562 43.141 21.6562 43.3549C21.6562 43.5687 21.7386 43.7739 21.8851 43.9251C22.0316 44.0763 22.2303 44.1613 22.4375 44.1613H23.2188V47.3871H19.3125V39.3226ZM24.7812 47.3871V44.1613H25.5625C25.7697 44.1613 25.9684 44.0763 26.1149 43.9251C26.2614 43.7739 26.3438 43.5687 26.3438 43.3549C26.3438 43.141 26.2614 42.9358 26.1149 42.7846C25.9684 42.6334 25.7697 42.5484 25.5625 42.5484H24.7812V39.3226H28.6875V47.3871H24.7812ZM39.625 40.9355H42.75V47.3871H39.625V40.9355ZM34.1562 11.9032V19.9678H13.8438V16.7419H31.8125C32.0197 16.7419 32.2184 16.657 32.3649 16.5057C32.5114 16.3545 32.5938 16.1494 32.5938 15.9355C32.5938 15.7216 32.5114 15.5165 32.3649 15.3652C32.2184 15.214 32.0197 15.129 31.8125 15.129H13.8438V11.9032H34.1562ZM13.0625 42.5484C12.6481 42.5484 12.2507 42.3785 11.9576 42.076C11.6646 41.7735 11.5 41.3633 11.5 40.9355C11.5 39.7258 12.4781 37.7097 13.0625 37.7097C13.6469 37.7097 14.625 39.7258 14.625 40.9355C14.625 41.3633 14.4604 41.7735 14.1674 42.076C13.8743 42.3785 13.4769 42.5484 13.0625 42.5484ZM13.8438 26.4194H17.6164C17.8236 26.4194 18.0223 26.3344 18.1688 26.1832C18.3153 26.0319 18.3977 25.8268 18.3977 25.6129C18.3977 25.399 18.3153 25.1939 18.1688 25.0427C18.0223 24.8914 17.8236 24.8065 17.6164 24.8065H13.8438V21.5807H34.1562V24.8065H20.5133C20.3061 24.8065 20.1074 24.8914 19.9609 25.0427C19.8143 25.1939 19.732 25.399 19.732 25.6129C19.732 25.8268 19.8143 26.0319 19.9609 26.1832C20.1074 26.3344 20.3061 26.4194 20.5133 26.4194H34.1562V29.6452H13.8438V26.4194ZM34.9375 42.5484C34.5231 42.5484 34.1257 42.3785 33.8326 42.076C33.5396 41.7735 33.375 41.3633 33.375 40.9355C33.375 39.7258 34.3531 37.7097 34.9375 37.7097C35.5219 37.7097 36.5 39.7258 36.5 40.9355C36.5 41.3633 36.3354 41.7735 36.0424 42.076C35.7493 42.3785 35.3519 42.5484 34.9375 42.5484ZM35.7188 32.871V31.2581H45.875V32.871H35.7188Z" fill="#FFDD00"/>
</svg>
