<svg width="48" height="48" viewBox="0 0 48 48" fill="none" xmlns="http://www.w3.org/2000/svg">
<path d="M47.2987 23L41.5487 16.379L39.9358 8.65319C39.8866 8.42369 39.7722 8.2133 39.6062 8.04733C39.4402 7.88136 39.2298 7.7669 39.0003 7.71771L31.2745 6.1048L24.6132 0.31448C24.3899 0.119364 24.1034 0.0118408 23.8068 0.0118408C23.5102 0.0118408 23.2237 0.119364 23.0003 0.31448L16.3794 6.06448L8.65356 7.67738C8.4249 7.72841 8.2155 7.84349 8.04984 8.00915C7.88418 8.17481 7.7691 8.38421 7.71807 8.61287L6.10517 16.3387L0.314846 23C0.11973 23.2233 0.012207 23.5098 0.012207 23.8064C0.012207 24.103 0.11973 24.3895 0.314846 24.6129L6.06485 31.2338L7.67775 38.9596C7.72259 39.2019 7.83986 39.4249 8.01408 39.5991C8.18831 39.7733 8.41128 39.8906 8.65356 39.9354L16.3794 41.5483L23.0003 47.2983C23.2229 47.4951 23.5097 47.6037 23.8068 47.6037C24.1038 47.6037 24.3907 47.4951 24.6132 47.2983L31.2342 41.5483L38.96 39.9354C39.2014 39.8885 39.4232 39.7706 39.5971 39.5967C39.771 39.4229 39.8889 39.201 39.9358 38.9596L41.5487 31.2338L47.2987 24.6129C47.4938 24.3895 47.6014 24.103 47.6014 23.8064C47.6014 23.5098 47.4938 23.2233 47.2987 23ZM39.4842 29.879C39.3485 30.0319 39.2566 30.2186 39.2181 30.4193L37.6858 37.6774L30.4277 39.2096C30.227 39.2482 30.0403 39.3401 29.8874 39.4758L23.8068 44.7742L17.7261 39.4758C17.5732 39.3401 17.3866 39.2482 17.1858 39.2096L9.92775 37.6774L8.39549 30.4193C8.35696 30.2186 8.26503 30.0319 8.12936 29.879L2.83904 23.8064L8.13743 17.7258C8.27309 17.5729 8.36503 17.3862 8.40356 17.1854L9.93581 9.92738L17.1939 8.39513C17.3946 8.3566 17.5813 8.26466 17.7342 8.129L23.8068 2.83867L29.8874 8.13706C30.0403 8.27273 30.227 8.36466 30.4277 8.40319L37.6858 9.93545L39.2181 17.1935C39.2566 17.3943 39.3485 17.5809 39.4842 17.7338L44.7745 23.8064L39.4842 29.879Z" fill="#FFDD00"/>
<path d="M12.5163 16.121C12.1955 16.121 11.8878 16.2484 11.6609 16.4753C11.4341 16.7021 11.3066 17.0098 11.3066 17.3306V30.2581C11.3066 30.5789 11.4341 30.8866 11.6609 31.1134C11.8878 31.3403 12.1955 31.4677 12.5163 31.4677C12.8371 31.4677 13.1448 31.3403 13.3717 31.1134C13.5985 30.8866 13.726 30.5789 13.726 30.2581V17.3548C13.7292 17.194 13.7003 17.0341 13.641 16.8845C13.5816 16.7349 13.493 16.5987 13.3804 16.4838C13.2677 16.3689 13.1333 16.2776 12.9849 16.2153C12.8365 16.153 12.6772 16.1209 12.5163 16.121Z" fill="#FFDD00"/>
<path d="M24.0649 16.121H17.6133C17.451 16.1188 17.29 16.1492 17.1397 16.2106C16.9895 16.2719 16.8531 16.3628 16.7388 16.478C16.6244 16.5931 16.5343 16.7301 16.474 16.8807C16.4136 17.0313 16.3842 17.1926 16.3875 17.3548V23.8064C16.389 24.0221 16.4475 24.2335 16.5568 24.4193V24.4677V24.5161C16.667 24.674 16.8144 24.8023 16.9861 24.8895C17.1577 24.9767 17.3482 25.0202 17.5407 25.0161H22.7988V29.0484H18.7665V27.8387C18.7665 27.5179 18.6391 27.2102 18.4122 26.9833C18.1854 26.7565 17.8777 26.629 17.5568 26.629C17.236 26.629 16.9283 26.7565 16.7015 26.9833C16.4746 27.2102 16.3472 27.5179 16.3472 27.8387V30.2581C16.3472 30.5789 16.4746 30.8866 16.7015 31.1134C16.9283 31.3403 17.236 31.4677 17.5568 31.4677H24.0085C24.3293 31.4677 24.637 31.3403 24.8638 31.1134C25.0907 30.8866 25.2181 30.5789 25.2181 30.2581V23.8064C25.2165 23.5944 25.161 23.3863 25.0568 23.2016C25.0542 23.1829 25.0542 23.1639 25.0568 23.1452V23.1048C24.9471 22.946 24.7999 22.8165 24.6284 22.7279C24.4568 22.6393 24.2661 22.5943 24.073 22.5968H18.8068V18.5645H22.8391V19.7742C22.8391 20.095 22.9665 20.4027 23.1934 20.6296C23.4203 20.8564 23.728 20.9839 24.0488 20.9839C24.3696 20.9839 24.6773 20.8564 24.9042 20.6296C25.131 20.4027 25.2585 20.095 25.2585 19.7742V17.3548C25.2617 17.1953 25.2333 17.0367 25.1749 16.8882C25.1166 16.7397 25.0294 16.6042 24.9185 16.4895C24.8075 16.3748 24.675 16.2832 24.5285 16.2199C24.382 16.1567 24.2245 16.1231 24.0649 16.121Z" fill="#FFDD00"/>
<path d="M35.5729 16.121H29.1213C28.8005 16.121 28.4928 16.2484 28.2659 16.4753C28.0391 16.7021 27.9116 17.0098 27.9116 17.3306V30.2581C27.9116 30.5789 28.0391 30.8866 28.2659 31.1134C28.4928 31.3403 28.8005 31.4677 29.1213 31.4677H35.5729C35.8937 31.4677 36.2014 31.3403 36.4283 31.1134C36.6551 30.8866 36.7826 30.5789 36.7826 30.2581V17.3548C36.7858 17.194 36.7569 17.0341 36.6975 16.8845C36.6382 16.7349 36.5496 16.5987 36.437 16.4838C36.3243 16.3689 36.1899 16.2776 36.0415 16.2153C35.8931 16.153 35.7338 16.1209 35.5729 16.121ZM34.3632 29.0726H30.331V18.5403H34.3632V29.0726Z" fill="#FFDD00"/>
</svg>
