<svg width="70" height="71" viewBox="0 0 70 71" fill="none" xmlns="http://www.w3.org/2000/svg">
<path d="M33.9277 0.17627C33.5684 0.185234 33.1869 0.198677 33.0826 0.205399C32.477 0.250221 32.2774 0.265907 31.8759 0.297279C31.6318 0.315201 31.3568 0.339851 31.2658 0.353294C31.1749 0.364502 30.8998 0.400352 30.6558 0.431725C30.4118 0.463097 30.1323 0.498955 30.0347 0.510155C29.8107 0.537048 29.5422 0.581863 29.1474 0.653572C28.9766 0.682701 28.7171 0.729759 28.5706 0.756645C28.0959 0.839561 27.9784 0.864212 27.4726 0.982971C27.1975 1.04572 26.938 1.10622 26.8959 1.11518C26.623 1.17345 26.1749 1.28548 25.9087 1.36167C24.8174 1.67539 24.5046 1.77175 23.7681 2.02496C23.3466 2.16838 22.8631 2.34092 22.6923 2.40815C21.4367 2.90562 21.175 3.01765 20.4407 3.3605C20.3365 3.40981 20.2034 3.47031 20.1413 3.49496C20.0259 3.54425 18.5441 4.29942 18.3334 4.41594C17.9141 4.64899 16.8871 5.25401 16.6142 5.4288C14.8396 6.56267 13.5331 7.53295 12.1112 8.77662C11.5011 9.30769 11.4279 9.37716 10.9577 9.83205C10.3587 10.4079 10.1546 10.6141 9.7243 11.069C9.47586 11.3312 9.26734 11.5508 9.26069 11.5575C9.22519 11.5911 8.98784 11.8578 8.88136 11.9833C8.16708 12.8146 7.90755 13.1283 7.47055 13.693C7.18883 14.0516 6.83169 14.5289 6.67641 14.7507C6.52113 14.9725 6.30818 15.2728 6.20836 15.4162C5.85344 15.9159 5.13472 17.0543 4.81307 17.619C4.69329 17.8274 4.50473 18.1613 4.3916 18.3584C4.13207 18.8133 3.48877 20.0906 3.24032 20.6396C3.13607 20.8727 3.04955 21.0654 3.04955 21.0699C3.04955 21.0721 3.00519 21.1707 2.95195 21.285C2.78336 21.6547 2.70129 21.8452 2.53935 22.2687C2.45062 22.4973 2.31309 22.8491 2.23545 23.053C2.1556 23.2569 2.01806 23.6446 1.92711 23.9157C1.83617 24.1869 1.71638 24.5387 1.66314 24.7C1.44353 25.3543 1.06643 26.7504 0.864567 27.6579C0.820202 27.8551 0.764746 28.0971 0.742563 28.1957C0.718162 28.2943 0.684888 28.4602 0.667142 28.5655C0.649396 28.6708 0.613904 28.8657 0.589503 29.0024C0.565102 29.1369 0.52961 29.3341 0.511864 29.4394C0.491899 29.5447 0.463062 29.715 0.443098 29.8203C0.398732 30.0668 0.37655 30.2304 0.310002 30.7503C0.196871 31.6489 0.168033 31.9021 0.145851 32.1844C0.103704 32.7133 0.054902 33.3676 0.0349376 33.6522C-0.0116459 34.3939 -0.0116459 36.684 0.0349376 37.3832C0.130323 38.777 0.17247 39.2431 0.254545 39.8481C0.267855 39.9333 0.303347 40.2111 0.334403 40.4643C0.387641 40.8968 0.660487 42.5057 0.731472 42.8105C0.806893 43.1309 0.833512 43.2475 0.908933 43.5791C1.03537 44.1348 1.0997 44.4127 1.13298 44.5203C1.1485 44.5763 1.25276 44.9393 1.36146 45.327C1.5855 46.1202 2.01141 47.4199 2.24654 48.0272C2.72347 49.2551 2.74787 49.3156 2.95417 49.7638C2.99632 49.8557 3.09614 50.082 3.176 50.268C3.55532 51.1397 4.69994 53.2999 5.16799 54.0326C5.23011 54.1312 5.4364 54.4539 5.62274 54.7497C5.93551 55.2404 6.55884 56.1502 6.93151 56.6544C7.48164 57.4028 8.69281 58.8773 9.19192 59.4106C10.2057 60.493 11.1373 61.4139 11.845 62.0347C12.0402 62.2072 12.3108 62.4447 12.4439 62.5613C12.7411 62.8234 13.9767 63.8049 14.3094 64.0447C15.1369 64.643 15.3387 64.7864 15.6382 64.9836C16.348 65.4497 16.9181 65.8105 17.2797 66.0211C17.4882 66.1421 17.7722 66.3079 17.9119 66.3908C18.0517 66.4715 18.2469 66.5836 18.3445 66.6373C18.4421 66.6889 18.6572 66.8076 18.8214 66.8973C19.4336 67.2312 21.013 67.9684 21.7606 68.2664C21.9935 68.3583 22.3662 68.5084 22.5924 68.5981C23.6151 69.0059 25.5871 69.6244 26.6519 69.8731C26.7916 69.9067 26.9469 69.9426 26.9957 69.9538C27.7588 70.1375 27.9274 70.1734 28.7703 70.3258C29.6909 70.4916 29.6576 70.4871 30.5782 70.6059C31.2902 70.6977 31.5209 70.7224 32.0311 70.7605C32.1908 70.7717 32.5192 70.7963 32.7632 70.8165C33.8457 70.9017 36.1948 70.9017 37.244 70.8165C37.477 70.7986 37.8053 70.7717 37.9761 70.7605C38.3731 70.7314 38.7591 70.6955 38.8301 70.6821C38.8612 70.6753 38.9654 70.6619 39.063 70.6507C39.693 70.5745 40.3563 70.4849 40.6158 70.4356C40.7267 70.4154 40.9197 70.3818 41.0484 70.3571C41.177 70.3347 41.3678 70.2989 41.4765 70.2809C41.583 70.2608 41.756 70.2294 41.8647 70.2115C41.9712 70.1913 42.1375 70.1577 42.2351 70.1331C42.3327 70.1084 42.4769 70.0748 42.5568 70.0591C42.7675 70.012 43.3798 69.8686 43.5994 69.8149C43.7036 69.7902 44.0475 69.6938 44.3647 69.6042C44.6819 69.5123 44.9969 69.4227 45.0634 69.4048C45.3296 69.3286 46.8802 68.8042 47.1774 68.69C47.8207 68.4412 48.6925 68.0804 49.1561 67.8698C49.4622 67.7309 49.8172 67.5673 49.9502 67.509C50.0811 67.4508 50.3495 67.3163 50.5492 67.2132C50.7466 67.1079 51.0882 66.9309 51.3078 66.8166C51.5274 66.7023 51.9777 66.4514 52.306 66.2609C52.6366 66.0682 52.9493 65.8867 53.0048 65.8553C53.0603 65.8239 53.2444 65.7096 53.4152 65.5976C53.586 65.4878 53.9165 65.2749 54.1494 65.1248C55.0633 64.531 56.7448 63.2694 57.5389 62.5747C58.4085 61.8151 58.617 61.6268 59.1937 61.0689C59.542 60.7327 59.8858 60.3944 59.959 60.3159C60.03 60.2375 60.2763 59.9753 60.5047 59.7356C61.3987 58.7899 62.6121 57.3042 63.3707 56.2286C63.577 55.9328 63.8099 55.6057 63.8854 55.5004C63.9586 55.395 64.0717 55.2292 64.136 55.1306C64.715 54.2231 64.9568 53.8377 64.9967 53.7637C65.03 53.6987 65.4271 53.0041 65.6045 52.6993C65.7931 52.3744 66.494 51.0008 66.6515 50.6489C66.6959 50.5504 66.8534 50.1963 67.002 49.8647C67.1507 49.5308 67.3459 49.0736 67.4346 48.8451C67.5233 48.6165 67.6631 48.2625 67.7429 48.0563C67.876 47.7157 67.9892 47.3863 68.3396 46.3353C68.4661 45.9499 68.8742 44.5158 68.9519 44.1841C68.9763 44.0788 69.0273 43.857 69.065 43.6911C69.2735 42.7858 69.3046 42.6514 69.3445 42.4228C69.38 42.2234 69.431 41.9276 69.4976 41.5511C69.6196 40.8699 69.6129 40.917 69.7438 39.8817C69.8281 39.2162 69.837 39.1221 69.8747 38.6268C69.8946 38.3736 69.919 38.0465 69.9301 37.8986C70.0233 36.7423 70.0233 34.3043 69.9301 33.148C69.919 33.0001 69.8946 32.6729 69.8747 32.4197C69.8569 32.1665 69.8148 31.7587 69.7837 31.5122C69.7527 31.2657 69.7194 30.9878 69.7083 30.8959C69.6617 30.4926 69.5952 30.0198 69.5641 29.854C69.5442 29.7554 69.5153 29.5895 69.4953 29.4842C69.4465 29.2041 69.3556 28.6842 69.3312 28.5543C69.3201 28.4915 69.2957 28.366 69.2757 28.2742C69.2536 28.1823 69.2292 28.0702 69.2203 28.0277C69.2114 27.9851 69.167 27.7879 69.1227 27.5907C68.9186 26.7033 68.9142 26.6854 68.6191 25.6412C68.5592 25.4305 68.4994 25.2199 68.486 25.1706C68.4705 25.1213 68.4151 24.9443 68.3596 24.7785C68.0446 23.8194 67.876 23.3309 67.723 22.941C67.6298 22.7012 67.49 22.3427 67.4124 22.1455C67.3348 21.9483 67.1507 21.5135 67.002 21.1819C66.8534 20.848 66.7114 20.5321 66.687 20.476C66.5628 20.1915 65.8197 18.7259 65.6711 18.4705C65.6134 18.3719 65.4914 18.1545 65.3982 17.9887C65.0544 17.3725 64.3024 16.1445 64.0406 15.7703C63.3508 14.7843 63.058 14.372 62.8982 14.1681C62.794 14.0314 62.5455 13.7154 62.3503 13.4622C61.8446 12.8124 61.0149 11.851 60.3295 11.1273C59.7195 10.4797 58.7168 9.49817 58.251 9.09257C58.1024 8.9626 57.8118 8.70939 57.6055 8.53012C57.255 8.22537 56.2834 7.43883 55.9107 7.16097C55.487 6.84501 54.5398 6.175 54.2692 6.00021C54.1051 5.89265 53.7745 5.67977 53.5372 5.5274C53.2998 5.37278 52.9493 5.15766 52.7608 5.04786C52.5722 4.9403 52.2683 4.76327 52.0842 4.65571C51.9023 4.54815 51.6361 4.40025 51.4964 4.32631C50.8974 4.01035 50.0967 3.60252 49.9436 3.53529C49.8526 3.49496 49.6841 3.41877 49.5687 3.36498C49.4556 3.3112 49.358 3.26639 49.3535 3.26639C49.3513 3.26639 49.2604 3.22605 49.1517 3.17451C49.0452 3.12298 48.901 3.05799 48.8345 3.02662C48.6969 2.96387 48.0292 2.69273 47.4259 2.45521C46.9778 2.27818 45.5603 1.78744 45.1854 1.67764C44.3092 1.42442 43.9033 1.30789 43.7657 1.27204C43.6814 1.24963 42.7254 1.02555 42.6233 1.00314C42.5812 0.994179 42.4326 0.960564 42.2928 0.926949C42.0688 0.873169 41.9468 0.848526 41.5475 0.77906C41.4876 0.767853 41.3523 0.743202 41.248 0.725273C40.4339 0.575142 40.2032 0.539284 39.4179 0.442932C39.2227 0.418282 39.0031 0.389153 38.9299 0.377945C38.8013 0.355537 38.3221 0.312965 37.6655 0.263664C37.4947 0.250221 37.2352 0.230049 37.0888 0.216606C36.776 0.191956 35.2875 0.149384 34.8705 0.156105C34.713 0.15834 34.2871 0.167305 33.9277 0.17627ZM34.9925 1.0009C34.9925 1.01211 34.9836 1.02555 34.9748 1.03003C34.9637 1.03227 34.5777 1.79192 34.1163 2.71738C33.6549 3.64061 33.1159 4.7207 32.9184 5.11508C32.721 5.50947 32.2419 6.46631 31.8537 7.24388C31.4655 8.01921 30.993 8.96709 30.8 9.35027C30.607 9.73121 30.1789 10.5895 29.8461 11.255C29.5134 11.9205 29.0099 12.9289 28.7259 13.4958C28.442 14.0628 27.9429 15.0599 27.6168 15.7143C27.2907 16.3663 26.8071 17.3344 26.5409 17.8655C26.2747 18.3943 25.7756 19.3937 25.4318 20.0839C25.088 20.7741 24.6576 21.6301 24.478 21.9886C24.2983 22.3449 23.808 23.3241 23.391 24.1622C22.974 25.0003 22.4882 25.9683 22.3152 26.3134C22.1421 26.6585 21.7118 27.5145 21.3613 28.2181C21.0108 28.9195 20.5206 29.8988 20.2744 30.3918C20.0281 30.8847 19.5579 31.8214 19.2318 32.4757C18.9057 33.1278 18.4421 34.0555 18.2003 34.5373C17.9585 35.0168 17.4594 36.0163 17.0911 36.7557C16.7229 37.4952 16.2327 38.4722 16.0042 38.9294C15.7757 39.3842 15.3321 40.2716 15.0171 40.9013C14.7021 41.5287 14.2296 42.4766 13.9634 43.0077C13.6972 43.5365 13.2181 44.4956 12.8986 45.1365C12.5792 45.7774 12.12 46.6939 11.8782 47.1756C11.4679 47.9936 11.2394 48.4529 9.8086 51.31C9.50469 51.9195 9.05217 52.8226 8.80594 53.3155C8.55972 53.8085 8.15821 54.6108 7.91642 55.097C7.67463 55.5833 7.47277 55.9866 7.46611 55.9934C7.46168 56.0001 7.45502 55.9934 7.45058 55.9821C7.44393 55.9687 7.29531 55.7513 7.11563 55.5004C6.37251 54.4494 5.50517 53.0444 4.89737 51.9038C4.32284 50.826 3.67954 49.4411 3.30022 48.4753C3.18487 48.1795 3.04512 47.8232 2.98966 47.6843C2.62587 46.7589 2.01584 44.7511 1.76296 43.6441C1.69863 43.3685 1.61212 42.9898 1.56997 42.806C1.52783 42.62 1.47903 42.3847 1.46128 42.2794C1.44132 42.1741 1.40804 41.9769 1.38364 41.8424C1.20396 40.8341 1.18178 40.7063 1.14407 40.3747C1.13076 40.2694 1.11079 40.108 1.0997 40.0162C1.08861 39.9243 1.05756 39.6912 1.03316 39.5008C1.00875 39.3103 0.973262 38.9562 0.953298 38.7165C0.935552 38.4767 0.911151 38.1585 0.897841 38.0106C0.831293 37.1994 0.82242 36.9036 0.82242 35.5121C0.82242 34.1138 0.831293 33.8561 0.897841 33.0471C0.908933 32.906 0.935552 32.5833 0.953298 32.3301C0.973262 32.0769 0.993226 31.8461 0.997663 31.8147C1.00875 31.7654 1.08639 31.1536 1.14185 30.6943C1.17734 30.3918 1.2084 30.1923 1.24167 29.9996C1.26164 29.8943 1.28604 29.7576 1.29713 29.6971C1.30822 29.6344 1.33262 29.4932 1.35258 29.3834C1.37255 29.2713 1.39695 29.1302 1.40804 29.0697C1.47681 28.6641 1.50121 28.5431 1.55445 28.3167C1.58772 28.1756 1.62099 28.0254 1.62987 27.9829C1.6942 27.6848 1.88275 26.8826 1.93155 26.7168C1.96261 26.6047 1.99588 26.4837 2.00697 26.4479C2.21992 25.621 2.74565 23.9897 3.03846 23.2435C3.11832 23.0328 3.25142 22.6967 3.33127 22.4928C3.78824 21.3231 4.58459 19.6783 5.32993 18.3696C5.68929 17.7355 5.88227 17.4195 6.43684 16.5434C6.67419 16.1691 7.49051 15.0061 7.75892 14.6611C7.85431 14.5378 8.08279 14.2443 8.26469 14.0067C8.4488 13.7692 8.73939 13.4129 8.91464 13.2112C9.08766 13.0096 9.33167 12.725 9.45811 12.5771C9.8574 12.111 10.8179 11.1093 11.4324 10.52C11.927 10.0449 12.4616 9.56315 13.1981 8.92451C13.5486 8.622 14.62 7.79513 15.2123 7.36713C15.8578 6.90327 17.0335 6.1257 17.4793 5.86576C18.675 5.1711 19.0809 4.9515 20.0747 4.44731C20.454 4.25684 21.6985 3.69663 22.1066 3.53305C22.3307 3.44341 22.6945 3.3 22.9141 3.21037C23.4642 2.99077 25.017 2.47762 25.82 2.24905C26.3657 2.09443 27.0179 1.93085 27.4726 1.83225C27.5148 1.82329 27.6811 1.78519 27.8431 1.7471C28.0028 1.70901 28.1935 1.66643 28.2645 1.65523C28.3998 1.63058 28.513 1.6104 28.8368 1.55215C29.7175 1.39081 30.17 1.32358 30.9996 1.22498C31.1039 1.21378 31.2037 1.20033 31.2215 1.19361C31.2614 1.18241 31.6762 1.14431 32.0644 1.11518C32.2175 1.10398 32.5524 1.07709 32.8075 1.05692C33.0648 1.03675 33.5972 1.01434 33.9943 1.00538C34.3914 0.996422 34.7773 0.987457 34.855 0.985214C34.9304 0.982971 34.9925 0.989693 34.9925 1.0009ZM36.2902 1.01434C36.5475 1.02106 36.9557 1.04124 37.1997 1.05916C37.4437 1.07933 37.7787 1.10398 37.9428 1.11518C38.3776 1.14655 38.6793 1.18017 39.1961 1.24963C39.2826 1.26083 39.4823 1.28548 39.6398 1.30566C40.0612 1.35944 40.3097 1.39753 40.6713 1.46251C40.8487 1.49612 41.1282 1.54543 41.2924 1.57455C41.8935 1.68436 41.9246 1.68884 42.6233 1.85466C42.8984 1.91965 43.2223 1.99583 43.3443 2.02496C44.185 2.21992 46.1504 2.84287 47.0377 3.19244C47.9361 3.54874 48.3642 3.72576 48.7568 3.90503C48.9897 4.01035 49.2737 4.14032 49.389 4.19186C49.582 4.27701 50.7466 4.86635 51.1747 5.09267C51.3344 5.17783 52.2217 5.68649 52.5501 5.88369C52.7209 5.98453 53.5039 6.48647 53.9032 6.75089C54.9302 7.42987 56.2812 8.46738 57.3304 9.38388C57.967 9.93961 57.9648 9.93961 58.5283 10.4797C59.1405 11.069 59.8903 11.8376 60.3184 12.3194C60.6645 12.7093 61.3832 13.563 61.6471 13.8992C61.8202 14.121 62.0531 14.419 62.164 14.5602C62.3769 14.8291 63.1866 15.9675 63.4062 16.3036C63.6303 16.6442 64.2114 17.5674 64.3179 17.7534C64.4488 17.9775 64.9191 18.8021 65.0278 18.9971C65.2185 19.3399 65.884 20.68 66.0704 21.1035C66.3099 21.6413 66.3432 21.7152 66.4297 21.9102C66.4674 21.9908 66.6005 22.3225 66.7292 22.6497C66.8556 22.9768 66.9976 23.3331 67.0397 23.4452C67.2238 23.9135 67.6653 25.2759 67.8893 26.0781C68.0845 26.7728 68.2886 27.5974 68.4661 28.4086C68.577 28.9106 68.8121 30.3111 68.8765 30.8287C68.9164 31.1648 68.943 31.3755 68.9763 31.6175C69.0029 31.8102 69.0517 32.357 69.0872 32.8567C69.1005 33.0539 69.1227 33.3295 69.1338 33.4707C69.2003 34.2662 69.1981 36.7737 69.1316 37.6185C69.1182 37.7731 69.0983 38.0285 69.0872 38.1899C69.0406 38.7994 69.0184 39.0705 68.9962 39.2431C68.9851 39.3417 68.9652 39.4985 68.9541 39.5904C68.8742 40.2582 68.7944 40.861 68.7655 41.0133C68.7456 41.1119 68.7212 41.2486 68.7101 41.3158C68.5504 42.2211 68.4927 42.5349 68.4306 42.7948C68.3995 42.936 68.364 43.0884 68.3552 43.1309C68.2243 43.7516 68.069 44.3499 67.7207 45.5734C67.6342 45.8827 67.1351 47.3504 66.9954 47.7134C66.727 48.4103 66.4985 48.9862 66.4408 49.114C66.4097 49.1812 66.2678 49.4994 66.1258 49.8198C65.8685 50.3957 65.1941 51.7604 64.9723 52.1503C64.908 52.2601 64.7594 52.5223 64.6396 52.7329C64.5198 52.9413 64.4022 53.1497 64.38 53.1923C64.2469 53.4343 63.3619 54.8281 63.2199 55.0208C63.1844 55.0701 63.0136 55.3099 62.845 55.5519C62.6742 55.7939 62.5344 55.9911 62.5322 55.9866C62.53 55.9844 62.2616 55.4466 61.9333 54.7945C61.6072 54.1402 61.1236 53.1721 60.8574 52.6433C60.5912 52.1122 60.0988 51.124 59.7594 50.4473C59.42 49.7683 58.9653 48.8608 58.7501 48.4305C58.5327 47.998 58.0891 47.1107 57.763 46.4586C57.4369 45.8043 56.9777 44.8877 56.7426 44.4194C56.5074 43.9511 56.0394 43.0122 55.7 42.3354C54.6263 40.1865 53.9653 38.8644 53.5261 37.9882C53.291 37.5199 52.8273 36.5922 52.4946 35.9266C51.8934 34.7255 51.3167 33.5715 50.405 31.7475C50.141 31.2231 49.6752 30.2909 49.3668 29.6747C49.0585 29.0585 48.5905 28.1195 48.3243 27.5907C48.0581 27.0596 47.5856 26.1118 47.2706 25.4843C46.9556 24.8546 46.4964 23.9381 46.2502 23.4452C46.004 22.9522 45.5182 21.9841 45.1743 21.2939C44.8305 20.6038 44.3514 19.6447 44.1096 19.1651C43.504 17.9573 42.7453 16.438 42.0022 14.9524C41.6584 14.2622 41.1593 13.2628 40.8931 12.7339C40.6269 12.2029 40.1389 11.2259 39.8061 10.5603C39.4734 9.89479 38.9943 8.93571 38.7414 8.43153C38.4885 7.92509 38.0293 7.00859 37.721 6.39236C37.1531 5.25626 36.674 4.29942 35.6048 2.16165L35.0125 0.980736L35.4184 0.991936C35.6425 0.998657 36.0351 1.00762 36.2902 1.01434ZM35.17 7.30438C35.6846 8.22537 36.0107 8.80799 36.5675 9.80964C36.7294 10.0987 36.969 10.5267 37.0999 10.762C37.2307 10.995 37.4548 11.3984 37.599 11.6583C37.7432 11.916 37.9184 12.2297 37.9872 12.353C38.0559 12.4762 38.1469 12.6376 38.1868 12.7115C38.2511 12.8325 38.4619 13.2068 38.7303 13.6863C38.9366 14.0516 39.713 15.4431 39.906 15.7927C40.0191 15.9966 40.1943 16.3081 40.2942 16.4873C40.394 16.6666 40.5892 17.0139 40.7267 17.2604C40.8643 17.5069 40.9973 17.7489 41.0262 17.7982C41.0528 17.8475 41.1903 18.094 41.3323 18.3472C41.6761 18.968 41.8381 19.257 42.1619 19.8374C42.315 20.1085 42.5568 20.541 42.701 20.801C42.8452 21.0587 43.0448 21.4172 43.1446 21.5965C43.2444 21.7757 43.4641 22.1679 43.6326 22.4704C44.1384 23.3779 44.7351 24.449 44.7817 24.532C44.8061 24.5745 44.9325 24.8009 45.0634 25.0361C45.2875 25.4417 45.5381 25.8899 46.0572 26.8176C46.1836 27.0462 46.421 27.4697 46.5807 27.7588C46.7426 28.0478 47.0976 28.6842 47.3704 29.1705C47.641 29.6568 47.976 30.2573 48.1135 30.5038C48.2511 30.7503 48.3864 30.9923 48.413 31.0416C48.4418 31.0909 48.5705 31.3217 48.7014 31.557C48.83 31.79 49.0563 32.1934 49.2005 32.4533C49.7994 33.5244 49.9236 33.7485 50.1321 34.1228C50.2519 34.3379 50.4116 34.6247 50.4871 34.7614C50.5647 34.8958 50.7932 35.3059 50.9973 35.6689C51.2013 36.0319 51.3877 36.3636 51.4121 36.4017L51.4564 36.4756H34.977C25.9154 36.4756 18.5108 36.4667 18.5264 36.4577C18.5397 36.4487 18.7282 36.1283 18.9456 35.7474C19.1608 35.3642 19.4248 34.9003 19.5312 34.7166C19.6377 34.5306 19.9727 33.9368 20.2744 33.3945C20.8444 32.3704 21.277 31.5951 21.5987 31.0192C21.7029 30.8332 22.0357 30.2394 22.3373 29.6971C23.1559 28.2293 23.4287 27.7386 23.9123 26.8736C24.1541 26.4412 24.5068 25.807 24.6998 25.4619C24.8928 25.1168 25.2965 24.3908 25.6004 23.8485C25.9021 23.3062 26.2304 22.7169 26.3302 22.5376C26.43 22.3583 26.7339 21.8138 27.0068 21.3276C27.2774 20.8413 27.6146 20.2363 27.7543 19.9831C27.8941 19.7298 28.0715 19.4116 28.1492 19.2772C28.2867 19.0329 28.3821 18.8604 29.1807 17.4285C29.4047 17.0274 29.6687 16.5546 29.7685 16.3753C29.8683 16.196 30.068 15.8375 30.2122 15.5798C30.3563 15.3199 30.556 14.9636 30.6558 14.7843C30.7579 14.605 30.9087 14.3339 30.9952 14.1793C31.0795 14.0247 31.2769 13.6728 31.4322 13.395C31.5875 13.1171 31.8071 12.725 31.9202 12.5211C32.0334 12.3171 32.233 11.9586 32.3639 11.7256C32.4948 11.4903 32.7388 11.0533 32.9073 10.7508C33.3288 9.99339 34.0564 8.68922 34.2383 8.3643C34.3204 8.2164 34.4956 7.90269 34.6265 7.66964C34.7574 7.43435 34.8883 7.20131 34.9193 7.14752C34.9482 7.09599 34.9836 7.05341 34.9992 7.05341C35.0147 7.05341 35.0923 7.16769 35.17 7.30438ZM52.011 37.484C52.1108 37.6745 52.275 37.9815 52.3792 38.1675C52.4813 38.3512 52.6543 38.6605 52.7608 38.8509C52.9316 39.1557 53.1734 39.5904 54.2027 41.4391C54.5221 42.0105 54.4888 41.9522 54.928 42.7388C55.1432 43.1197 55.3872 43.5589 55.4737 43.7135C55.5602 43.8682 55.7111 44.1393 55.8109 44.3186C55.9129 44.4978 56.1104 44.8541 56.2545 45.1141C56.3987 45.3718 56.5984 45.7303 56.6982 45.9096C56.8002 46.0888 56.9023 46.2703 56.9245 46.3129C56.9489 46.3555 57.0021 46.4519 57.042 46.5258C57.082 46.5998 57.133 46.6894 57.1529 46.7275C57.2727 46.9404 57.6521 47.6216 58.0846 48.3969C58.3575 48.8832 58.5948 49.3112 58.617 49.3493C58.637 49.3851 58.6813 49.4658 58.7168 49.5285C58.7501 49.589 58.8588 49.7862 58.9608 49.9655C59.0606 50.1448 59.1671 50.3352 59.1982 50.3913C59.2292 50.4473 59.3468 50.6579 59.4599 50.8618C59.5753 51.0657 59.7749 51.422 59.9036 51.6573C60.0345 51.8904 60.4116 52.5671 60.7399 53.1587C61.0704 53.7503 61.5717 54.6466 61.8512 55.153C62.1329 55.6572 62.3769 56.0897 62.3947 56.1099C62.4324 56.1502 62.4945 56.0628 61.7292 57.0488C61.2878 57.6202 60.4116 58.6375 59.8614 59.2202C59.5997 59.4958 59.369 59.7423 59.3512 59.7647C59.2758 59.8543 58.0136 61.0621 57.7519 61.2952C56.2812 62.5949 54.9436 63.6257 53.6259 64.4772C53.3264 64.6721 53.0137 64.876 52.9272 64.9343C52.7564 65.0508 51.6029 65.7231 51.3411 65.8598C51.2501 65.9068 51.0882 65.9965 50.984 66.057C50.8775 66.1175 50.7821 66.1668 50.7688 66.1668C50.7422 66.1668 50.873 65.862 51.1392 65.3063C51.2368 65.0979 51.3189 64.9253 51.3189 64.9209C51.3189 64.9186 51.4232 64.6901 51.5474 64.4144C51.8868 63.675 52.306 62.6531 52.5589 61.9473C52.763 61.3781 53.1113 60.2039 53.1601 59.926C53.1712 59.8633 53.2067 59.6728 53.2377 59.5003C53.3752 58.7473 53.3752 58.7294 53.4063 57.73C53.4573 56.1435 53.4351 55.2875 53.3353 54.7049C53.2776 54.3822 53.2399 54.1693 53.1933 53.9094C53.1201 53.5015 52.7896 52.361 52.5523 51.6999C52.1818 50.6579 51.8557 49.8938 50.9729 48.0003L50.8864 47.8143H37.5834H24.2783V48.733V49.6518H36.5786H48.881L49.1872 50.2837C49.5687 51.0725 49.9414 51.9038 50.0944 52.3072C50.1321 52.4058 50.2164 52.6276 50.283 52.8002C50.4094 53.1296 50.4627 53.2931 50.598 53.7525C50.6423 53.9071 50.6978 54.0931 50.72 54.1671C50.7577 54.2858 50.8376 54.6757 50.9507 55.2651C51.0217 55.6415 51.0572 56.3429 51.0439 57.0824C51.0261 58.1109 50.9884 58.9849 50.9529 59.1753C50.9352 59.2672 50.9152 59.3994 50.9085 59.4667C50.8997 59.5339 50.8841 59.6101 50.8753 59.6347C50.8642 59.6594 50.8353 59.7849 50.8109 59.9148C50.771 60.1255 50.5935 60.7708 50.4738 61.1361C50.4494 61.21 50.4161 61.3176 50.3983 61.3781C50.3828 61.4364 50.3229 61.5932 50.2675 61.7254C50.212 61.8576 50.1321 62.0548 50.09 62.1669C50.0479 62.2767 49.9724 62.4582 49.9258 62.5702C49.6353 63.2447 49.5975 63.3075 49.3158 63.5853L49.1273 63.7691L36.8403 63.7646C27.7854 63.7601 24.5423 63.7511 24.5201 63.7332C24.5024 63.7198 24.4402 63.6996 24.3781 63.6929C24.2118 63.6682 23.8613 63.5696 23.7348 63.5114C23.6749 63.4822 23.564 63.4329 23.4908 63.406C23.2468 63.3097 23.0228 63.1461 22.7056 62.8369C22.4349 62.5725 22.3906 62.5187 22.2686 62.2991C22.1931 62.1646 22.1155 61.9988 22.0955 61.9271C22.0623 61.8106 22.0601 60.9478 22.0601 51.1106V40.4195L35.0746 40.424L48.0913 40.4307L48.3021 40.5248C48.6637 40.6839 48.9077 40.852 49.1983 41.1455C49.48 41.4279 49.6996 41.7573 49.6996 41.8985C49.6996 41.9433 49.7196 41.9433 50.6534 41.9433H51.6073V40.2851V38.6268H36.0018H20.3964V52.408V66.1892H35.536C45.6135 66.1892 50.6756 66.1959 50.6756 66.2116C50.6756 66.2228 50.6623 66.234 50.649 66.234C50.6179 66.234 50.6113 66.2385 50.3318 66.3908C50.0856 66.5253 49.4023 66.8614 49.3779 66.8614C49.3691 66.8614 49.2981 66.895 48.7679 67.1393C47.7475 67.6143 45.8487 68.318 44.7085 68.6451C44.4334 68.7236 44.1739 68.7975 44.1318 68.811C43.7147 68.9342 43.535 68.9813 43.2001 69.0597C42.9871 69.1112 42.7498 69.165 42.6766 69.1807C42.5035 69.2188 42.2706 69.2748 42.1131 69.3151C41.9712 69.3532 40.587 69.6087 40.2276 69.6647C39.9947 69.7006 38.7037 69.8664 38.4863 69.8866C38.2023 69.9157 37.1842 69.9919 36.7006 70.0232C36.1615 70.0591 33.7747 70.0591 33.2623 70.0232C33.0493 70.0098 32.6855 69.9829 32.4526 69.965C32.2219 69.9471 31.8958 69.9202 31.7317 69.9067C31.5675 69.8955 31.3679 69.8754 31.288 69.8642C31.2082 69.8529 30.9398 69.8171 30.6891 69.7857C30.1922 69.723 29.6776 69.649 29.5023 69.6177C29.4424 69.6065 29.3027 69.5818 29.1918 69.5616C29.0831 69.5415 28.9433 69.5168 28.8812 69.5056C28.8213 69.4944 28.6816 69.4698 28.5706 69.4496C28.462 69.4294 28.3222 69.4048 28.2601 69.3936C28.0738 69.3622 26.5143 68.9947 26.2637 68.9252C25.627 68.746 24.7952 68.4995 24.5445 68.4143C24.3804 68.3583 24.0299 68.2395 23.7681 68.1499C22.8165 67.825 21.5321 67.2872 20.1302 66.6306C20.0392 66.588 19.8972 66.5231 19.8174 66.485C19.7353 66.4491 19.6643 66.4088 19.6555 66.3953C19.6466 66.3819 19.5978 66.3505 19.5468 66.3259C19.4957 66.3012 19.4292 66.2609 19.3981 66.2362L19.3427 66.1892H19.7819H20.2189V52.2848V38.3803H35.9131H51.6073V37.5557V36.7333L51.7204 36.935C51.7825 37.0448 51.9134 37.2935 52.011 37.484ZM18.3689 65.6895C18.3644 65.6939 18.218 65.6133 18.0428 65.5102C17.8675 65.4071 17.6235 65.2659 17.5015 65.1965C17.3795 65.1248 17.0956 64.9477 16.8693 64.8021C16.6431 64.6542 16.3303 64.4503 16.1706 64.3494C15.7713 64.0917 14.6466 63.2806 14.2185 62.94C14.0233 62.7853 13.726 62.55 13.5575 62.4156C13.0495 62.0145 12.0823 61.1562 11.439 60.5378C10.8512 59.9708 9.81525 58.893 9.48029 58.5009C9.38935 58.3933 9.1409 58.102 8.92573 57.851C8.71278 57.6 8.32014 57.1138 8.05395 56.7709C7.61917 56.2085 7.57481 56.1435 7.60364 56.1099C7.63248 56.0763 7.9142 55.5743 8.83922 53.9094C8.99449 53.6315 9.23407 53.199 9.37604 52.9458C9.518 52.6926 9.87071 52.0584 10.1635 51.5341C10.4563 51.0097 10.7891 50.4159 10.9022 50.212C11.1928 49.6944 11.703 48.7801 12.089 48.0832C12.3574 47.5992 13.0894 46.2905 13.2158 46.0664C13.2402 46.0239 13.3733 45.7818 13.5153 45.5286C13.6551 45.2754 14.0521 44.5651 14.396 43.9488C14.7398 43.3326 15.0681 42.7433 15.128 42.6379C15.1857 42.5326 15.2522 42.4116 15.2766 42.369C15.3032 42.3265 15.4585 42.0441 15.6271 41.7416C15.8889 41.271 16.2061 40.6996 16.3658 40.4195C16.3902 40.3769 16.5255 40.1349 16.6652 39.8817C16.8072 39.6285 16.9802 39.317 17.0534 39.1871C17.1244 39.0571 17.2331 38.8666 17.2908 38.7613C17.3485 38.656 17.5281 38.3333 17.6901 38.0442C17.852 37.7552 18.0716 37.354 18.1759 37.1524L18.3666 36.7894L18.3733 51.2338C18.3755 59.1798 18.3733 65.685 18.3689 65.6895Z" fill="white"/>
</svg>
