<svg width="90" height="64" viewBox="0 0 90 64" fill="none" xmlns="http://www.w3.org/2000/svg">
<path fill-rule="evenodd" clip-rule="evenodd" d="M23.8466 25.1521L44.7971 7.23111L23.8466 25.1521ZM23.8466 25.1521L44.7971 7.23111L23.8466 25.1521ZM23.8466 25.1521L44.7971 7.23111L23.8466 25.1521ZM23.8466 25.1521L44.7971 7.23111L23.8466 25.1521ZM23.8466 25.1521L44.7971 7.23111L23.8466 25.1521ZM23.8466 25.1521L44.7971 7.23111L23.8466 25.1521ZM23.8466 25.1521L44.7971 7.23111L23.8466 25.1521ZM23.8466 25.1521L44.7971 7.23111L23.8466 25.1521ZM23.8466 25.1521L44.7971 7.23111L23.8466 25.1521ZM23.8466 25.1521L44.7971 7.23111L23.8466 25.1521ZM23.8466 25.1521L44.7971 7.23111L23.8466 25.1521ZM23.8466 25.1521L44.7971 7.23111L23.8466 25.1521ZM23.8466 25.1521L44.7971 7.23111L23.8466 25.1521ZM23.8466 25.1521L44.7971 7.23111L23.8466 25.1521ZM23.8466 25.1521L44.7971 7.23111L23.8466 25.1521ZM23.8466 25.1521L44.7971 7.23111L23.8466 25.1521ZM23.8466 25.1521L44.7971 7.23111L23.8466 25.1521ZM23.8466 25.1521L44.7971 7.23111L23.8466 25.1521ZM23.8466 25.1521L44.7971 7.23111L23.8466 25.1521ZM23.8466 25.1521L44.7971 7.23111L23.8466 25.1521ZM23.8466 25.1521L44.7971 7.23111L23.8466 25.1521ZM23.5404 24.8458L44.7971 0.0151367L23.5404 24.8458ZM23.5404 24.8458L44.7971 0.0151367L23.5404 24.8458ZM23.5404 24.8458L44.7971 0.0151367L23.5404 24.8458ZM23.5404 24.8458L44.7971 0.0151367L23.5404 24.8458ZM23.5404 24.8458L44.7971 0.0151367L23.5404 24.8458ZM23.5404 24.8458L44.7971 0.0151367L23.5404 24.8458ZM23.5404 24.8458L44.7971 0.0151367L23.5404 24.8458ZM23.5404 24.8458L44.7971 0.0151367L23.5404 24.8458ZM23.5404 24.8458L44.7971 0.0151367L23.5404 24.8458ZM23.5404 24.8458L44.7971 0.0151367L23.5404 24.8458ZM23.5404 24.8458L44.7971 0.0151367L23.5404 24.8458ZM23.5404 24.8458L44.7971 0.0151367L23.5404 24.8458ZM23.5404 24.8458L44.7971 0.0151367L23.5404 24.8458ZM23.5404 24.8458L44.7971 0.0151367L23.5404 24.8458ZM23.5404 24.8458L44.7971 0.0151367L23.5404 24.8458ZM23.5404 24.8458L44.7971 0.0151367L23.5404 24.8458ZM23.5404 24.8458L44.7971 0.0151367L23.5404 24.8458ZM23.5404 24.8458L44.7971 0.0151367L23.5404 24.8458ZM23.5404 24.8458L44.7971 0.0151367L23.5404 24.8458ZM23.5404 24.8458L44.7971 0.0151367L23.5404 24.8458ZM23.5404 24.8458L44.7971 0.0151367L23.5404 24.8458ZM65.7476 25.1521L44.7971 7.23111L65.7476 25.1521ZM65.7476 25.1521L44.7971 7.23111L65.7476 25.1521ZM65.7476 25.1521L44.7971 7.23111L65.7476 25.1521ZM65.7476 25.1521L44.7971 7.23111L65.7476 25.1521ZM65.7476 25.1521L44.7971 7.23111L65.7476 25.1521ZM65.7476 25.1521L44.7971 7.23111L65.7476 25.1521ZM65.7476 25.1521L44.7971 7.23111L65.7476 25.1521ZM65.7476 25.1521L44.7971 7.23111L65.7476 25.1521ZM65.7476 25.1521L44.7971 7.23111L65.7476 25.1521ZM65.7476 25.1521L44.7971 7.23111L65.7476 25.1521ZM65.7476 25.1521L44.7971 7.23111L65.7476 25.1521ZM65.7476 25.1521L44.7971 7.23111L65.7476 25.1521ZM65.7476 25.1521L44.7971 7.23111L65.7476 25.1521ZM65.7476 25.1521L44.7971 7.23111L65.7476 25.1521ZM65.7476 25.1521L44.7971 7.23111L65.7476 25.1521ZM65.7476 25.1521L44.7971 7.23111L65.7476 25.1521ZM65.7476 25.1521L44.7971 7.23111L65.7476 25.1521ZM65.7476 25.1521L44.7971 7.23111L65.7476 25.1521ZM65.7476 25.1521L44.7971 7.23111L65.7476 25.1521ZM65.7476 25.1521L44.7971 7.23111L65.7476 25.1521ZM65.7476 25.1521L44.7971 7.23111L65.7476 25.1521ZM66.0538 24.8458L44.7971 0.0151367L66.0538 24.8458ZM66.0538 24.8458L44.7971 0.0151367L66.0538 24.8458ZM66.0538 24.8458L44.7971 0.0151367L66.0538 24.8458ZM66.0538 24.8458L44.7971 0.0151367L66.0538 24.8458ZM66.0538 24.8458L44.7971 0.0151367L66.0538 24.8458ZM66.0538 24.8458L44.7971 0.0151367L66.0538 24.8458ZM66.0538 24.8458L44.7971 0.0151367L66.0538 24.8458ZM66.0538 24.8458L44.7971 0.0151367L66.0538 24.8458ZM66.0538 24.8458L44.7971 0.0151367L66.0538 24.8458ZM66.0538 24.8458L44.7971 0.0151367L66.0538 24.8458ZM66.0538 24.8458L44.7971 0.0151367L66.0538 24.8458ZM66.0538 24.8458L44.7971 0.0151367L66.0538 24.8458ZM66.0538 24.8458L44.7971 0.0151367L66.0538 24.8458ZM66.0538 24.8458L44.7971 0.0151367L66.0538 24.8458ZM66.0538 24.8458L44.7971 0.0151367L66.0538 24.8458ZM66.0538 24.8458L44.7971 0.0151367L66.0538 24.8458ZM66.0538 24.8458L44.7971 0.0151367L66.0538 24.8458ZM66.0538 24.8458L44.7971 0.0151367L66.0538 24.8458ZM66.0538 24.8458L44.7971 0.0151367L66.0538 24.8458ZM66.0538 24.8458L44.7971 0.0151367L66.0538 24.8458ZM66.0538 24.8458L44.7971 0.0151367L66.0538 24.8458ZM23.5404 24.8458C23.4667 24.932 23.4717 25.0604 23.5519 25.1406C23.632 25.2208 23.7604 25.2258 23.8466 25.1521L23.5404 24.8458ZM23.5404 24.8458C23.4667 24.932 23.4717 25.0604 23.5519 25.1406C23.632 25.2208 23.7604 25.2258 23.8466 25.1521L23.5404 24.8458ZM66.0538 24.8458L44.7971 0.0151367L66.0538 24.8458ZM66.0538 24.8458L44.7971 0.0151367L66.0538 24.8458ZM66.0538 24.8458L44.7971 0.0151367L66.0538 24.8458ZM66.0538 24.8458L44.7971 0.0151367L66.0538 24.8458ZM66.0538 24.8458L44.7971 0.0151367L66.0538 24.8458ZM66.0538 24.8458L44.7971 0.0151367L66.0538 24.8458ZM66.0538 24.8458L44.7971 0.0151367L66.0538 24.8458ZM66.0538 24.8458L44.7971 0.0151367L66.0538 24.8458ZM66.0538 24.8458L44.7971 0.0151367L66.0538 24.8458ZM66.0538 24.8458L44.7971 0.0151367L66.0538 24.8458ZM66.0538 24.8458L44.7971 0.0151367L66.0538 24.8458ZM66.0538 24.8458L44.7971 0.0151367L66.0538 24.8458ZM66.0538 24.8458L44.7971 0.0151367L66.0538 24.8458ZM66.0538 24.8458L44.7971 0.0151367L66.0538 24.8458ZM66.0538 24.8458L44.7971 0.0151367L66.0538 24.8458ZM66.0538 24.8458L44.7971 0.0151367L66.0538 24.8458ZM66.0538 24.8458L44.7971 0.0151367L66.0538 24.8458ZM66.0538 24.8458L44.7971 0.0151367L66.0538 24.8458ZM66.0538 24.8458L44.7971 0.0151367L66.0538 24.8458ZM66.0538 24.8458L44.7971 0.0151367L66.0538 24.8458ZM66.0538 24.8458L44.7971 0.0151367L66.0538 24.8458ZM65.7476 25.1521L44.7971 7.23111L65.7476 25.1521ZM65.7476 25.1521L44.7971 7.23111L65.7476 25.1521ZM65.7476 25.1521L44.7971 7.23111L65.7476 25.1521ZM65.7476 25.1521L44.7971 7.23111L65.7476 25.1521ZM65.7476 25.1521L44.7971 7.23111L65.7476 25.1521ZM65.7476 25.1521L44.7971 7.23111L65.7476 25.1521ZM65.7476 25.1521L44.7971 7.23111L65.7476 25.1521ZM65.7476 25.1521L44.7971 7.23111L65.7476 25.1521ZM65.7476 25.1521L44.7971 7.23111L65.7476 25.1521ZM65.7476 25.1521L44.7971 7.23111L65.7476 25.1521ZM65.7476 25.1521L44.7971 7.23111L65.7476 25.1521ZM65.7476 25.1521L44.7971 7.23111L65.7476 25.1521ZM65.7476 25.1521L44.7971 7.23111L65.7476 25.1521ZM65.7476 25.1521L44.7971 7.23111L65.7476 25.1521ZM65.7476 25.1521L44.7971 7.23111L65.7476 25.1521ZM65.7476 25.1521L44.7971 7.23111L65.7476 25.1521ZM65.7476 25.1521L44.7971 7.23111L65.7476 25.1521ZM65.7476 25.1521L44.7971 7.23111L65.7476 25.1521ZM65.7476 25.1521L44.7971 7.23111L65.7476 25.1521ZM65.7476 25.1521L44.7971 7.23111L65.7476 25.1521ZM65.7476 25.1521L44.7971 7.23111L65.7476 25.1521ZM23.5404 24.8458L44.7971 0.0151367L23.5404 24.8458ZM23.5404 24.8458L44.7971 0.0151367L23.5404 24.8458ZM23.5404 24.8458L44.7971 0.0151367L23.5404 24.8458ZM23.5404 24.8458L44.7971 0.0151367L23.5404 24.8458ZM23.5404 24.8458L44.7971 0.0151367L23.5404 24.8458ZM23.5404 24.8458L44.7971 0.0151367L23.5404 24.8458ZM23.5404 24.8458L44.7971 0.0151367L23.5404 24.8458ZM23.5404 24.8458L44.7971 0.0151367L23.5404 24.8458ZM23.5404 24.8458L44.7971 0.0151367L23.5404 24.8458ZM23.5404 24.8458L44.7971 0.0151367L23.5404 24.8458ZM23.5404 24.8458L44.7971 0.0151367L23.5404 24.8458ZM23.5404 24.8458L44.7971 0.0151367L23.5404 24.8458ZM23.5404 24.8458L44.7971 0.0151367L23.5404 24.8458ZM23.5404 24.8458L44.7971 0.0151367L23.5404 24.8458ZM23.5404 24.8458L44.7971 0.0151367L23.5404 24.8458ZM23.5404 24.8458L44.7971 0.0151367L23.5404 24.8458ZM23.5404 24.8458L44.7971 0.0151367L23.5404 24.8458ZM23.5404 24.8458L44.7971 0.0151367L23.5404 24.8458ZM23.5404 24.8458L44.7971 0.0151367L23.5404 24.8458ZM23.5404 24.8458L44.7971 0.0151367L23.5404 24.8458ZM23.5404 24.8458L44.7971 0.0151367L23.5404 24.8458ZM23.8466 25.1521L44.7971 7.23111L23.8466 25.1521ZM23.8466 25.1521L44.7971 7.23111L23.8466 25.1521ZM23.8466 25.1521L44.7971 7.23111L23.8466 25.1521ZM23.8466 25.1521L44.7971 7.23111L23.8466 25.1521ZM23.8466 25.1521L44.7971 7.23111L23.8466 25.1521ZM23.8466 25.1521L44.7971 7.23111L23.8466 25.1521ZM23.8466 25.1521L44.7971 7.23111L23.8466 25.1521ZM23.8466 25.1521L44.7971 7.23111L23.8466 25.1521ZM23.8466 25.1521L44.7971 7.23111L23.8466 25.1521ZM23.8466 25.1521L44.7971 7.23111L23.8466 25.1521ZM23.8466 25.1521L44.7971 7.23111L23.8466 25.1521ZM23.8466 25.1521L44.7971 7.23111L23.8466 25.1521ZM23.8466 25.1521L44.7971 7.23111L23.8466 25.1521ZM23.8466 25.1521L44.7971 7.23111L23.8466 25.1521ZM23.8466 25.1521L44.7971 7.23111L23.8466 25.1521ZM23.8466 25.1521L44.7971 7.23111L23.8466 25.1521ZM23.8466 25.1521L44.7971 7.23111L23.8466 25.1521ZM23.8466 25.1521L44.7971 7.23111L23.8466 25.1521ZM23.8466 25.1521L44.7971 7.23111L23.8466 25.1521ZM23.8466 25.1521L44.7971 7.23111L23.8466 25.1521ZM23.8466 25.1521L44.7971 7.23111L23.8466 25.1521ZM65.7476 25.1521C65.8338 25.2258 65.9622 25.2208 66.0424 25.1406C66.1225 25.0604 66.1275 24.932 66.0538 24.8458L65.8097 25.1521H65.7476Z" fill="#333333"/>
<path d="M65.8223 25.1693C65.8281 25.1714 65.8342 25.1731 65.8402 25.1746C65.9044 25.1909 65.9754 25.1736 66.0251 25.1239L66.0308 25.1181L66.0308 25.1181C66.0399 25.1083 66.0481 25.0972 66.0548 25.0857C66.0616 25.0742 66.0672 25.0619 66.0715 25.0494C66.0898 24.9954 66.0835 24.9348 66.0523 24.8848L65.8275 25.1668L65.8223 25.1693Z" fill="#333333"/>
<path d="M44.7972 7.26208L23.8621 25.17C23.7955 25.2269 23.706 25.2414 23.628 25.2149C23.6125 25.2097 23.5973 25.2027 23.5829 25.1942V25.1941C23.5685 25.1855 23.5547 25.1753 23.5421 25.1636L23.5417 25.1633L23.5357 25.1575L23.5353 25.1572C23.4734 25.0952 23.452 25.0072 23.4723 24.9274H23.4723C23.4763 24.9114 23.4821 24.8956 23.4894 24.8808L23.4894 24.8807C23.4968 24.8657 23.506 24.8511 23.5166 24.8377L23.517 24.8372L23.5224 24.8307L23.5406 24.8457L23.5226 24.8304L44.7793 -0.000244141L44.7972 0.0150853L44.8152 -0.000244141L66.0718 24.8304C66.1287 24.8969 66.1433 24.9864 66.1169 25.0645C66.1117 25.0799 66.1047 25.0951 66.0962 25.1096C66.0878 25.1238 66.0775 25.1376 66.0656 25.1504L66.0653 25.1509L66.0594 25.157L66.0592 25.1572C65.9973 25.2191 65.9091 25.2406 65.8293 25.2203C65.8135 25.2164 65.7978 25.2105 65.7826 25.2031C65.7677 25.1957 65.7531 25.1865 65.7396 25.1759L65.7391 25.1755L65.7327 25.1702L65.733 25.1693L65.7324 25.17L44.7972 7.26208Z" fill="#333333"/>
<path fill-rule="evenodd" clip-rule="evenodd" d="M29.207 20.598L44.7974 7.23096L60.4241 20.598H29.207Z" fill="#FFF500" stroke="#FFF500" stroke-width="0.0762"/>
<path d="M88.1069 63.0331H1.49044V63.0096H1.4668V57.9752L1.49044 57.9517H88.1069L88.1305 57.9752V63.0096L88.1069 63.0331Z" fill="#333333" stroke="#333333" stroke-width="0.0762"/>
<path d="M88.2715 27.5871L88.2901 27.6007L80.0868 38.8347L89 51.1546L88.9808 51.1683V51.1919H82.271V51.1683L82.2518 51.1813L75.3882 40.9333L75.408 40.9203L75.3875 40.9315L75.0797 40.3587L75.1002 40.3476L75.0785 40.3575L74.7602 39.6451H74.7223V51.1683H74.6987V51.1919H69.3908V51.1683H69.3672V27.5871H69.3908V27.5635H74.6987V27.5871H74.7223V38.7087H74.7608L75.0618 38.0814L75.0835 38.0913L75.0624 38.0808L75.4124 37.4056L75.4334 37.4162L75.4142 37.4032L81.9266 27.574L81.9465 27.5871V27.5635H88.2715V27.5871Z" fill="#333333" stroke="#333333" stroke-width="0.0762"/>
<path d="M64.9043 40.649L65.1935 41.3721L65.194 41.3736L65.1944 41.3748L65.3989 42.1499L65.3993 42.1514L65.3994 42.1526L65.5188 42.9881L65.519 42.989L65.519 42.9907L65.5445 43.6802V43.6822L65.5019 44.5865L65.5017 44.5884L65.3909 45.4404L65.3906 45.442L65.3905 45.4427L65.203 46.2354L65.2026 46.2368L65.2022 46.238L64.938 46.9798L64.9377 46.9805L64.9367 46.9825L64.5965 47.663L64.5958 47.6643L64.5952 47.6653L64.1866 48.2951L64.1855 48.2966L64.1846 48.2977L63.6905 48.8687L63.6891 48.8701L63.3571 49.1936L63.3565 49.1941L63.3554 49.195L62.8021 49.6377L62.8009 49.6386L62.8001 49.6391L62.1865 50.0311L62.1856 50.0318L62.1844 50.0323L61.5207 50.3642L61.5189 50.365L61.5184 50.3652L60.7935 50.6381L60.7916 50.6388L60.0157 50.8604L60.0146 50.8607L60.0136 50.8609L59.1949 51.0145L59.1933 51.0147L58.306 51.1171L58.3043 51.1172L57.3736 51.1599H57.3734L57.1265 51.1684L57.1021 51.1693V51.1684H47.799L47.7754 51.1685V51.1448V27.611V27.5874H47.799H62.9226H62.9462V27.611V31.9226V31.9463H62.9226H53.1067V31.9699H53.0831V37.0679H53.1067V37.0916H57.6149V37.0909L57.6391 37.0916L58.5949 37.1172L58.5968 37.1173L59.4921 37.2111L59.4936 37.2113L60.3297 37.3563L60.3318 37.3568L61.1083 37.5615L61.1086 37.5617L61.1102 37.5622L61.8334 37.8259L61.8351 37.8266L61.8358 37.8269L62.5008 38.1509L62.5018 38.1514L62.5031 38.1522L63.1074 38.5352L63.1086 38.536L63.1094 38.5366L63.4843 38.8348L63.4847 38.8352L63.486 38.8364L64.0476 39.3809L64.0489 39.3822L64.0499 39.3834L64.5177 39.9875L64.5188 39.989L64.5195 39.99L64.9028 40.6459L64.9035 40.6471L64.9043 40.649ZM53.1067 47.2645H56.1936L57.1056 47.2048L57.888 47.0347L58.5415 46.7631L59.0664 46.3737L59.4645 45.8655L59.7355 45.2557L59.8715 44.5331L59.8969 44.0325L59.8289 43.2407L59.6255 42.5714L59.2954 42.0212L58.8215 41.5896L58.2113 41.2676L57.4717 41.072L56.5867 40.9784H56.3566H53.1067V47.2645Z" fill="#333333" stroke="#333333" stroke-width="0.0762"/>
<path d="M43.673 45.4761H43.6966V50.3304H43.673L43.6823 50.3521L43.0413 50.6258L43.032 50.6041L43.0401 50.6258L42.365 50.874L42.3569 50.8517L42.3631 50.8746L41.6367 51.0794L41.6303 51.0571L41.6356 51.08L40.8664 51.2593L40.861 51.2364L40.865 51.26L40.053 51.3965L40.0491 51.3735L40.0519 51.3965L39.1887 51.4995L39.1859 51.4759L39.1876 51.4995L38.2816 51.5678L38.2798 51.5442L38.2804 51.5678L37.3402 51.5932L37.3397 51.5696L37.3401 51.5932L36.9299 51.6019L36.9295 51.5783L36.9288 51.6019L36.0143 51.5764L36.0149 51.5529L36.0132 51.5764L35.1328 51.5082L35.1346 51.4846L35.1314 51.5076L34.2766 51.3878L34.2799 51.3648L34.2753 51.3878L33.4633 51.2252L33.4679 51.2023L33.4617 51.2252L32.6839 51.0111L32.6901 50.9888L32.6823 51.0105L31.9387 50.7462L31.9466 50.7238L31.9373 50.7456L31.2278 50.4378L31.2371 50.4161L31.2263 50.4372L30.5511 50.0866L30.5619 50.0655L30.5495 50.0853L29.9085 49.6838L29.9209 49.664L29.9068 49.6826L29.3 49.2296L29.3141 49.211L29.2988 49.229L28.7175 48.7332L28.7329 48.7152L28.7164 48.7319L28.3831 48.4074L28.3996 48.39L28.382 48.4062L27.8692 47.8334L27.8867 47.8179L27.868 47.8322L27.398 47.2253L27.4167 47.211L27.3971 47.2241L26.9697 46.5918L26.9893 46.5781L26.9688 46.5899L26.5927 45.9234L26.6132 45.9117L26.5918 45.9216L26.267 45.221L26.2884 45.2111L26.2665 45.2192L25.9844 44.4931L26.0064 44.4844L25.9839 44.4913L25.7445 43.7218L25.7671 43.715L25.744 43.7206L25.556 42.9257L25.579 42.9201L25.5558 42.9238L25.419 42.0948L25.4423 42.0911L25.4188 42.0936L25.3248 41.2391L25.3483 41.2366L25.3247 41.2379L25.2734 40.3406L25.297 40.3387H25.2734V39.8864H25.297L25.2734 39.8857L25.2905 38.9965L25.3141 38.9971L25.2905 38.9953L25.3589 38.1321L25.3825 38.134L25.3591 38.1309L25.4702 37.2932L25.4936 37.2963L25.4704 37.2919L25.6328 36.4797L25.656 36.4846L25.6331 36.4784L25.8297 35.6922L25.8526 35.6978L25.8301 35.691L26.0779 34.9383L26.1004 34.9457L26.0785 34.937L26.3691 34.2104L26.391 34.2191L26.3698 34.2092L26.7117 33.508L26.7329 33.5185L26.7124 33.5073L27.0885 32.8403L27.109 32.8521L27.0893 32.839L27.5166 32.1894L27.5363 32.2024L27.5176 32.1881L27.9877 31.5725L28.0064 31.5868L27.9886 31.5713L28.5014 30.9818L28.5192 30.9973L28.502 30.9812L28.7756 30.6908L28.7928 30.7063L28.7768 30.6895L29.358 30.1509L29.3739 30.1683L29.3588 30.1503L29.957 29.6458L29.9722 29.6638L29.9584 29.6446L30.5909 29.1916L30.6047 29.2108L30.5922 29.191L31.2503 28.7808L31.2628 28.8007L31.2519 28.7796L31.9357 28.4209L31.9466 28.442L31.9371 28.4203L32.655 28.1038L32.6645 28.1255L32.6566 28.1032L33.3916 27.8382L33.3995 27.8606L33.3928 27.8376L34.162 27.6068L34.1688 27.6297L34.1637 27.6068L34.9585 27.4274L34.9636 27.4504L34.96 27.4268L35.7806 27.299L35.7842 27.3219L35.7819 27.2984L36.628 27.2134L36.6303 27.2363L36.6292 27.2127L37.5095 27.1705L37.5106 27.1935V27.1699H37.8525V27.1935L37.8529 27.1705L38.7931 27.1873L38.7927 27.2109L38.794 27.1873L39.6914 27.2388L39.6901 27.2624L39.6924 27.2388L40.5471 27.3244L40.5448 27.3474L40.548 27.3244L41.3685 27.4355L41.3653 27.4591L41.3699 27.4355L42.1391 27.5894L42.1347 27.6124L42.1403 27.59L42.867 27.778L42.8608 27.8004L42.8682 27.778L43.5607 28.0002L43.5533 28.0231L43.5613 28.0008L43.6811 28.043L43.673 28.0653H43.6966V33.1766H43.673L43.6618 33.1977L42.9619 32.8217L42.2291 32.4978L41.4778 32.2334L40.6934 32.0373L39.8918 31.8921L39.0564 31.8071L38.2802 31.7897L37.402 31.8239L36.5653 31.9436L35.7826 32.131L35.05 32.4034L34.3607 32.7522L33.7207 33.1791L33.1256 33.6805L32.9379 33.8685L32.4436 34.4394L32.0098 35.0599L31.6516 35.7338L31.3707 36.4486L31.1491 37.2249L31.004 38.0527L30.9189 38.9214L30.9103 39.5097L30.9444 40.4138L31.0469 41.267L31.2257 42.0675L31.4813 42.8171L31.7967 43.5164L32.1966 44.163L32.6566 44.7507L32.8265 44.9294L33.3888 45.4661L34.0024 45.9179L34.6742 46.2834L35.3989 46.5731L36.1737 46.786L36.9996 46.9138L37.8784 46.9647H37.9808V46.9653L38.8254 46.9393L39.6441 46.8542L40.4455 46.709L41.2301 46.5129L41.9987 46.2486L42.7397 45.9414L43.4565 45.566L43.6618 45.455L43.673 45.4761Z" fill="#333333" stroke="#333333" stroke-width="0.0762"/>
<path d="M16.0683 32.2435H6.35495V51.1683H6.33131V51.1919H1.02364V51.1683H1V27.5871H1.02364V27.5635H21.3996V27.5871H21.4232V51.1683H21.3996V51.1919H16.0919V51.1683H16.0683V32.2435Z" fill="#333333" stroke="#333333" stroke-width="0.0762"/>
</svg>
