<svg width="0" height="0" class="hidden">
  <symbol fill="none" xmlns="http://www.w3.org/2000/svg" viewBox="0 0 16 16" id="arrow-abg">
    <path d="M7.99953 10.6668C7.84376 10.6671 7.6928 10.6128 7.57286 10.5134L3.57287 7.1801C3.43672 7.06694 3.35111 6.90434 3.33485 6.72805C3.3186 6.55177 3.37304 6.37625 3.4862 6.2401C3.59936 6.10396 3.76197 6.01834 3.93825 6.00209C4.11453 5.98584 4.29005 6.04028 4.4262 6.15344L7.99953 9.1401L11.5729 6.2601C11.6411 6.20473 11.7195 6.16337 11.8037 6.13842C11.888 6.11346 11.9763 6.1054 12.0636 6.11469C12.151 6.12398 12.2357 6.15045 12.3127 6.19257C12.3898 6.23468 12.4578 6.29162 12.5129 6.3601C12.5739 6.42865 12.6202 6.50907 12.6487 6.59632C12.6772 6.68357 12.6874 6.77577 12.6786 6.86714C12.6699 6.95852 12.6423 7.0471 12.5978 7.12734C12.5532 7.20757 12.4925 7.27774 12.4195 7.33344L8.41953 10.5534C8.29614 10.6371 8.14826 10.677 7.99953 10.6668Z" fill="currentColor"></path>
  </symbol>
   <symbol fill="none" xmlns="http://www.w3.org/2000/svg" viewBox="0 0 24 24" id="arrow-long-abg">
    <path d="M5 13L16.86 13L13.23 17.36C13.0603 17.5642 12.9786 17.8275 13.003 18.0919C13.0274 18.3563 13.1558 18.6002 13.36 18.77C13.5642 18.9397 13.8275 19.0214 14.0919 18.997C14.3563 18.9726 14.6003 18.8442 14.77 18.64L19.77 12.64C19.8036 12.5922 19.8337 12.5421 19.86 12.49C19.86 12.44 19.86 12.41 19.93 12.36C19.9753 12.2453 19.9991 12.1233 20 12C19.9991 11.8767 19.9753 11.7546 19.93 11.64C19.93 11.59 19.93 11.56 19.86 11.51C19.8337 11.4578 19.8036 11.4077 19.77 11.36L14.77 5.35997C14.676 5.24709 14.5582 5.15631 14.4252 5.09408C14.2921 5.03186 14.1469 4.99973 14 4.99997C13.7663 4.99951 13.5399 5.08089 13.36 5.22997C13.2587 5.31392 13.175 5.41702 13.1137 5.53337C13.0523 5.64971 13.0145 5.77702 13.0025 5.908C12.9904 6.03897 13.0043 6.17104 13.0433 6.29665C13.0824 6.42225 13.1458 6.53892 13.23 6.63997L16.86 11L5 11C4.73478 11 4.48043 11.1053 4.29289 11.2929C4.10536 11.4804 4 11.7348 4 12C4 12.2652 4.10536 12.5195 4.29289 12.7071C4.48043 12.8946 4.73478 13 5 13Z" fill="currentColor"></path>
  </symbol>
    <symbol fill="none" xmlns="http://www.w3.org/2000/svg" viewBox="0 0 16 16" id="phone-abg">
    <path d="M12.3236 15.751C12.1741 15.7506 12.0251 15.7342 11.8791 15.7021C9.09985 15.1272 6.53939 13.7792 4.49246 11.8132C2.4892 9.84297 1.09983 7.33439 0.492456 4.59101C0.420839 4.24911 0.438417 3.89452 0.543498 3.56137C0.64858 3.22823 0.837629 2.92773 1.09246 2.68879L2.87023 0.977679C2.96104 0.891806 3.06893 0.826047 3.18686 0.784693C3.3048 0.743339 3.43013 0.727319 3.55468 0.737679C3.68382 0.751151 3.80844 0.792751 3.91978 0.859554C4.03111 0.926356 4.12646 1.01674 4.19912 1.12435L6.42135 4.40879C6.50468 4.53623 6.54491 4.68706 6.53611 4.83907C6.52731 4.99109 6.46994 5.13626 6.37246 5.25323L5.2569 6.58657C5.70119 7.56988 6.33039 8.4586 7.11023 9.20434C7.88503 9.97714 8.80083 10.5942 9.80801 11.0221L11.1902 9.92435C11.3063 9.8326 11.4476 9.77835 11.5953 9.76883C11.7429 9.7593 11.89 9.79494 12.0169 9.87101L15.3725 12.0399C15.4876 12.1087 15.5857 12.2026 15.6594 12.3146C15.7331 12.4267 15.7805 12.554 15.798 12.6869C15.8156 12.8199 15.8028 12.9551 15.7606 13.0824C15.7185 13.2097 15.6481 13.3259 15.5547 13.4221L13.8213 15.1377C13.6245 15.3336 13.3908 15.4887 13.1337 15.5939C12.8767 15.6992 12.6013 15.7526 12.3236 15.751ZM3.48357 1.61768L1.70579 3.32879C1.56244 3.46237 1.45632 3.63096 1.39787 3.81798C1.33943 4.00501 1.33067 4.20402 1.37246 4.39546C1.93722 6.96974 3.23544 9.32537 5.11023 11.1777C7.03654 13.0273 9.44606 14.2952 12.0613 14.8355C12.2593 14.8768 12.4644 14.8685 12.6584 14.8111C12.8523 14.7537 13.0289 14.649 13.1725 14.5066L14.9058 12.791L11.6658 10.6977L10.1813 11.8799C10.1245 11.9249 10.0576 11.9553 9.98628 11.9684C9.91501 11.9816 9.84161 11.9772 9.77246 11.9555C8.53988 11.5013 7.42288 10.7804 6.50135 9.84435C5.54817 8.95422 4.80829 7.86035 4.3369 6.64435C4.31696 6.57073 4.3163 6.49322 4.33498 6.41927C4.35366 6.34533 4.39105 6.27743 4.44357 6.22212L5.64357 4.78657L3.48357 1.61768Z" fill="currentColor"></path>
  </symbol>
  <symbol fill="none" xmlns="http://www.w3.org/2000/svg" viewBox="0 0 16 14" id="email-abg">
    <path d="M13.7895 0.599976C15.0105 0.599976 16 1.60264 16 2.83998V11.16C16 12.3973 15.0105 13.4 13.7895 13.4H2.21053C1.62426 13.4 1.062 13.164 0.647448 12.7439C0.232894 12.3238 0 11.7541 0 11.16V2.83998C0 1.60264 0.989474 0.599976 2.21053 0.599976H13.7895ZM14.9474 4.58974L8.25347 8.32051C8.1846 8.35888 8.10812 8.38114 8.02965 8.38564C7.95118 8.39015 7.87271 8.37678 7.8 8.34654L7.74653 8.32094L1.05263 4.58931V11.16C1.05263 11.4712 1.17462 11.7696 1.39177 11.9896C1.60892 12.2097 1.90343 12.3333 2.21053 12.3333H13.7895C14.0966 12.3333 14.3911 12.2097 14.6082 11.9896C14.8254 11.7696 14.9474 11.4712 14.9474 11.16V4.58974ZM13.7895 1.66664H2.21053C1.90343 1.66664 1.60892 1.79026 1.39177 2.0103C1.17462 2.23035 1.05263 2.52879 1.05263 2.83998V3.37288L8 7.24446L14.9474 3.37246V2.83998C14.9474 2.52879 14.8254 2.23035 14.6082 2.0103C14.3911 1.79026 14.0966 1.66664 13.7895 1.66664Z" fill="currentColor"></path>
  </symbol>
   <symbol fill="none" xmlns="http://www.w3.org/2000/svg" viewBox="0 0 18 18" id="facebook-abg">
    <g clip-path="url(#clip0_348_3245)">
      <path d="M9.57576 18.0909V9.81078H12.7116L13.1778 6.56886H9.57576V4.50389C9.57576 3.56839 9.86837 2.92789 11.3756 2.92789H13.2855V0.0375316C12.3562 -0.0511783 11.4222 -0.0940116 10.4876 -0.0907715C7.71579 -0.0907715 5.81272 1.41654 5.81272 4.18364V6.5628H2.69727V9.80472H5.81953V18.0909H9.57576Z" fill="currentColor"></path>
    </g>
    <defs>
      <clipPath id="clip0_348_3245">
        <rect width="18" height="18" fill="white"></rect>
      </clipPath>
    </defs>
  </symbol>
    <symbol fill="none" xmlns="http://www.w3.org/2000/svg" viewBox="0 0 20 20" id="instagram-abg">
    <g clip-path="url(#clip0_348_3250)">
      <path d="M9.99993 0.909058C7.52891 0.909058 7.22095 0.920989 6.25391 0.961899C5.28288 1.00963 4.62607 1.16019 4.04652 1.38519C3.43996 1.61418 2.89065 1.9727 2.43686 2.43576C1.97251 2.88849 1.61379 3.43811 1.38629 4.04542C1.16129 4.62497 1.01072 5.28178 0.962997 6.25281C0.919247 7.22042 0.910156 7.52781 0.910156 9.99883C0.910156 12.4699 0.922088 12.7778 0.962997 13.7449C1.01072 14.713 1.16129 15.3727 1.38629 15.9522C1.61528 16.5588 1.9738 17.1081 2.43686 17.5619C2.88959 18.0262 3.43921 18.385 4.04652 18.6125C4.62607 18.8346 5.28572 18.988 6.25391 19.0358C7.22152 19.0795 7.52891 19.0886 9.99993 19.0886C12.471 19.0886 12.7789 19.0767 13.746 19.0358C14.7141 18.988 15.3738 18.8341 15.9533 18.6125C16.5599 18.3835 17.1092 18.025 17.563 17.5619C18.0279 17.1097 18.3868 16.5599 18.6136 15.9522C18.8357 15.3727 18.9891 14.713 19.0369 13.7449C19.0806 12.7772 19.0897 12.4699 19.0897 9.99883C19.0897 7.52781 19.0778 7.21985 19.0369 6.25281C18.9891 5.28463 18.8352 4.62156 18.6136 4.04542C18.3846 3.43887 18.0261 2.88955 17.563 2.43576C17.1108 1.97081 16.561 1.612 15.9533 1.38519C15.3738 1.16019 14.7141 1.00963 13.746 0.961899C12.7783 0.918149 12.471 0.909058 9.99993 0.909058ZM9.99993 2.54542C12.4266 2.54542 12.7164 2.55735 13.6755 2.59826C14.5602 2.63974 15.042 2.78747 15.3619 2.91247C15.7573 3.05845 16.1153 3.29079 16.4096 3.59258C16.7109 3.88566 16.9423 4.24278 17.0869 4.63747C17.2119 4.95735 17.3596 5.43917 17.4011 6.32383C17.442 7.28292 17.4539 7.57326 17.4539 9.9994C17.4539 12.4255 17.442 12.7159 17.3977 13.675C17.3499 14.5596 17.2022 15.0414 17.0778 15.3613C16.9056 15.788 16.7136 16.0863 16.3965 16.4091C16.1012 16.709 15.7435 16.9402 15.3488 17.0863C15.0329 17.2113 14.5442 17.3591 13.6562 17.4005C12.692 17.4414 12.4079 17.4534 9.97493 17.4534C7.54197 17.4534 7.25845 17.4414 6.29311 17.3971C5.40845 17.3494 4.92038 17.2017 4.6005 17.0772C4.16868 16.9051 3.87266 16.713 3.55561 16.396C3.23572 16.0761 3.03232 15.7716 2.8755 15.3483C2.74822 15.0324 2.60277 14.5437 2.55561 13.6556C2.52322 12.7028 2.50788 12.4074 2.50788 9.98576C2.50788 7.56531 2.52322 7.26928 2.55561 6.30451C2.60277 5.41644 2.74822 4.92894 2.8755 4.6119C3.03232 4.17951 3.23629 3.88406 3.55561 3.56417C3.87209 3.24769 4.16868 3.04315 4.6005 2.88292C4.92038 2.75849 5.39652 2.61076 6.28459 2.56644C7.24879 2.53178 7.53288 2.51928 9.96243 2.51928L9.99993 2.54542ZM9.99993 5.33349C9.38706 5.33326 8.78014 5.45381 8.21388 5.68825C7.64762 5.92268 7.1331 6.2664 6.69973 6.69977C6.26637 7.13314 5.92264 7.64765 5.68821 8.21392C5.45378 8.78018 5.33323 9.38709 5.33345 9.99997C5.33323 10.6128 5.45378 11.2198 5.68821 11.786C5.92264 12.3523 6.26637 12.8668 6.69973 13.3002C7.1331 13.7335 7.64762 14.0773 8.21388 14.3117C8.78014 14.5461 9.38706 14.6667 9.99993 14.6664C10.6128 14.6667 11.2197 14.5461 11.786 14.3117C12.3522 14.0773 12.8668 13.7335 13.3001 13.3002C13.7335 12.8668 14.0772 12.3523 14.3116 11.786C14.5461 11.2198 14.6666 10.6128 14.6664 9.99997C14.6666 9.38709 14.5461 8.78018 14.3116 8.21392C14.0772 7.64765 13.7335 7.13314 13.3001 6.69977C12.8668 6.2664 12.3522 5.92268 11.786 5.68825C11.2197 5.45381 10.6128 5.33326 9.99993 5.33349ZM9.99993 13.0301C8.32493 13.0301 6.96982 11.675 6.96982 9.99997C6.96982 8.32497 8.32493 6.96985 9.99993 6.96985C11.6749 6.96985 13.03 8.32497 13.03 9.99997C13.03 11.675 11.6749 13.0301 9.99993 13.0301ZM15.9454 5.14713C15.9451 5.43671 15.8298 5.71433 15.625 5.91898C15.4201 6.12364 15.1424 6.2386 14.8528 6.2386C14.7096 6.2386 14.5678 6.2104 14.4355 6.15561C14.3032 6.10081 14.183 6.0205 14.0818 5.91925C13.9805 5.818 13.9002 5.6978 13.8454 5.56552C13.7906 5.43323 13.7624 5.29145 13.7624 5.14826C13.7624 5.00508 13.7906 4.86329 13.8454 4.73101C13.9002 4.59872 13.9805 4.47852 14.0818 4.37727C14.183 4.27603 14.3032 4.19571 14.4355 4.14092C14.5678 4.08612 14.7096 4.05792 14.8528 4.05792C15.4533 4.05792 15.9454 4.54656 15.9454 5.14713Z" fill="currentColor"></path>
    </g>
    <defs>
      <clipPath id="clip0_348_3250">
        <rect width="18.1818" height="18.1818" fill="white" transform="translate(0.908203 0.909058)"></rect>
      </clipPath>
    </defs>
  </symbol>
</svg>